<svg id="OBJECTS" xmlns="http://www.w3.org/2000/svg" viewBox="0 0 217.81 116.67"><defs><style>.cls-1{fill:#452f27;}.cls-2{fill:none;stroke:#452f27;stroke-linecap:round;stroke-linejoin:round;stroke-width:2.43px;}.cls-3{font-size:29px;}.cls-3,.cls-4{font-family:BebasNeue-Regular, Bebas Neue;}.cls-4{font-size:11px;}.cls-5{letter-spacing:0em;}.cls-6{letter-spacing:0em;}</style></defs><path class="cls-1" d="M231.39,184.45,220,178a.32.32,0,0,0-.35.54l12.52,9-.38.58-13.43-7.58a.32.32,0,0,0-.35.54l12.52,9-.38.58-13.43-7.58a.32.32,0,0,0-.35.54l12.52,9-.38.59-13.43-7.59a.33.33,0,0,0-.35.55l10.63,7.65a16.62,16.62,0,0,0,4.08,2.16l.34.12a5,5,0,0,0,4.94-1l30.45,20.41a2.52,2.52,0,1,0,2.66-4.14l-31.3-19.1a5.07,5.07,0,0,0-1.2-4.89l-.26-.25A16.49,16.49,0,0,0,231.39,184.45Z" transform="translate(-141.1 -177.97)"/><path class="cls-1" d="M225.32,212.09l53-33.47a.77.77,0,0,1,1.18.77c-.49,3.07-3.59,10.5-20.77,20.23a2.73,2.73,0,0,1-3.64-.91h0L227.77,216a2.28,2.28,0,0,1-3.16-.71h0A2.28,2.28,0,0,1,225.32,212.09Z" transform="translate(-141.1 -177.97)"/><line class="cls-2" x1="35.39" y1="41.23" x2="183.06" y2="41.23"/><line class="cls-2" x1="35.39" y1="74.41" x2="183.06" y2="74.41"/><line class="cls-2" x1="31.97" y1="49.77" x2="13.76" y2="49.77"/><line class="cls-2" x1="31.97" y1="57.28" x2="1.22" y2="57.28"/><line class="cls-2" x1="31.97" y1="64.79" x2="13.76" y2="64.79"/><line class="cls-2" x1="185.84" y1="49.77" x2="204.04" y2="49.77"/><line class="cls-2" x1="185.84" y1="57.28" x2="216.59" y2="57.28"/><line class="cls-2" x1="185.84" y1="64.79" x2="204.04" y2="64.79"/><text x="-141.1" y="-177.97"/><text x="-141.1" y="-177.97"/><path class="cls-1" d="M225.09,260.73a1.45,1.45,0,1,1-1.44-1.44A1.45,1.45,0,0,1,225.09,260.73Z" transform="translate(-141.1 -177.97)"/><path class="cls-1" d="M277.51,260.73a1.45,1.45,0,1,1-1.45-1.44A1.45,1.45,0,0,1,277.51,260.73Z" transform="translate(-141.1 -177.97)"/><text class="cls-3" transform="translate(49.15 67.37)">El Argentino</text><text class="cls-4" transform="translate(81.1 30.05)"><tspan xml:space="preserve">19                  93</tspan></text><text class="cls-4" transform="translate(90.9 86.66)"><tspan class="cls-5">A</tspan><tspan x="4.39" y="0">utenti</tspan><tspan class="cls-6" x="27.62" y="0">c</tspan><tspan x="31.86" y="0">o</tspan></text></svg>