<svg xmlns="http://www.w3.org/2000/svg" viewBox="0 0 333.23 334.59"><defs><style>.cls-1{fill:#a8a8a8;}.cls-2{fill:#3f3f3f;}</style></defs><g id="Capa_2" data-name="Capa 2"><g id="layer"><path class="cls-1" d="M151.32,325.92h0l-32.57-6.4a.11.11,0,0,1-.07-.06.07.07,0,0,1,0-.09l1.65-2.75L91,307.8h0L54.57,281h0L24.87,241.14a.14.14,0,0,1,0-.11A.11.11,0,0,1,25,241l7.36.24L10.64,202.43a.14.14,0,0,1,0-.06h0v0L33.47,124.6l-26,27.93a.11.11,0,0,1-.12,0,.11.11,0,0,1-.06-.11l8.58-39s0,0,0,0h0L53.4,52.81l0,0h0L91.71,25.86h0L135.58,10h0l51.54-1.34h0l39,8.88h0L253.1,32.89h0l30.44,25.63,0,0L309,95.21v0h0l8.57,21.92a.11.11,0,0,1,0,.12.09.09,0,0,1-.13,0L308.91,108l-.1,17.22,13.25,6.05a.11.11,0,0,1,.06.07l3.78,27.93v0h0l-10.06,42.42,5.7,3.07a.11.11,0,0,1,0,.13l-16.12,40.55h0l0,0L277,282.64h0l-33.81,24.4h0l-37,14.69a.09.09,0,0,1-.12,0l-3.4-6.32-13.89,2.85-2.3,7.19a.09.09,0,0,1-.1.07l-35,.41Zm37.17-7.63-36.13,7.42,33.89-.4Zm-67.87-1.79,30.58,9.18-4-26.27L129.32,302Zm70-23.33-39,32.47,36.87-7.57L194.34,300Zm-43.25,6.21,4,26.25,39-32.46Zm-28.5,20,30.42,6-28.82-8.65Zm83.9-4,3.33,6.19L242,307.31Zm-8.34-15.09L188.79,318l13.72-2.82Zm-103,7.48,29,8.7,8.65-14.4L116.2,303.9h0ZM194.55,300l8.16,15.18,40-8.2-46.4-12.36ZM84.29,292.05,91,307.6l24.75-3.84Zm-29-10.8,35.48,26.16L84,292Zm141.08,13.17,46.57,12.4L232.85,288,197,292.36Zm51.74-8.25-4.81,20.57,33.28-24Zm-15,1.82,10,18.71,4.8-20.5ZM108.07,262l8.19,41.65,12.94-1.87,14.62-24.36ZM84.18,291.79l31.87,11.85L107.84,262,62.79,242.52Zm59.73-14.09-14.46,24.08,17.73-2.57Zm47,15.48,3.54,6.57,1.66-5.19Zm-46.79-15.62,3.29,21.63L190.26,293Zm47.13,15.5,4.92,1.31.64-2Zm19.41-44L190.85,292.9l6-.73ZM144.24,277.4l46.21,15.44-17.7-28.15Zm28.69-12.79,17.74,28.2,20.38-45.2Zm38.35-16.94-14.22,44.48,35.69-4.32ZM54.74,280.85l29.18,10.84-21.29-49Zm156.75-33.19L233,287.8,247.91,286l3.92-16.73ZM252,269.35,248.13,286l28.47-3.45Zm.05-.2,24.76,13.26-1.74-36.21-17.74.37Zm23.22-22.95L277,282.09l13.41-36.2Zm15.34-.32L277.25,282l27.9-36.41ZM32.67,241.43l21.79,39L49.33,242Zm16.86.57,5.12,38.31,7.83-37.88Zm-24.37-.82,28.63,38.44L32.44,241.43ZM108,261.8l35.88,15.47,9.17-43.73-49.65,4.88Zm45.22-28.11-9.13,43.55,28.53-12.72Zm58.4,13.82,40.23,21.54,5.26-22.48Zm-58.23-13.93,19.41,30.86,38.12-17ZM63,242.39l44.8,19.32-4.58-23.27Zm209-59.26-60.47,64.18,45.69-.94ZM153.34,233.36l57.76,13.92-26.38-79.83Zm31.54-66.05,26.37,79.77,21.37-71.24Zm47.94,8.56L211.47,247l60.47-64.18Zm39.26,7.64-14.7,62.86,17.69-.37Zm.18-.27,3,62.76,15.21-.32,6.12-16.51Zm24.47,46.16-6,16.28,14.49-.3Zm.09-.25,8.46,16,2.89-46.64ZM308.41,198l-2.88,46.35,10.07-42.46Zm7.37,4-10,42.21L321.35,205ZM49.5,241.79l12.79.43L48.1,231.29ZM92.17,182.3l-29.4,59.91,40.41-4ZM48.06,231l14.43,11.11L60.76,190l-17.6,4.4ZM61,189.91l1.73,52L92,182.14Zm-28.4,51.32,16.74.56-1.43-10.67L11.05,202.76Zm59.8-59,11,56L153,233.35Zm.08-.2,60.72,51.22,31.4-66ZM11,202.43l36.89,28.4L43,194.41ZM272.36,183l24.33,45.92,11.5-31ZM33.65,124.7,10.87,202.24l32.07-8Zm274.8,73.07,7.2,3.89,9.81-41.36Zm-36.05-15,35.82,14.87.16-30.61ZM308.59,167l-.17,30.38,17.18-37.83ZM33.83,124.5l9.31,69.67,17.61-4.41-1.33-40ZM59.63,150,61,189.71,92,181.93Zm173.25,25.71,39.06,7-27.79-44.54Zm65.44-55-26,61.92,36.06-15.77.22-41.45Zm-43-19.62,16.82,81.4,26-61.87Zm-11.12,36.8,27.7,44.41-16.73-81ZM156.5,124.21l-64,57.63,92-14.73ZM59.62,149.68l32.51,32.09,4.75-63.25-38.37-2.36Zm37.46-31.16-4.75,63.23L156.39,124l-7.48-11.43ZM185,167.12l47.73,8.52L244,137.89,233.66,121.3ZM210,83.43l-25.09,83.43,48.61-45.73ZM172.4,109.89l12.35,56.9,25.07-83.35Zm136.41,15.58-.22,41.27,17.1-7.48-3.76-27.81Zm-152.16-1.4,27.87,42.61L172.23,110ZM16.09,113.54,7.61,152.12l26-27.95,2.6-9.39ZM33.81,124.2l25.6,25.28-1.1-33.34L39.05,115Zm200-3,10.28,16.47L255,101.22Zm64.59-.67,10.21,4.67.1-17.34-3.42-3.74Zm-149.27-7.9,7.41,11.31L172,110ZM36.41,114.8,34,123.46l4.83-8.52ZM210.24,83.39,233.7,121,255,100.92ZM255.59,101l42.63,19.46,6.92-16.49-6.83-7.44ZM58.5,116l38.2,2.35L57.4,82.78Zm67.18-38.87L97.19,118.3l51.6-5.88ZM57.53,82.62l39.34,35.57L94.7,79.56ZM94.9,79.55l2.17,38.58L125.48,77Zm214,28.19,8.25,9L309,95.79Zm-269.75,7,19.14,1.18-1.1-33Zm-2.7-.16,2.48.15L57,82.91,42.19,94Zm-20.17-1.24,20,1.23,5.66-20.42ZM53.2,53.51,16.37,113,42,93.85ZM126,77.29l23,35.11,23-2.62Zm35.26,2.37,11,30,37.37-26.42ZM126,77l46.06,32.54-11-29.93Zm179.34,26.84,3.34,3.64.07-11.75Zm-6.81-7.43,6.66,7.27,3.5-8.33ZM275.17,71.23l-19.75,29.54,42.72-4.48Zm-65,11.92,44.91,17.58-7.56-55Zm37.55-37.43,7.55,54.89L275,71.08,263.57,58.59Zm27.55,25.34,23.11,25.21,10.24-1.07L276.56,69.14ZM276.67,69,308.4,94.75l-24.91-36ZM53.45,53.37,42.27,93.66,57.18,82.5ZM161.22,79.46l48.61,3.62L181.49,26.76,151.71,53.59Zm20.47-52.74L210,82.9l12.95-52.51Zm41.44,3.69L210.18,82.86l37.28-37.39L236.81,31.63ZM92.82,46.14,57.55,82.42l37.14-3.06ZM53.6,52.94l3.75,29.31L77.8,48.68Zm24.46-4.31L57.84,81.84,92.62,46.06Zm47.86,28.2L161,79.44l-9.45-25.71ZM93,46.16l1.87,33.19,30.56-2.52Zm0-.25,32.55,30.8,7.43-50L104.86,36Zm40.2-19.26-7.44,50,25.66-23.12L140.69,24.2Zm131.37,32.8,10.51,11.46L276.41,69Zm-.92-1,12.81,10.41,6.81-10.19L254.1,48Zm-9.9-10.79L283,58.32,253.08,33.14,249,42.44Zm-5.69-1.87,14.52,11.8-8.94-9.76ZM140.88,24.14l10.76,29.25,29.68-26.75-23-8.26ZM91.43,26.3,54.1,52.56l26.7-8.81ZM80.64,44l-25.8,8.51,23.1-4.07Zm.3-.1L78.2,48.4l14.6-2.57-.33-5.72Zm166.79,1.51,5.67,2.08L249,42.64ZM92.67,40,93,45.7l11.35-9.51Zm144.41-8.39,10.49,13.63,1.23-2.8L239,31.83ZM91.69,26.27,81.1,43.65,92.46,39.9Zm147.64,5.58,9.55,10.42,4-9.21ZM91.87,26l.79,13.82,12.1-4,30.36-25.45Zm43.61-15.66L105.27,35.67l27.81-9.17ZM239.13,31.63l13.47,1.21L226.68,18.06Zm-2.22-.19,1.92.17L227.67,19.43Zm-13.74-1.23,13.47,1.2L226.22,17.88Zm-40.95-3.65L223,30.19,226,17.78Zm-23.57-8.28,22.8,8.19L187,8.92Zm28.58-9.4-5.57,17.59,44-8.82Zm-51.57,1.63-2.37,15.92L140.62,24Zm.12-.24,5,13.68L158,18.27Zm.37-.08,22.19,8,28.15-9.29Z"/><path class="cls-1" d="M126.82,76.91a1.14,1.14,0,1,0-1.14,1.14A1.14,1.14,0,0,0,126.82,76.91Z"/><path class="cls-1" d="M310,95.27a1.14,1.14,0,1,0-1.14,1.14A1.14,1.14,0,0,0,310,95.27Z"/><path class="cls-1" d="M318.59,117.2a1.15,1.15,0,1,0-1.15,1.14A1.15,1.15,0,0,0,318.59,117.2Z"/><path class="cls-1" d="M227.31,17.65a1.14,1.14,0,1,0-1.14,1.14A1.14,1.14,0,0,0,227.31,17.65Z"/><path class="cls-1" d="M188.3,8.77a1.14,1.14,0,1,0-1.14,1.14A1.15,1.15,0,0,0,188.3,8.77Z"/><path class="cls-1" d="M54.63,52.86A1.14,1.14,0,1,0,53.49,54,1.14,1.14,0,0,0,54.63,52.86Z"/><path class="cls-1" d="M34.83,124.22a1.14,1.14,0,1,0-1.14,1.14A1.14,1.14,0,0,0,34.83,124.22Z"/><path class="cls-1" d="M58.43,82.54a1.14,1.14,0,1,0-1.14,1.15A1.14,1.14,0,0,0,58.43,82.54Z"/><path class="cls-1" d="M63.74,242.33a1.14,1.14,0,1,0-1.14,1.14A1.14,1.14,0,0,0,63.74,242.33Z"/><path class="cls-1" d="M145.11,277.41a1.14,1.14,0,1,0-1.14,1.14A1.14,1.14,0,0,0,145.11,277.41Z"/><path class="cls-1" d="M154.34,233.43a1.15,1.15,0,1,0-1.15,1.14A1.14,1.14,0,0,0,154.34,233.43Z"/><path class="cls-1" d="M63.74,242.33a1.14,1.14,0,1,0-1.14,1.14A1.14,1.14,0,0,0,63.74,242.33Z"/><path class="cls-1" d="M93.35,182a1.14,1.14,0,1,0-1.14,1.14A1.14,1.14,0,0,0,93.35,182Z"/><path class="cls-1" d="M117.33,303.8a1.15,1.15,0,1,0-1.15,1.14A1.14,1.14,0,0,0,117.33,303.8Z"/><path class="cls-1" d="M191.83,293a1.14,1.14,0,1,0-1.14,1.14A1.14,1.14,0,0,0,191.83,293Z"/><path class="cls-1" d="M152.46,325.82a1.14,1.14,0,1,0-1.14,1.14A1.14,1.14,0,0,0,152.46,325.82Z"/><path class="cls-1" d="M145.11,277.41a1.14,1.14,0,1,0-1.14,1.14A1.14,1.14,0,0,0,145.11,277.41Z"/><path class="cls-1" d="M119.89,319.42a1.14,1.14,0,1,0-1.14,1.14A1.14,1.14,0,0,0,119.89,319.42Z"/><path class="cls-1" d="M152.46,325.82a1.14,1.14,0,1,0-1.14,1.14A1.14,1.14,0,0,0,152.46,325.82Z"/><path class="cls-1" d="M92.12,307.71A1.14,1.14,0,1,0,91,308.85,1.14,1.14,0,0,0,92.12,307.71Z"/><path class="cls-1" d="M117.33,303.8a1.15,1.15,0,1,0-1.15,1.14A1.14,1.14,0,0,0,117.33,303.8Z"/><path class="cls-1" d="M55.77,280.91a1.14,1.14,0,1,0-1.14,1.14A1.14,1.14,0,0,0,55.77,280.91Z"/><path class="cls-1" d="M92.12,307.71A1.14,1.14,0,1,0,91,308.85,1.14,1.14,0,0,0,92.12,307.71Z"/><path class="cls-1" d="M63.74,242.33a1.14,1.14,0,1,0-1.14,1.14A1.14,1.14,0,0,0,63.74,242.33Z"/><path class="cls-1" d="M55.77,280.91a1.14,1.14,0,1,0-1.14,1.14A1.14,1.14,0,0,0,55.77,280.91Z"/><path class="cls-1" d="M26.09,241.08A1.14,1.14,0,1,0,25,242.22,1.15,1.15,0,0,0,26.09,241.08Z"/><path class="cls-1" d="M63.74,242.33a1.14,1.14,0,1,0-1.14,1.14A1.14,1.14,0,0,0,63.74,242.33Z"/><path class="cls-1" d="M11.87,202.38a1.15,1.15,0,1,0-1.15,1.14A1.15,1.15,0,0,0,11.87,202.38Z"/><path class="cls-1" d="M55.77,280.91a1.14,1.14,0,1,0-1.14,1.14A1.14,1.14,0,0,0,55.77,280.91Z"/><path class="cls-1" d="M34.83,124.22a1.14,1.14,0,1,0-1.14,1.14A1.14,1.14,0,0,0,34.83,124.22Z"/><path class="cls-1" d="M93.35,182a1.14,1.14,0,1,0-1.14,1.14A1.14,1.14,0,0,0,93.35,182Z"/><path class="cls-1" d="M11.87,202.38a1.15,1.15,0,1,0-1.15,1.14A1.15,1.15,0,0,0,11.87,202.38Z"/><path class="cls-1" d="M34.83,124.22a1.14,1.14,0,1,0-1.14,1.14A1.14,1.14,0,0,0,34.83,124.22Z"/><path class="cls-1" d="M8.57,152.46a1.14,1.14,0,1,0-1.14,1.14A1.14,1.14,0,0,0,8.57,152.46Z"/><path class="cls-1" d="M17.15,113.44A1.14,1.14,0,1,0,16,114.58,1.14,1.14,0,0,0,17.15,113.44Z"/><path class="cls-1" d="M98.12,118.43A1.14,1.14,0,1,0,97,119.57,1.14,1.14,0,0,0,98.12,118.43Z"/><path class="cls-1" d="M93.35,182a1.14,1.14,0,1,0-1.14,1.14A1.14,1.14,0,0,0,93.35,182Z"/><path class="cls-1" d="M154.34,233.43a1.15,1.15,0,1,0-1.15,1.14A1.14,1.14,0,0,0,154.34,233.43Z"/><path class="cls-1" d="M191.83,293a1.14,1.14,0,1,0-1.14,1.14A1.14,1.14,0,0,0,191.83,293Z"/><path class="cls-1" d="M145.11,277.41a1.14,1.14,0,1,0-1.14,1.14A1.14,1.14,0,0,0,145.11,277.41Z"/><path class="cls-1" d="M212.39,247.42a1.14,1.14,0,1,0-1.14,1.14A1.15,1.15,0,0,0,212.39,247.42Z"/><path class="cls-1" d="M154.34,233.43a1.15,1.15,0,1,0-1.15,1.14A1.14,1.14,0,0,0,154.34,233.43Z"/><path class="cls-1" d="M185.88,167.18a1.15,1.15,0,1,0-1.15,1.15A1.15,1.15,0,0,0,185.88,167.18Z"/><path class="cls-1" d="M93.35,182a1.14,1.14,0,1,0-1.14,1.14A1.14,1.14,0,0,0,93.35,182Z"/><path class="cls-1" d="M173.43,109.85a1.14,1.14,0,1,0-1.14,1.14A1.15,1.15,0,0,0,173.43,109.85Z"/><path class="cls-1" d="M98.12,118.43A1.14,1.14,0,1,0,97,119.57,1.14,1.14,0,0,0,98.12,118.43Z"/><path class="cls-1" d="M58.43,82.54a1.14,1.14,0,1,0-1.14,1.15A1.14,1.14,0,0,0,58.43,82.54Z"/><path class="cls-1" d="M17.15,113.44A1.14,1.14,0,1,0,16,114.58,1.14,1.14,0,0,0,17.15,113.44Z"/><path class="cls-1" d="M54.63,52.86A1.14,1.14,0,1,0,53.49,54,1.14,1.14,0,0,0,54.63,52.86Z"/><path class="cls-1" d="M58.43,82.54a1.14,1.14,0,1,0-1.14,1.15A1.14,1.14,0,0,0,58.43,82.54Z"/><path class="cls-1" d="M126.82,76.91a1.14,1.14,0,1,0-1.14,1.14A1.14,1.14,0,0,0,126.82,76.91Z"/><path class="cls-1" d="M98.12,118.43A1.14,1.14,0,1,0,97,119.57,1.14,1.14,0,0,0,98.12,118.43Z"/><path class="cls-1" d="M94.05,45.91a1.15,1.15,0,1,0-1.14,1.14A1.14,1.14,0,0,0,94.05,45.91Z"/><path class="cls-1" d="M58.43,82.54a1.14,1.14,0,1,0-1.14,1.15A1.14,1.14,0,0,0,58.43,82.54Z"/><path class="cls-1" d="M92.91,25.94a1.15,1.15,0,1,0-1.14,1.14A1.14,1.14,0,0,0,92.91,25.94Z"/><path class="cls-1" d="M54.63,52.86A1.14,1.14,0,1,0,53.49,54,1.14,1.14,0,0,0,54.63,52.86Z"/><path class="cls-1" d="M94.05,45.91a1.15,1.15,0,1,0-1.14,1.14A1.14,1.14,0,0,0,94.05,45.91Z"/><path class="cls-1" d="M92.91,25.94a1.15,1.15,0,1,0-1.14,1.14A1.14,1.14,0,0,0,92.91,25.94Z"/><path class="cls-1" d="M136.76,10.11a1.14,1.14,0,1,0-1.14,1.14A1.15,1.15,0,0,0,136.76,10.11Z"/><path class="cls-1" d="M94.05,45.91a1.15,1.15,0,1,0-1.14,1.14A1.14,1.14,0,0,0,94.05,45.91Z"/><path class="cls-1" d="M126.82,76.91a1.14,1.14,0,1,0-1.14,1.14A1.14,1.14,0,0,0,126.82,76.91Z"/><path class="cls-1" d="M185.88,167.18a1.15,1.15,0,1,0-1.15,1.15A1.15,1.15,0,0,0,185.88,167.18Z"/><path class="cls-1" d="M212.39,247.42a1.14,1.14,0,1,0-1.14,1.14A1.15,1.15,0,0,0,212.39,247.42Z"/><path class="cls-1" d="M187.47,325.41a1.15,1.15,0,1,0-1.15,1.15A1.15,1.15,0,0,0,187.47,325.41Z"/><path class="cls-1" d="M152.46,325.82a1.14,1.14,0,1,0-1.14,1.14A1.14,1.14,0,0,0,152.46,325.82Z"/><circle class="cls-1" cx="243.11" cy="306.98" r="1.14"/><path class="cls-1" d="M212.39,247.42a1.14,1.14,0,1,0-1.14,1.14A1.15,1.15,0,0,0,212.39,247.42Z"/><path class="cls-1" d="M191.83,293a1.14,1.14,0,1,0-1.14,1.14A1.14,1.14,0,0,0,191.83,293Z"/><path class="cls-1" d="M207.24,321.67a1.15,1.15,0,1,0-1.14,1.14A1.14,1.14,0,0,0,207.24,321.67Z"/><circle class="cls-1" cx="243.11" cy="306.98" r="1.14"/><path class="cls-1" d="M191.83,293a1.14,1.14,0,1,0-1.14,1.14A1.14,1.14,0,0,0,191.83,293Z"/><path class="cls-1" d="M278.07,282.58a1.14,1.14,0,1,0-1.14,1.14A1.14,1.14,0,0,0,278.07,282.58Z"/><path class="cls-1" d="M273.28,182.79a1.14,1.14,0,1,0-1.14,1.15A1.14,1.14,0,0,0,273.28,182.79Z"/><circle class="cls-1" cx="243.11" cy="306.98" r="1.14"/><path class="cls-1" d="M278.07,282.58a1.14,1.14,0,1,0-1.14,1.14A1.14,1.14,0,0,0,278.07,282.58Z"/><path class="cls-1" d="M212.39,247.42a1.14,1.14,0,1,0-1.14,1.14A1.15,1.15,0,0,0,212.39,247.42Z"/><path class="cls-1" d="M306.5,245.48a1.15,1.15,0,1,0-1.14,1.14A1.14,1.14,0,0,0,306.5,245.48Z"/><path class="cls-1" d="M278.07,282.58a1.14,1.14,0,1,0-1.14,1.14A1.14,1.14,0,0,0,278.07,282.58Z"/><path class="cls-1" d="M309.46,197.81a1.15,1.15,0,1,0-1.14,1.14A1.14,1.14,0,0,0,309.46,197.81Z"/><path class="cls-1" d="M322.62,204.92a1.14,1.14,0,1,0-1.14,1.14A1.14,1.14,0,0,0,322.62,204.92Z"/><path class="cls-1" d="M306.5,245.48a1.15,1.15,0,1,0-1.14,1.14A1.14,1.14,0,0,0,306.5,245.48Z"/><path class="cls-1" d="M326.94,159.32a1.14,1.14,0,1,0-1.14,1.14A1.14,1.14,0,0,0,326.94,159.32Z"/><path class="cls-1" d="M309.46,197.81a1.15,1.15,0,1,0-1.14,1.14A1.14,1.14,0,0,0,309.46,197.81Z"/><path class="cls-1" d="M306.5,245.48a1.15,1.15,0,1,0-1.14,1.14A1.14,1.14,0,0,0,306.5,245.48Z"/><path class="cls-1" d="M273.28,182.79a1.14,1.14,0,1,0-1.14,1.15A1.14,1.14,0,0,0,273.28,182.79Z"/><path class="cls-1" d="M212.39,247.42a1.14,1.14,0,1,0-1.14,1.14A1.15,1.15,0,0,0,212.39,247.42Z"/><path class="cls-1" d="M256.36,100.89a1.15,1.15,0,1,0-1.15,1.14A1.15,1.15,0,0,0,256.36,100.89Z"/><path class="cls-1" d="M185.88,167.18a1.15,1.15,0,1,0-1.15,1.15A1.15,1.15,0,0,0,185.88,167.18Z"/><path class="cls-1" d="M273.28,182.79a1.14,1.14,0,1,0-1.14,1.15A1.14,1.14,0,0,0,273.28,182.79Z"/><path class="cls-1" d="M211.14,83.19A1.14,1.14,0,1,0,210,84.33,1.14,1.14,0,0,0,211.14,83.19Z"/><path class="cls-1" d="M173.43,109.85a1.14,1.14,0,1,0-1.14,1.14A1.15,1.15,0,0,0,173.43,109.85Z"/><path class="cls-1" d="M185.88,167.18a1.15,1.15,0,1,0-1.15,1.15A1.15,1.15,0,0,0,185.88,167.18Z"/><path class="cls-1" d="M211.14,83.19A1.14,1.14,0,1,0,210,84.33,1.14,1.14,0,0,0,211.14,83.19Z"/><path class="cls-1" d="M126.82,76.91a1.14,1.14,0,1,0-1.14,1.14A1.14,1.14,0,0,0,126.82,76.91Z"/><path class="cls-1" d="M173.43,109.85a1.14,1.14,0,1,0-1.14,1.14A1.15,1.15,0,0,0,173.43,109.85Z"/><path class="cls-1" d="M136.76,10.11a1.14,1.14,0,1,0-1.14,1.14A1.15,1.15,0,0,0,136.76,10.11Z"/><path class="cls-1" d="M126.82,76.91a1.14,1.14,0,1,0-1.14,1.14A1.14,1.14,0,0,0,126.82,76.91Z"/><path class="cls-1" d="M182.66,26.6a1.15,1.15,0,1,0-1.14,1.14A1.14,1.14,0,0,0,182.66,26.6Z"/><path class="cls-1" d="M188.3,8.77a1.14,1.14,0,1,0-1.14,1.14A1.15,1.15,0,0,0,188.3,8.77Z"/><path class="cls-1" d="M136.76,10.11a1.14,1.14,0,1,0-1.14,1.14A1.15,1.15,0,0,0,136.76,10.11Z"/><path class="cls-1" d="M182.66,26.6a1.15,1.15,0,1,0-1.14,1.14A1.14,1.14,0,0,0,182.66,26.6Z"/><path class="cls-1" d="M211.14,83.19A1.14,1.14,0,1,0,210,84.33,1.14,1.14,0,0,0,211.14,83.19Z"/><path class="cls-1" d="M227.31,17.65a1.14,1.14,0,1,0-1.14,1.14A1.14,1.14,0,0,0,227.31,17.65Z"/><path class="cls-1" d="M182.66,26.6a1.15,1.15,0,1,0-1.14,1.14A1.14,1.14,0,0,0,182.66,26.6Z"/><path class="cls-1" d="M254.19,33a1.15,1.15,0,1,0-1.14,1.14A1.14,1.14,0,0,0,254.19,33Z"/><path class="cls-1" d="M227.31,17.65a1.14,1.14,0,1,0-1.14,1.14A1.14,1.14,0,0,0,227.31,17.65Z"/><path class="cls-1" d="M248.74,45.48a1.14,1.14,0,1,0-1.14,1.14A1.14,1.14,0,0,0,248.74,45.48Z"/><path class="cls-1" d="M254.19,33a1.15,1.15,0,1,0-1.14,1.14A1.14,1.14,0,0,0,254.19,33Z"/><path class="cls-1" d="M284.63,58.61a1.14,1.14,0,1,0-1.14,1.14A1.14,1.14,0,0,0,284.63,58.61Z"/><path class="cls-1" d="M248.74,45.48a1.14,1.14,0,1,0-1.14,1.14A1.14,1.14,0,0,0,248.74,45.48Z"/><path class="cls-1" d="M211.14,83.19A1.14,1.14,0,1,0,210,84.33,1.14,1.14,0,0,0,211.14,83.19Z"/><path class="cls-1" d="M256.36,100.89a1.15,1.15,0,1,0-1.15,1.14A1.15,1.15,0,0,0,256.36,100.89Z"/><path class="cls-1" d="M273.28,182.79a1.14,1.14,0,1,0-1.14,1.15A1.14,1.14,0,0,0,273.28,182.79Z"/><path class="cls-1" d="M309.46,197.81a1.15,1.15,0,1,0-1.14,1.14A1.14,1.14,0,0,0,309.46,197.81Z"/><path class="cls-1" d="M310,95.27a1.14,1.14,0,1,0-1.14,1.14A1.14,1.14,0,0,0,310,95.27Z"/><path class="cls-1" d="M248.74,45.48a1.14,1.14,0,1,0-1.14,1.14A1.14,1.14,0,0,0,248.74,45.48Z"/><path class="cls-1" d="M284.63,58.61a1.14,1.14,0,1,0-1.14,1.14A1.14,1.14,0,0,0,284.63,58.61Z"/><path class="cls-1" d="M256.36,100.89a1.15,1.15,0,1,0-1.15,1.14A1.15,1.15,0,0,0,256.36,100.89Z"/><path class="cls-1" d="M310,95.27a1.14,1.14,0,1,0-1.14,1.14A1.14,1.14,0,0,0,310,95.27Z"/><path class="cls-1" d="M256.36,100.89a1.15,1.15,0,1,0-1.15,1.14A1.15,1.15,0,0,0,256.36,100.89Z"/><path class="cls-1" d="M323.16,131.39a1.14,1.14,0,1,0-1.14,1.14A1.15,1.15,0,0,0,323.16,131.39Z"/><path class="cls-1" d="M326.94,159.32a1.14,1.14,0,1,0-1.14,1.14A1.14,1.14,0,0,0,326.94,159.32Z"/><path class="cls-1" d="M273.28,182.79a1.14,1.14,0,1,0-1.14,1.15A1.14,1.14,0,0,0,273.28,182.79Z"/><path class="cls-1" d="M310,95.27a1.14,1.14,0,1,0-1.14,1.14A1.14,1.14,0,0,0,310,95.27Z"/><path class="cls-2" d="M151.25,332.37h0l-40.42-8.88h0l0,0L48,284.64l0,0h0l0,0L20.05,244.94l0,0h0L3.62,199.47h0v0L2.22,146v0h0l9.2-40.4a.14.14,0,0,1,0-.06L27.32,77.67h0v0L53.89,46.11l0,0,38-26.3h0l22.7-8.87a.2.2,0,0,1,.25.08.2.2,0,0,1,0,.25l-9.38,8.6,17.52.09,6.24-13.66a.19.19,0,0,1,.16-.11l28.92-3.92h.08l43.86,10.4,3.15-5.83a.2.2,0,0,1,.25-.09l42,16.7h0l0,0,38.42,29.44,0,0h0l0,0,25.27,35v0h0v0l15.22,38.34a.21.21,0,0,1-.09.25l-6.49,3.49,2.93,14.26,7.4,2.36a.2.2,0,0,1,.14.19l.42,36.25v.05l-6.64,33.73a.19.19,0,0,1-.11.15.22.22,0,0,1-.18,0l-2.74-1.65-9.1,30.29v0h0l0,0L284.46,283.4l0,0h0l-41.26,30.73a.18.18,0,0,1-.21,0,.19.19,0,0,1-.1-.19l.24-7.46-40,22.38a.16.16,0,0,1-.15,0L122.76,305.4,151.38,332a.2.2,0,0,1,.05.24A.21.21,0,0,1,151.25,332.37ZM111,323.13l39.54,8.69L121.9,305.15l-9.58-2.66ZM123,305.05l79.72,23.42-8.26-33Zm71.86-9.61,8.23,32.87,29.16-37.86Zm38-5.07-29.06,37.74,39.39-22,.57-17.18ZM91.12,296.61l19.55,26.12,1.25-20.35ZM49.39,285,110,322.56,90.49,296.44Zm194.1,21.3-.24,7.28L281.72,285Zm.58-17.47-.56,17,39.77-22.24ZM112.51,299.37l9.46,5.35,25.95-26.29-34.19,1.14Zm36-21L122.55,304.7l71.78-9.6L189.81,277Zm-36.16,23.67,8.15,2.26-8-4.53Zm-21.61-6L112,302l.14-2.38L79.57,281.17ZM79.55,280.7l32.57,18.45,1.21-19.57ZM49.1,284.54l41,11.37L78.74,280.74ZM190.22,277l4.51,18L232.55,290l11.37-14.76Zm53.89-1.39-11,14.28,10.57-1.41Zm.42-.37-.44,13.19,39-5.22ZM43.89,259.48l4.37,24.76,30-3.84Zm-23-14,26.56,37.76-8.91-27ZM245,275l39.18,8.09,11.13-29.92Zm50.81-22L285,282l26.47-35.9ZM39.1,256.56l8.31,25.21-4-22.57ZM115.77,240,79.3,280.31l34.05-1.13Zm-39.92,1.9L79,280.05l36.53-40.41Zm-34.49,1.94L78.59,280,75.45,241.9ZM43.79,259l33.63,20.48L41.2,244.21Zm72.4-19.32-2.44,39.54L148.33,278l33.06-33.49Zm65.54,5.12L148.91,278l40.8-1.36Zm.4,0,8,31.9,53.41-1.78Zm.33-.29,61.64,30.25L240,233.11Zm82.26-16.19-20,46.39,50.77-22,12.2-32.82ZM240.41,233l4.05,41.2,19.78-45.9ZM38.9,256l4.44,2.7-2.62-14.82-5.71.33Zm-18-11,17.52,10.67L34.6,244.2Zm287.06-24.66L296,252.39l15.83-6.88Zm-1.62-13.95,1.9,13.13,3.91,25.23L321,215.19Zm-301.92-6,16,44.22,14.12-.81-4.09-12.39Zm111.8,38.84,65.17,4.89L121.8,178l-11.72,7.67ZM235,181.69l-52.61,62.36L240,232.71Zm-68.2-32.82,15.2,95,52.83-62.64ZM31.07,232.24l3.81,11.54,5.6-.32Zm91.06-54.45,59.4,65.93-15.18-94.86ZM72.84,210.15,41.38,243.41l34-1.91Zm-42.1,21.06L40.9,243.34l31.69-33.5-51.43-7.66Zm42.5-21.11,2.58,31.37,39.59-2.22Zm.12-.4L115.75,239l-6-53.08Zm162-28.25,5,51.19,24.06-4.74,16-37ZM4.3,199.68,30,230.38l-9.32-28.26ZM280.76,191,264.91,227.8l42.87-8.43-1.92-13.26Zm40.69,24,2.59,1.54,5.78-29.43Zm-15.22-9.15,14.87,8.93,9.43-31.41-27,4.1ZM21,201.76l51.46,7.66L48.76,183.09,18.53,194.2Zm28.14-18.82,23.68,26.27,2.67-36Zm26.77-9.84L73.25,209l33.33-47.16ZM107,162,73.76,209l35.89-23.48Zm174.28,28.9,24.53,14.74-2.61-18.06ZM4.61,199.32l16,2.37-2.43-7.35Zm7.65-22.84L4.14,199.06,18,194Zm-9.6-29.11,1.32,51,8.07-22.47Zm9.82,28.49,5.92,18,30.07-11L21,152.24Zm284.28-32.64L281,190.5l22.15-3.36ZM235.64,181.1l44.69,9.37L267.27,161.2Zm32-20.12,13,29.22,15.83-47.37ZM297.13,143l6.38,44.05L330.43,183ZM107.38,162,110,185.23l11.49-7.52ZM21.22,151.92l27.65,30.7,26.68-9.81,3.73-50.11Zm275.93-9.5,33.3,40-7.75-37.77-18.61-5.94Zm26,2.35,7.45,36.28-.4-34ZM167,148.56,235,180.91l14.34-59.55Zm82.62-26.88-14.24,59.08,31.69-19.93ZM107.49,161.54l14.37,16L165.49,149ZM2.73,146.32l9.54,28.93L20.63,152Zm76.93-23.39L76,172.66l30.84-11.34Zm.34-.21,27.2,38.47,58.5-12.69Zm170-1.26,17.45,39.15,29-18.22ZM2.66,145.88l18,5.69-9-45ZM24.9,109.09l-3.78,42.43,57.81-29.09Zm-13-3.21,8.93,44.58L24.51,109Zm163.66-6.83-8.78,49.18,82.18-27.16ZM80,122.3l85.86,25.82-47.06-50Zm39.15-24.43,47.24,50.23,8.78-49.17-39-11.69Zm185.45,40.55,18,5.77-2.86-13.93Zm-51.71-16.1L296.59,142l-.72-6ZM298.5,136.9,297.15,142l6.41-3.45Zm-2.21-.71.62,5.12,1.21-4.53Zm2.31.32,5.45,1.74,15.62-8.4-8.4-40.91Zm-2.36-.75,2,.63L311,88.46,291.76,98.74ZM250.11,121l45.71,14.61-4.44-36.68ZM312,90.25,320,129.66l6.22-3.35ZM40.87,83.56,79.43,122,97.52,75.77ZM24.94,108.69,78.85,122,40.43,83.68l-14.24,11Zm73-32.8-18,46L118.5,97.79Zm77.7,22.76,73.24,22-66-62.24Zm7.74-40.29,66,62.23-1-47Zm88.92,20.79-22.18,41.43,41.24-22.06-1.86-15.35Zm-23.44-5.48,1,46.62,22.08-41.24ZM12.07,105.51l12.48,3.08L25.76,95ZM27.21,78.67,12.43,104.6,26,92.14ZM26,92.73l-10.77,9.88,10.62-8.18ZM136.63,87l38.59,11.58,7.17-40.14Zm153.25-3.7,1.83,15,19-10.17ZM98.49,75.93l20.36,21.65,16.81-10.49ZM26.4,92.33l-.16,1.77L40.06,83.46l-2.71-1.17Zm1.27-14.26L26.45,91.74,37,82.11Zm262.16,4.77,21,4.91-24.5-34ZM98.65,75.56,136.11,86.8l45.5-28.38ZM54.09,66.94,40.92,83.15,97.29,75.4,67,55.13ZM37.68,82l2.65,1.16,2-5.41Zm234.79-3.21,16.95,4-3.52-29ZM43,77.16,41,82.36l11-13.57Zm-15.13.54,9.45,4.12,5.34-4.89L53.47,47.24Zm221-4.45,23.24,5.44,13.62-25.44L248.44,55ZM54.14,46.55,43.25,76.34,53.8,66.66,64.51,53.48ZM118.3,31.19,98.18,75.25,182,57.93Zm-51,23.66L97.59,75.12,93,31.26ZM93.37,30.93,98,74.78l20-43.74L101,23.93Zm90.74,27.2,64.31,15L248,55.06ZM64.84,53.71l-9,11.1L66.63,54.9ZM230.71,32.77l-47.16,25L248,54.66l-.32-15.6ZM118.46,30.83l63.82,26.79L166.07,20.55l-42.81-.23Zm79.88-10L183.07,57.56l47.13-25Zm-31.83-.23,16.15,36.93,15.26-36.75Zm81.61,18.66.31,15.43L285,52.88ZM65.1,53.39l1.83,1.23L93,30.77,91.87,20.44ZM54.4,46.24l10.36,6.93L91,20.91Zm193.71-7.46,36.74,13.61L247.8,24Zm-16.93-6.26,16.52,6.12-.3-14.72ZM199.57,20.81l31.11,11.52,16.19-8.58Zm-98.25,2.82,16.77,7,4.73-10.36-17.77-.09Zm-9.07-3.37,1.07,10.17,7.27-6.67Zm.77-.11,7.9,3.31,3.54-3.25Zm105.53.2,46.73,2.9L202.47,13.09Zm4.11-7.62,42.31,10L205.68,7.15Zm-36.33,7.42,31,.17L158.75,2.82Zm-6-17.06,37.83,17.18L202.06,13ZM123.44,19.92l42.45.23L158.23,2.64,129.56,6.52Zm-30.38-.17,11.83.06,8.91-8.16Z"/><circle class="cls-2" cx="92.02" cy="19.94" r="2.42"/><circle class="cls-2" cx="114.73" cy="11.07" r="1.84"/><path class="cls-2" d="M14,105.61a2.42,2.42,0,1,1-2.42-2.42A2.42,2.42,0,0,1,14,105.61Z"/><path class="cls-2" d="M4.84,146a2.42,2.42,0,1,1-2.42-2.42A2.42,2.42,0,0,1,4.84,146Z"/><path class="cls-2" d="M50.51,284.47a2.42,2.42,0,1,1-2.42-2.42A2.42,2.42,0,0,1,50.51,284.47Z"/><path class="cls-2" d="M124.42,305a2.42,2.42,0,1,1-2.42-2.42A2.42,2.42,0,0,1,124.42,305Z"/><circle class="cls-2" cx="78.84" cy="280.53" r="2.42"/><circle class="cls-2" cx="244.34" cy="275.03" r="2.42"/><path class="cls-2" d="M283.09,190.75a2.42,2.42,0,1,1-2.42-2.42A2.42,2.42,0,0,1,283.09,190.75Z"/><path class="cls-2" d="M237.53,181.19a2.42,2.42,0,1,1-2.42-2.42A2.42,2.42,0,0,1,237.53,181.19Z"/><circle class="cls-2" cx="244.34" cy="275.03" r="2.42"/><path class="cls-2" d="M184.25,244.36a2.42,2.42,0,1,1-2.41-2.42A2.41,2.41,0,0,1,184.25,244.36Z"/><path class="cls-2" d="M310.42,219.53a2.42,2.42,0,1,1-2.42-2.42A2.42,2.42,0,0,1,310.42,219.53Z"/><path class="cls-2" d="M299.25,142.36a2.42,2.42,0,1,1-2.41-2.42A2.41,2.41,0,0,1,299.25,142.36Z"/><circle class="cls-2" cx="330.81" cy="183.14" r="2.42"/><path class="cls-2" d="M283.09,190.75a2.42,2.42,0,1,1-2.42-2.42A2.42,2.42,0,0,1,283.09,190.75Z"/><path class="cls-2" d="M326,216.87a1.84,1.84,0,1,1-1.83-1.83A1.83,1.83,0,0,1,326,216.87Z"/><circle class="cls-2" cx="330.81" cy="183.14" r="2.42"/><circle class="cls-2" cx="312.05" cy="245.64" r="2.42"/><path class="cls-2" d="M310.42,219.53a2.42,2.42,0,1,1-2.42-2.42A2.42,2.42,0,0,1,310.42,219.53Z"/><path class="cls-2" d="M286.71,283.28a2.42,2.42,0,1,1-2.42-2.41A2.42,2.42,0,0,1,286.71,283.28Z"/><circle class="cls-2" cx="312.05" cy="245.64" r="2.7"/><circle class="cls-2" cx="244.34" cy="275.03" r="2.42"/><path class="cls-2" d="M286.71,283.28a2.42,2.42,0,1,1-2.42-2.41A2.42,2.42,0,0,1,286.71,283.28Z"/><path class="cls-2" d="M245.93,314a2.9,2.9,0,1,1-2.89-2.9A2.89,2.89,0,0,1,245.93,314Z"/><circle class="cls-2" cx="244.34" cy="275.03" r="3.68"/><path class="cls-2" d="M205.37,328.76a2.42,2.42,0,1,1-2.42-2.42A2.42,2.42,0,0,1,205.37,328.76Z"/><path class="cls-2" d="M286.71,283.28a2.42,2.42,0,1,1-2.42-2.41A2.42,2.42,0,0,1,286.71,283.28Z"/><path class="cls-2" d="M124.42,305a2.42,2.42,0,1,1-2.42-2.42A2.42,2.42,0,0,1,124.42,305Z"/><path class="cls-2" d="M184.25,244.36a2.42,2.42,0,1,1-2.41-2.42A2.41,2.41,0,0,1,184.25,244.36Z"/><path class="cls-2" d="M205.37,328.76a2.42,2.42,0,1,1-2.42-2.42A2.42,2.42,0,0,1,205.37,328.76Z"/><path class="cls-2" d="M126.09,305a4.09,4.09,0,1,1-4.09-4.09A4.09,4.09,0,0,1,126.09,305Z"/><path class="cls-2" d="M153.67,332.17a2.42,2.42,0,1,1-2.42-2.42A2.42,2.42,0,0,1,153.67,332.17Z"/><path class="cls-2" d="M113.25,323.28a2.42,2.42,0,1,1-2.42-2.42A2.42,2.42,0,0,1,113.25,323.28Z"/><path class="cls-2" d="M118.42,239.42A2.42,2.42,0,1,1,116,237,2.42,2.42,0,0,1,118.42,239.42Z"/><path class="cls-2" d="M184.25,244.36a2.42,2.42,0,1,1-2.41-2.42A2.41,2.41,0,0,1,184.25,244.36Z"/><path class="cls-2" d="M237.53,181.19a2.42,2.42,0,1,1-2.42-2.42A2.42,2.42,0,0,1,237.53,181.19Z"/><path class="cls-2" d="M299.25,142.36a2.42,2.42,0,1,1-2.41-2.42A2.41,2.41,0,0,1,299.25,142.36Z"/><path class="cls-2" d="M283.92,190.75a3.26,3.26,0,1,1-3.25-3.26A3.24,3.24,0,0,1,283.92,190.75Z"/><path class="cls-2" d="M252,121.06a2.42,2.42,0,1,1-2.42-2.42A2.42,2.42,0,0,1,252,121.06Z"/><path class="cls-2" d="M239,181.19a3.86,3.86,0,1,1-3.86-3.85A3.86,3.86,0,0,1,239,181.19Z"/><path class="cls-2" d="M168.92,148.53a2.42,2.42,0,1,1-2.42-2.42A2.42,2.42,0,0,1,168.92,148.53Z"/><path class="cls-2" d="M185.64,244.36a3.81,3.81,0,1,1-3.8-3.8A3.8,3.8,0,0,1,185.64,244.36Z"/><circle class="cls-2" cx="107.11" cy="161.42" r="2.42"/><path class="cls-2" d="M118.42,239.42A2.42,2.42,0,1,1,116,237,2.42,2.42,0,0,1,118.42,239.42Z"/><circle class="cls-2" cx="78.84" cy="280.53" r="2.42"/><path class="cls-2" d="M113.8,323.28a3,3,0,1,1-3-3A3,3,0,0,1,113.8,323.28Z"/><path class="cls-2" d="M50.51,284.47a2.42,2.42,0,1,1-2.42-2.42A2.42,2.42,0,0,1,50.51,284.47Z"/><circle class="cls-2" cx="78.84" cy="280.53" r="2.42"/><path class="cls-2" d="M75.42,209.69A2.42,2.42,0,1,1,73,207.27,2.42,2.42,0,0,1,75.42,209.69Z"/><path class="cls-2" d="M118.42,239.42A2.42,2.42,0,1,1,116,237,2.42,2.42,0,0,1,118.42,239.42Z"/><path class="cls-2" d="M43.31,243.64a2.42,2.42,0,1,1-2.42-2.42A2.42,2.42,0,0,1,43.31,243.64Z"/><circle class="cls-2" cx="78.84" cy="280.53" r="2.42"/><path class="cls-2" d="M22.63,244.82a2.42,2.42,0,1,1-2.42-2.42A2.43,2.43,0,0,1,22.63,244.82Z"/><path class="cls-2" d="M50.51,284.47a2.42,2.42,0,1,1-2.42-2.42A2.42,2.42,0,0,1,50.51,284.47Z"/><path class="cls-2" d="M43.31,243.64a2.42,2.42,0,1,1-2.42-2.42A2.42,2.42,0,0,1,43.31,243.64Z"/><path class="cls-2" d="M22.63,244.82a2.42,2.42,0,1,1-2.42-2.42A2.43,2.43,0,0,1,22.63,244.82Z"/><path class="cls-2" d="M6.23,199.4A2.42,2.42,0,1,1,3.81,197,2.42,2.42,0,0,1,6.23,199.4Z"/><path class="cls-2" d="M44.06,243.64a3.17,3.17,0,1,1-3.17-3.17A3.17,3.17,0,0,1,44.06,243.64Z"/><path class="cls-2" d="M75.42,209.69A2.42,2.42,0,1,1,73,207.27,2.42,2.42,0,0,1,75.42,209.69Z"/><path class="cls-2" d="M168.92,148.53a2.42,2.42,0,1,1-2.42-2.42A2.42,2.42,0,0,1,168.92,148.53Z"/><path class="cls-2" d="M252,121.06a2.42,2.42,0,1,1-2.42-2.42A2.42,2.42,0,0,1,252,121.06Z"/><path class="cls-2" d="M331.87,146.88a1.48,1.48,0,1,1-1.48-1.48A1.48,1.48,0,0,1,331.87,146.88Z"/><circle class="cls-2" cx="330.81" cy="183.14" r="2.42"/><path class="cls-2" d="M313.72,88.06a2.42,2.42,0,1,1-2.42-2.42A2.42,2.42,0,0,1,313.72,88.06Z"/><path class="cls-2" d="M252,121.06a2.42,2.42,0,1,1-2.42-2.42A2.42,2.42,0,0,1,252,121.06Z"/><path class="cls-2" d="M299.25,142.36a2.42,2.42,0,1,1-2.41-2.42A2.41,2.41,0,0,1,299.25,142.36Z"/><path class="cls-2" d="M328.93,126.4a2.42,2.42,0,1,1-2.42-2.42A2.42,2.42,0,0,1,328.93,126.4Z"/><path class="cls-2" d="M313.72,88.06a2.42,2.42,0,1,1-2.42-2.42A2.42,2.42,0,0,1,313.72,88.06Z"/><path class="cls-2" d="M299.25,142.36a2.42,2.42,0,1,1-2.41-2.42A2.41,2.41,0,0,1,299.25,142.36Z"/><path class="cls-2" d="M185.09,58a2.42,2.42,0,1,1-2.42-2.42A2.42,2.42,0,0,1,185.09,58Z"/><path class="cls-2" d="M313.72,88.06a2.42,2.42,0,1,1-2.42-2.42A2.42,2.42,0,0,1,313.72,88.06Z"/><path class="cls-2" d="M252,121.06a2.42,2.42,0,1,1-2.42-2.42A2.42,2.42,0,0,1,252,121.06Z"/><path class="cls-2" d="M250,23.59a2.42,2.42,0,1,1-2.42-2.42A2.42,2.42,0,0,1,250,23.59Z"/><path class="cls-2" d="M287.94,53A1.92,1.92,0,1,1,286,51.12,1.92,1.92,0,0,1,287.94,53Z"/><circle class="cls-2" cx="198.22" cy="20.53" r="2.42"/><path class="cls-2" d="M208,6.89a2.42,2.42,0,1,1-2.42-2.41A2.42,2.42,0,0,1,208,6.89Z"/><circle class="cls-2" cx="230.74" cy="32.56" r="1.46"/><path class="cls-2" d="M249.37,39a1.41,1.41,0,1,1-1.41-1.4A1.41,1.41,0,0,1,249.37,39Z"/><circle class="cls-2" cx="248.41" cy="73.35" r="1.4"/><circle class="cls-2" cx="248.28" cy="54.71" r="1.4"/><circle class="cls-2" cx="272.01" cy="78.95" r="1.4"/><circle class="cls-2" cx="289.56" cy="82.88" r="1.4"/><path class="cls-2" d="M293.08,98.62a1.41,1.41,0,1,1-1.41-1.41A1.41,1.41,0,0,1,293.08,98.62Z"/><circle class="cls-2" cx="296" cy="135.69" r="1.4"/><path class="cls-2" d="M305.57,138.53a1.41,1.41,0,1,1-1.4-1.41A1.4,1.4,0,0,1,305.57,138.53Z"/><circle class="cls-2" cx="267.5" cy="160.69" r="1.4"/><circle class="cls-2" cx="303.34" cy="187.36" r="1.4"/><path class="cls-2" d="M307.41,206a1.41,1.41,0,1,1-1.41-1.41A1.41,1.41,0,0,1,307.41,206Z"/><circle class="cls-2" cx="264.84" cy="227.86" r="1.4"/><circle class="cls-2" cx="240.34" cy="233.19" r="1.4"/><circle class="cls-2" cx="194.67" cy="295.53" r="1.4"/><circle class="cls-2" cx="189.84" cy="276.86" r="1.4"/><circle class="cls-2" cx="148.34" cy="278.36" r="1.4"/><path class="cls-2" d="M113.41,302.36A1.41,1.41,0,1,1,112,301,1.41,1.41,0,0,1,113.41,302.36Z"/><circle class="cls-2" cx="90.67" cy="296.36" r="1.4"/><circle class="cls-2" cx="113.67" cy="279.53" r="1.4"/><circle class="cls-2" cx="44.17" cy="258.86" r="1.4"/><circle class="cls-2" cx="38.67" cy="256.19" r="1.4"/><circle class="cls-2" cx="34.67" cy="244.03" r="1.4"/><path class="cls-2" d="M31.91,231.69a1.41,1.41,0,1,1-1.41-1.4A1.41,1.41,0,0,1,31.91,231.69Z"/><circle class="cls-2" cx="20.84" cy="202.03" r="1.4"/><circle class="cls-2" cx="18.34" cy="193.86" r="1.4"/><path class="cls-2" d="M76.91,241.69a1.41,1.41,0,1,1-1.41-1.4A1.41,1.41,0,0,1,76.91,241.69Z"/><circle class="cls-2" cx="48.84" cy="182.86" r="1.4"/><path class="cls-2" d="M13.91,175.53a1.41,1.41,0,1,1-1.41-1.41A1.41,1.41,0,0,1,13.91,175.53Z"/><circle class="cls-2" cx="24.98" cy="109.07" r="1.4"/><circle class="cls-2" cx="54.34" cy="66.53" r="1.4"/><path class="cls-2" d="M27.57,92.19a1.41,1.41,0,1,1-1.4-1.4A1.41,1.41,0,0,1,27.57,92.19Z"/><circle class="cls-2" cx="66.84" cy="55.03" r="1.4"/><path class="cls-2" d="M44.24,77.19a1.41,1.41,0,1,1-1.4-1.4A1.41,1.41,0,0,1,44.24,77.19Z"/><path class="cls-2" d="M119.57,30.93a1.41,1.41,0,1,1-1.4-1.4A1.41,1.41,0,0,1,119.57,30.93Z"/><path class="cls-2" d="M124.57,20a1.41,1.41,0,1,1-1.4-1.41A1.4,1.4,0,0,1,124.57,20Z"/><circle class="cls-2" cx="101" cy="24.03" r="1.4"/><circle class="cls-2" cx="93.34" cy="31.03" r="1.4"/><circle class="cls-2" cx="105.34" cy="19.86" r="1.4"/><path class="cls-2" d="M167.57,20.19a1.41,1.41,0,1,1-1.4-1.4A1.41,1.41,0,0,1,167.57,20.19Z"/><path class="cls-2" d="M137.41,87.19a1.41,1.41,0,1,1-1.41-1.4A1.41,1.41,0,0,1,137.41,87.19Z"/><circle class="cls-2" cx="118.84" cy="97.86" r="1.4"/><path class="cls-2" d="M176.74,98.69a1.41,1.41,0,1,1-1.4-1.4A1.41,1.41,0,0,1,176.74,98.69Z"/><circle class="cls-2" cx="202.34" cy="12.86" r="1.4"/><path class="cls-2" d="M250,23.59a2.42,2.42,0,1,1-2.42-2.42A2.42,2.42,0,0,1,250,23.59Z"/><path class="cls-2" d="M160.77,2.42A2.42,2.42,0,1,1,158.35,0,2.42,2.42,0,0,1,160.77,2.42Z"/><circle class="cls-2" cx="198.22" cy="20.53" r="2.42"/><path class="cls-2" d="M251.26,23.59a3.67,3.67,0,1,1-3.67-3.67A3.67,3.67,0,0,1,251.26,23.59Z"/><path class="cls-2" d="M185.09,58a2.42,2.42,0,1,1-2.42-2.42A2.42,2.42,0,0,1,185.09,58Z"/><circle class="cls-2" cx="249.6" cy="121.06" r="8.45" transform="translate(-15.57 202.55) rotate(-42.96)"/><circle class="cls-2" cx="97.84" cy="75.53" r="2.42"/><path class="cls-2" d="M168.92,148.53a2.42,2.42,0,1,1-2.42-2.42A2.42,2.42,0,0,1,168.92,148.53Z"/><path class="cls-2" d="M185.09,58a2.42,2.42,0,1,1-2.42-2.42A2.42,2.42,0,0,1,185.09,58Z"/><path class="cls-2" d="M81.92,122.36a2.42,2.42,0,1,1-2.42-2.42A2.42,2.42,0,0,1,81.92,122.36Z"/><circle class="cls-2" cx="107.11" cy="161.42" r="2.42"/><path class="cls-2" d="M173,148.53a6.5,6.5,0,1,1-6.5-6.5A6.5,6.5,0,0,1,173,148.53Z"/><path class="cls-2" d="M81.92,122.36a2.42,2.42,0,1,1-2.42-2.42A2.42,2.42,0,0,1,81.92,122.36Z"/><path class="cls-2" d="M75.42,209.69A2.42,2.42,0,1,1,73,207.27,2.42,2.42,0,0,1,75.42,209.69Z"/><circle class="cls-2" cx="107.11" cy="161.42" r="3.31"/><path class="cls-2" d="M6.23,199.4A2.42,2.42,0,1,1,3.81,197,2.42,2.42,0,0,1,6.23,199.4Z"/><circle class="cls-2" cx="73" cy="209.69" r="7.34" transform="translate(-147.87 232.4) rotate(-76.67)"/><path class="cls-2" d="M23.31,151.86a2.42,2.42,0,1,1-2.42-2.42A2.42,2.42,0,0,1,23.31,151.86Z"/><path class="cls-2" d="M4.84,146a2.42,2.42,0,1,1-2.42-2.42A2.42,2.42,0,0,1,4.84,146Z"/><path class="cls-2" d="M6.23,199.4A2.42,2.42,0,1,1,3.81,197,2.42,2.42,0,0,1,6.23,199.4Z"/><path class="cls-2" d="M23.31,151.86a2.42,2.42,0,1,1-2.42-2.42A2.42,2.42,0,0,1,23.31,151.86Z"/><path class="cls-2" d="M81.92,122.36a2.42,2.42,0,1,1-2.42-2.42A2.42,2.42,0,0,1,81.92,122.36Z"/><path class="cls-2" d="M14,105.61a2.42,2.42,0,1,1-2.42-2.42A2.42,2.42,0,0,1,14,105.61Z"/><path class="cls-2" d="M23.31,151.86a2.42,2.42,0,1,1-2.42-2.42A2.42,2.42,0,0,1,23.31,151.86Z"/><path class="cls-2" d="M14,105.61a2.42,2.42,0,1,1-2.42-2.42A2.42,2.42,0,0,1,14,105.61Z"/><circle class="cls-2" cx="40.45" cy="83.42" r="2.42"/><circle class="cls-2" cx="27.49" cy="77.77" r="1.92"/><path class="cls-2" d="M85,122.36a5.49,5.49,0,1,1-5.49-5.49A5.49,5.49,0,0,1,85,122.36Z"/><circle class="cls-2" cx="97.84" cy="75.53" r="2.42"/><path class="cls-2" d="M185.09,58a2.42,2.42,0,1,1-2.42-2.42A2.42,2.42,0,0,1,185.09,58Z"/><circle class="cls-2" cx="198.22" cy="20.53" r="3.31"/><circle class="cls-2" cx="92.02" cy="19.94" r="2.42"/><circle class="cls-2" cx="97.84" cy="75.53" r="2.42"/><circle class="cls-2" cx="54.04" cy="46.24" r="1.66"/><circle class="cls-2" cx="92.02" cy="19.94" r="2.42"/><circle class="cls-2" cx="97.84" cy="75.53" r="2.42"/><path class="cls-2" d="M131.84,6.33a2.42,2.42,0,1,1-2.42-2.42A2.42,2.42,0,0,1,131.84,6.33Z"/><path class="cls-2" d="M187.07,58a4.4,4.4,0,1,1-4.4-4.4A4.4,4.4,0,0,1,187.07,58Z"/><path class="cls-2" d="M160.77,2.42A2.42,2.42,0,1,1,158.35,0,2.42,2.42,0,0,1,160.77,2.42Z"/><circle class="cls-2" cx="92.02" cy="19.94" r="3.47"/></g></g></svg>