<svg xmlns="http://www.w3.org/2000/svg" viewBox="0 0 123.51 138.37"><defs><style>.cls-1{fill:#5a5a68;}</style></defs><g id="Capa_2" data-name="Capa 2"><g id="_1" data-name="1"><g id="_1-2" data-name="1"><path class="cls-1" d="M84.5,38.9l-.42.9a.8.8,0,0,0,.29-.44C84.42,39.21,84.46,39.05,84.5,38.9Z"/><path class="cls-1" d="M118.15,16.2a8.72,8.72,0,0,0-3-.07c-.68-.23-1.35-.45-2-.69,1.13-1,1.77-2.65,2.48-3.88l1.77-3A10,10,0,0,0,118.72,6,1.88,1.88,0,0,0,116,3.81,6.18,6.18,0,0,0,114,5.25a25.83,25.83,0,0,0-2.86,4c-.84,1.25-1.75,3.72-3.71,3.45-.7-.09-1.41-.45-2.14-.55a11.7,11.7,0,0,0-2.51-.06,10.31,10.31,0,0,1-2.13.33,3.75,3.75,0,0,0-2.64.15c-2.06,1.1-2.59,4.57-3.77,6.4A20.51,20.51,0,0,0,92,22.31a21,21,0,0,0-4.2,2.14A10.44,10.44,0,0,0,88.92,22c.06-.19.11-.39.15-.58l.09-.13a.18.18,0,0,0,0-.21c.48-3.2-1.83-6.37-3.52-9l-.36-.5A63,63,0,0,0,89.86,3.9c.73-1.71-.7-2.51-1.9-3.65a.82.82,0,0,0-1.14,0,81.39,81.39,0,0,0-5.49,6.11,8.81,8.81,0,0,1-1.87,1.79c-1.22.93-1.74.71-3.18.72a17.39,17.39,0,0,0-3.93.48,10.51,10.51,0,0,0-6.47,4.14,8.26,8.26,0,0,0-1.37,3.48c-4.09,1.39-9,4.21-11.1,8.17a4.74,4.74,0,0,0-.54,3,7.52,7.52,0,0,0-1.57,1.12,46.48,46.48,0,0,0-6.84,7.85.3.3,0,0,0,0,.41,7.63,7.63,0,0,0-4,4.62.11.11,0,0,0,0,.11,5.55,5.55,0,0,0-.56.24,13.81,13.81,0,0,0-3.06,2.25A12.37,12.37,0,0,1,35.66,46c-.44.3-.86.24-1.27.74a13.85,13.85,0,0,0-2.66,11.33s0,0,0,.06l-.07.08a.22.22,0,0,0,.17.38,4.53,4.53,0,0,1-.6,3.81c-.29.42-1.16,1.09-1,1.66-4.77,1.47-12.31,6.78-12.69,12.46-2.7.51-5,2.87-6.84,4.85-3.15,3.37-5.92,7.53-7,12.07a.76.76,0,0,0,0,.15.44.44,0,0,0,0,.28c-.36,1-.72,1.91-1.07,2.87-.22.61-.46,1.22-.69,1.84-2.13,5.31-3,11.34.14,16.22a13.58,13.58,0,0,0,3.9,3.91,27.15,27.15,0,0,0-3.53,10.24.84.84,0,0,0,1.4.62,62.65,62.65,0,0,0,7.4-8.2A74.31,74.31,0,0,1,19.88,125c1.84,1,3.34,1.81,4.54-.13a.2.2,0,0,0,.22,0,40.65,40.65,0,0,0,4.35-3,29.39,29.39,0,0,0,4.37-3.73c.13-.13,0-.38-.2-.27a46.37,46.37,0,0,0-4.25,3.12l-.39.3c.47-.41.94-.82,1.4-1.24a23.44,23.44,0,0,0,3.57-3.61c0,2.42,1.29,4.24,4.63,4.83.94.17,1.83.33,2.71.52-.76,1.39-1.52,2.78-2.29,4.14-2.08,3.69-3.88,7.39-4.31,11.65a.84.84,0,0,0,1.4.63A60.88,60.88,0,0,0,47.1,123.78c.18.08.35.15.52.24,2.42,1.23,4.67,2.4,7.44,2.5s7.67-1.29,8.07-4.37c4.32-4.37,14.36-2.63,14.87-10.58a13,13,0,0,0-.58-4.16c.17.65,5.49-2.56,5.94-2.84a12.06,12.06,0,0,0,2.86-2.93,40.57,40.57,0,0,0,3.65-4.81A34.5,34.5,0,0,0,94.39,84.6c.25-.2.5-.41.73-.62,7.2-3.42,9.89-10.71,10.51-18.29,2.82-1.46,4.51-4.16,5.49-7.32,2.81-3,3.85-7.6,3.83-11.77,4.47-2.17,7.24-8.39,8-13,.28-1.73.8-4.6-.3-6.26C125.35,25.51,121.09,16.91,118.15,16.2Zm-2-10.93a5.47,5.47,0,0,1,1.55,0,77.46,77.46,0,0,1-6,9.64,3.39,3.39,0,0,1-.39-.18A4.35,4.35,0,0,0,113,12.66c0-.13-.15-.26-.25-.15a20.39,20.39,0,0,1-1.81,2l-1.32-.74a29.23,29.23,0,0,0,3.69-4.68A24.67,24.67,0,0,0,115,6.52C115.36,5.73,115.69,5.4,116.15,5.27Zm-6.6,10.15c.54.31,1.1.63,1.67.92a13.61,13.61,0,0,1-6.45-1.92c-.54-.31-1.11-.65-1.71-1A13.9,13.9,0,0,1,109.55,15.42ZM96.62,22.86a39.34,39.34,0,0,1,6.73-.76c-.48.39-.93.81-1.42,1.18a26.51,26.51,0,0,1-2.45,1.61,27.19,27.19,0,0,0-5.93-1.28A28.06,28.06,0,0,1,96.62,22.86ZM115.11,27c-.93.58-1.9,1-2.85,1.54-.48,0-1-.12-1.45-.21a3.1,3.1,0,0,0,.67-.22,2.12,2.12,0,0,0,1.27-1.23.2.2,0,0,0-.29-.23c-.52.29-.92.74-1.47,1-.07,0-.94.28-.8.49a.28.28,0,0,0,.09.1c-.49-.1-1-.21-1.47-.34q.81-.43,1.59-.9a9.52,9.52,0,0,0,2.3-1.56.16.16,0,0,0-.15-.26,9.86,9.86,0,0,0-2.5,1.18c-.73.42-1.46.83-2.16,1.29-.54-.15-1.07-.31-1.6-.48a8.84,8.84,0,0,0,3.79-2.05.21.21,0,0,0-.19-.35,13.07,13.07,0,0,0-2.15,1c-.79.38-1.59.71-2.38,1.07l0,0-1.07-.36a8.48,8.48,0,0,0,3.51-2.34c.1-.13-.06-.35-.21-.29a12.57,12.57,0,0,0-2.16,1.24c-.66.38-1.34.73-2,1.08-1.08-.37-2.15-.75-3.22-1.1a12,12,0,0,0,4-3,13.3,13.3,0,0,1,7.47,2.08,22.49,22.49,0,0,0,5.7,2.94l.2.07a4.13,4.13,0,0,0,.09.93s0,0,0,0v0a12.57,12.57,0,0,1-4,.51,7.41,7.41,0,0,0,1.7-1.37C115.42,27.18,115.28,26.94,115.11,27ZM83.69,23.51c-.14-.45-.28-.87-.44-1.28a11.39,11.39,0,0,0,4.11-1.65,5.31,5.31,0,0,1-.45,1.77A8.73,8.73,0,0,1,83.69,23.51Zm2.57,0A23.9,23.9,0,0,1,84.34,26q-.21-1-.48-2A8.88,8.88,0,0,0,86.26,23.55ZM81.53,39.11c-.08-.12-.31-.09-.3.08a8.13,8.13,0,0,1-.34,2.54c0-.77,0-1.55,0-2.32a.3.3,0,0,0,0-.1,6.14,6.14,0,0,0,.72-.88,7.28,7.28,0,0,0,1.12-3,.54.54,0,0,0,.58-.09c0,.58-.13,1.15-.22,1.73a13.76,13.76,0,0,0-1.23,2.65A5,5,0,0,0,81.53,39.11Zm0,1.77a8.88,8.88,0,0,0-.19,1.33c-.12.08-.22.18-.33.27.11-.81.24-1.62.38-2.42C81.44,40.33,81.49,40.6,81.53,40.88Zm.83-11.45a.23.23,0,0,0,.11,0l.33-.17c0,.93,0,1.87,0,2.82A25.86,25.86,0,0,0,82.36,29.43ZM81.64,8.72a.29.29,0,0,1,0-.09c.25-1.05,1.59-1.72,2.26-2.47.94-1,1.6-2.44,2.78-3.27.45-.32,1.54-.73,1.79.14.19.68-1.31,2.35-1.66,3-.89,1.54-1.79,3.07-2.66,4.62C83.4,10,81.48,9.81,81.64,8.72Zm-4.83,1.65c3.52.25,6.24.62,8.14,4,1,1.84,2.11,3.45,2.36,5.16a15.61,15.61,0,0,1-1.49.95A16.48,16.48,0,0,1,83,21.56c-.12-.27-.25-.54-.39-.8a4.71,4.71,0,0,0,3.11-1.55c.14-.18-.11-.38-.28-.3a13.66,13.66,0,0,1-3.2,1.21,9.44,9.44,0,0,0-1.17-1.47,5.31,5.31,0,0,0,3.75-1.52.15.15,0,0,0-.18-.24,14.93,14.93,0,0,1-3.94,1.18,9.11,9.11,0,0,0-3.2-4.2A22.45,22.45,0,0,0,74,12.58,11.29,11.29,0,0,1,71.46,11,13.67,13.67,0,0,1,76.81,10.37Zm-9.68,3.87a9,9,0,0,1,2.17-2.41.39.39,0,0,0,.21,0l.66-.29a8.41,8.41,0,0,0,4,2.73c1.41.5,2.65.8,3.66,2,.11.13.2.28.3.41a11.8,11.8,0,0,0-3.06-.86,22.69,22.69,0,0,0-8.82.62A7.38,7.38,0,0,1,67.13,14.24ZM56.73,24.4a10.79,10.79,0,0,1,3.64-3.29,23.39,23.39,0,0,1,12.15-3.74c4.54,0,8,1.8,9.4,6.34a20.81,20.81,0,0,1,.79,4.17l-.52.65c-.24-1.19-.49-2.33-.65-3.36a.84.84,0,0,0-.73-.62.17.17,0,0,0-.23-.15l-.74.21c.09-.12,0-.34-.17-.28-.75.25-1.48.52-2.22.77l-.39,0a.28.28,0,0,0-.26.18c-1,.34-2,.65-3,.9s-1.8.37-2.7.5c-2.4,0-4.78-.31-6.78-.5C61.7,26,58.53,25,55.84,25.6Zm21.89,1.2a12.16,12.16,0,0,1-2.12.66c.47-.18.93-.38,1.37-.58C78.12,25.66,78.37,25.64,78.62,25.6ZM54.75,27c2.25-.44,4.39.06,6.72.49a48.24,48.24,0,0,0,7.59.69c3.75.1,7.75.39,11.07-1.46.36,2.1.76,4.22.91,6.34.24,3.19-.9,5-3.37,6.66l-.55.36a19.33,19.33,0,0,0,.47-6.6c-.2-1.69-.86-2.08-2.53-2.5a43.85,43.85,0,0,0-8.71-.88A30.5,30.5,0,0,1,56.65,28a5,5,0,0,0-2.44-.32C54.38,27.5,54.57,27.26,54.75,27ZM80.17,40c0,1.12-.09,2.24-.11,3.36,0-1-.11-2.08-.17-3.07a.14.14,0,0,0,0-.06Zm-2.55,2.37a.38.38,0,0,0-.42-.26q.58-.46,1.26-.9l.65-.44c0,1.26,0,2.52-.07,3.77l-.14.19c-.05-.79-.11-1.58-.13-2.38a.08.08,0,0,0-.15,0c-.06.78-.15,1.56-.24,2.34C78.13,43.89,77.88,43.11,77.62,42.34Zm.29,3.84h0Zm-.25-.94a7.13,7.13,0,0,1-.19,1.31c-.11-1-.21-2.06-.31-3.09a.47.47,0,0,0-.66-.37c0-.08,0-.15,0-.23a.66.66,0,0,0,0-.15l.42-.36a.37.37,0,0,0,0,.18C77.17,43.43,77.42,44.33,77.66,45.24ZM51,31.87c1.06-1.1,1.94-2.33,3.54-2.47,1.29-.11,2.16.6,3.31,1.06,4,1.6,8.36,1.31,12.55,1.51a16,16,0,0,1,4.27.48C76.1,33,76,33,76.09,34.56a16.35,16.35,0,0,1-1.14,7,4.6,4.6,0,0,0-1.55,2.11c-.19.11-.37.23-.54.35a3.33,3.33,0,0,0-.87.76.28.28,0,0,0,.31.42,3.3,3.3,0,0,0,1-.61h0v0a20.07,20.07,0,0,1-2.07,2.44A14.77,14.77,0,0,0,71.56,45a22.64,22.64,0,0,0,2.27-3,.16.16,0,0,0-.25-.2,18,18,0,0,0-2,2.11,9.12,9.12,0,0,0-.09-1.19,15.58,15.58,0,0,0,3.14-5c0-.1-.11-.15-.16-.07-1,1.48-2.07,2.84-3.14,4.25a6.14,6.14,0,0,0-.22-.73A13.09,13.09,0,0,0,75.06,36c.06-.18-.19-.35-.32-.2a55.49,55.49,0,0,1-3.95,4.66,5.51,5.51,0,0,0-1.44-1.73A4.9,4.9,0,0,0,71.59,36a.2.2,0,0,0-.35-.16,17.56,17.56,0,0,1-1.19,1.54,11.77,11.77,0,0,1-1.21,1,7.18,7.18,0,0,0-1.24-.62,8.33,8.33,0,0,0,2.18-2.41.14.14,0,0,0-.21-.18c-.93.76-1.79,1.6-2.69,2.38l-.59-.11a5.76,5.76,0,0,0,1.41-1.55c.09-.14-.08-.35-.23-.24-.76.55-1.49,1.13-2.24,1.68-.65,0-1.31,0-2,0a26.39,26.39,0,0,0,2.08-1.75c.07-.06,0-.18-.1-.13a23.84,23.84,0,0,0-3.11,1.95c-.59,0-1.18.07-1.74.06l-.92,0a11.89,11.89,0,0,0,3-2.2c.11-.12,0-.4-.19-.33a15.05,15.05,0,0,0-3.81,2.51q-1.32,0-2.64-.12l.59-.43a5.76,5.76,0,0,0,1.34-1.17.19.19,0,0,0-.21-.28,6,6,0,0,0-1.52.93c-.38.29-.76.58-1.13.88-.53,0-1.06-.08-1.59-.13a10.15,10.15,0,0,0,1.6-1.31.12.12,0,0,0-.14-.2A12.24,12.24,0,0,0,52.43,37l-1-.11a.18.18,0,0,0-.22-.18l-.34.11-.61-.07a10.92,10.92,0,0,0-4.76.35A59.58,59.58,0,0,0,51,31.87Zm24.4,12.62c0,.56,0,1.11-.07,1.67,0,.4-.06.81-.07,1.21-.81.15-1.6.32-2.38.51A19.75,19.75,0,0,0,75.35,44.49ZM70.8,50.15a4.7,4.7,0,0,0-.38.53l0-.41ZM44.69,39.07c1.81-1.08,3.6-.81,5.57-.54A49.83,49.83,0,0,0,62.7,39c2.91-.31,6.07-.45,7,3a10.88,10.88,0,0,1-.77,6.48c-.17.44-.36.86-.56,1.26l-.87.75a1.87,1.87,0,0,1-.59.09.27.27,0,0,0-.1.52l-.34.29q-.14-.7-.3-1.41l.06-.06c.11-.14.2-.29.3-.44s.36-.57.52-.86c0-.08-.07-.19-.15-.11-.23.23-.46.48-.67.73l-.18.22-.33-1.31a12.31,12.31,0,0,0,2.91-3.64c.07-.13-.1-.29-.21-.17-1,1-1.92,2-2.89,3v0a.31.31,0,0,0-.61.15l.09.43-.27.27,0-.05c-.07-.24-.13-.48-.2-.71a24.14,24.14,0,0,0,3-3.74c.11-.18-.12-.35-.28-.23a23.22,23.22,0,0,0-3,3.06c-.07-.33-.14-.66-.2-1a.24.24,0,0,0-.09-.16l0,0a13,13,0,0,0,2.38-3.44.06.06,0,0,0-.1-.07c-.75.93-1.48,1.85-2.29,2.71-.33.35-.68.69-1,1l-.32.29c-.11-.29-.23-.58-.34-.86a24.73,24.73,0,0,0,2-2.29c.11-.13-.1-.26-.22-.17a25.27,25.27,0,0,0-2,1.74c0-.11-.09-.23-.13-.35a4.9,4.9,0,0,0,1-1.58c.07-.19-.18-.32-.33-.2a12,12,0,0,0-1,1.1c-.19,0-.42.07-.34.3l0,0-.24.24-.16.15c-.12-.26-.23-.52-.35-.79a4.56,4.56,0,0,0,.65-.83.19.19,0,0,0-.25-.27,9.93,9.93,0,0,0-1.34,1l-.82.67c-.13-.3-.25-.59-.38-.87.41-.4.83-.78,1.26-1.16.13-.12,0-.29-.17-.23a5.65,5.65,0,0,0-1.36.8c0-.09-.08-.17-.11-.26-.12-.25-.53-.08-.46.18s.08.31.11.46a7.7,7.7,0,0,0-1.11,1.31L56,43.82l-2-.35a8,8,0,0,0,4.16-3.4c.07-.13-.06-.34-.22-.24-.67.46-1.23,1.07-1.85,1.59a23.6,23.6,0,0,1-2.31,1.65.21.21,0,0,0,0,.35C51,43,48.23,42.49,45.5,42.06a10,10,0,0,0-4.5,0C42.3,41.18,43.31,39.89,44.69,39.07Zm22.6,16.19a2.21,2.21,0,0,1,1.09,2,.09.09,0,0,0,.06.08c0,.27-.11.54-.17.81-.07-.18-.15-.35-.21-.51-.12-.32-.23-.64-.35-1v-.37a0,0,0,1,0-.08,0,.62.62,0,0,1,0,.13c-.06-.18-.12-.35-.19-.53a.39.39,0,0,0-.35-.26.34.34,0,0,0-.17-.2c0-.07,0-.15,0-.22a18.64,18.64,0,0,0,2-2.68,21.53,21.53,0,0,1-.27,3.69,2.78,2.78,0,0,0-1.07-1.39C67.28,54.61,67,55.11,67.29,55.26ZM68,59.11c-.08.26-.16.53-.25.79,0-.37,0-.74,0-1.11A.81.81,0,0,0,68,59.11Zm-.47-.72c0,.21,0,.43,0,.64q-.1-.66-.18-1.32l.06.16C67.43,58,67.47,58.21,67.53,58.39Zm-1,4a6.09,6.09,0,0,1-.1.87l-.1.11c-.21-.91-.4-1.81-.52-2.74a11.23,11.23,0,0,0,.45-1.17A9.89,9.89,0,0,0,66.55,62.35ZM61.11,93.73a9.54,9.54,0,0,0-1.14.49l-2.27.84h-.1a.11.11,0,0,0-.15,0l-1.67,0c-.94,0-1.87,0-2.78-.13a9.31,9.31,0,0,0,3.64-2.48.06.06,0,0,0-.07-.1c-1.59.86-3.13,1.72-4.76,2.47A19.59,19.59,0,0,1,45.57,93a8,8,0,0,0-2.8-.94c.09-.27.19-.55.3-.81a20.16,20.16,0,0,0,6.71-4.86c.79-.21,1.57-.4,2.3-.62,5.08-1.56,10.58-4.33,15.75-1.93,1.89.88,5.94,1.87,4.66,4.77-.9,2.06-3.56,3.44-5.49,4.23a13,13,0,0,0-3.37,1.73l0-.44s-.05-.11-.11-.09c-.93.35-1.78.81-2.68,1.18h-.35l-1,0a12.63,12.63,0,0,0,1.66-1.31A.07.07,0,0,0,61.11,93.73ZM39.74,90.21s0-.06,0-.09a.12.12,0,0,0-.08-.11l-.08,0a.08.08,0,0,0-.08,0,.67.67,0,0,0-.06-.39c0-.16-.09-.31-.13-.47l.37-.31a1.57,1.57,0,0,0,.31.65.16.16,0,0,0,.27-.06,1.87,1.87,0,0,0-.09-1c.23-.21.46-.42.67-.63l.38.51c.13.19.44,0,.32-.18l-.37-.68a9,9,0,0,0,1-1.18A.1.1,0,0,0,42,86.1a11.38,11.38,0,0,0-2,1.53l-.26-1,.79-.72a10.91,10.91,0,0,0,2.69-2.82c0-.07,0-.2-.12-.16a10.33,10.33,0,0,0-2.88,2.32l-.71.66a.24.24,0,0,0-.38.24s0,.06,0,.09l-.51.47L38.41,86a.24.24,0,0,0-.46.12c.09.33.17.66.26,1l-.9.86c-.16-.39-.34-.77-.49-1.15l-.15-.39A14.09,14.09,0,0,0,41.28,82c0-.07,0-.18-.11-.13-1.43,1-2.7,2.21-4,3.32,0-.1.07-.2.1-.29a.3.3,0,0,0-.58-.18l-.31.87c-.11-.27-.21-.53-.32-.79a21.34,21.34,0,0,0,4.38-3.74c.06-.08,0-.16-.11-.12a20.09,20.09,0,0,0-4.53,3.26c-.13-.31-.27-.62-.41-.92a11.69,11.69,0,0,0,2.36-2,.08.08,0,0,0-.09-.12,11.64,11.64,0,0,0-3.38,2.26.21.21,0,0,0,.25.34c.17-.08.34-.19.51-.29.11.36.22.71.34,1.06l0,0c-.24.2,0,.5.22.52l.4,1.11a10.81,10.81,0,0,0-3.33-3,10.3,10.3,0,0,0,4.3-2.73c.08-.09,0-.21-.13-.17a19.74,19.74,0,0,0-2.58,1.44c-.67.41-1.37.78-2,1.22-.11,0-.21-.12-.33-.18-.42-.2-.85-.39-1.27-.57.49-.2,1-.42,1.47-.66A6.09,6.09,0,0,0,34,80.41c.08-.08,0-.26-.09-.24a5.41,5.41,0,0,0-1.86.68,22.74,22.74,0,0,0-2.08,1.08l-1.39-.56a19.17,19.17,0,0,0,3.86-2c.05,0,0-.13,0-.11A20.66,20.66,0,0,0,28,81.14a15,15,0,0,1-2.9-1.54c-1.55-1.08-3-2.4-4.83-3l-.34-.08c1.77-1.88,4.58-1.41,6.92-1.25,2.75.18,5.51.3,8.26.44,4.31.23,8.66.7,12.86-.43.73,4.94-1.9,8.66-5.36,12.11C41.67,88.34,40.68,89.25,39.74,90.21Zm1.39,1.73-.15.5a3.15,3.15,0,0,0-.88.65.43.43,0,0,0-.36.21L39.68,93l.72-.81Zm-3.28-2a4.73,4.73,0,0,0-.29-1.33l.84-.76c0,.14.07.27.11.4s.11.46.16.7l-.41.43c-.26.2.09.57.35.37l.22-.18a3.49,3.49,0,0,0,.2.57.59.59,0,0,0,.47.34l-.29.3c-.08-.28-.16-.56-.26-.84s-.39-.19-.37,0c0,.44.07.88.13,1.31l-.24.17a.29.29,0,0,0-.12.3l-.1.11c0-.37.1-.74.16-1.1A.79.79,0,0,0,37.85,89.91Zm1-2.47L39.3,87c.07.34.15.69.23,1h0l-.41.4a3.57,3.57,0,0,0-.1-.35C39,87.88,38.89,87.66,38.83,87.44Zm.2,6.24c.15,1,.29,1.91.38,2.88.06.62.07,1.28.08,2-.22-.65-.46-1.29-.63-1.89s-.41-1.4-.6-2.12C38.52,94.23,38.78,94,39,93.68ZM53.84,80.3a23.32,23.32,0,0,0,1.74-5.48c.33-.29.65-.61,1-.93.4,1.9.67,3.86,1.19,5.73-.13.22-.28.44-.43.65l-.75-2.46a.36.36,0,0,0-.41-.24,0,0,0,0,0,0,0c-.06-.3-.53-.19-.46.12.26,1.23.42,2.52.7,3.77-.15.17-.32.33-.48.5,0-.45,0-.92,0-1.36,0-.07-.09-.07-.1,0,0,.38-.08.79-.14,1.18-.14-.29-.26-.58-.38-.86a8.79,8.79,0,0,0-.55-1.49.15.15,0,0,0-.28.07,7.64,7.64,0,0,0,.1.82.11.11,0,0,0,0,.11c.09.85.16,1.67.3,2.52,0,0,0,0,0,0-1.09.39-2.16.8-3.18,1.16A22.73,22.73,0,0,0,53.84,80.3ZM53.36,76a.29.29,0,0,0,.14.15c0,.15-.09.29-.13.44C53.37,76.36,53.36,76.17,53.36,76ZM55,64.2c.15.51.29,1,.45,1.52h0a2.42,2.42,0,0,0-.92-1Zm-1.35.19h-.24c-.1-.22-.21-.43-.32-.64.46-.41.91-.84,1.35-1.27.1.29.21.6.3.91C54.34,63.7,54,64,53.62,64.39Zm3.88,5.19c.36-.2.72-.42,1.08-.64q-1.32,1.82-2.69,3.6c0-.17,0-.34,0-.51A9.15,9.15,0,0,0,57.5,69.58Zm-1.23-3.76a10.8,10.8,0,0,0,.81-1c-.06.38-.14.76-.23,1.15a8.47,8.47,0,0,1-.25.86C56.51,66.51,56.39,66.16,56.27,65.82Zm3,9.3c-.18-.51-.41-1-.55-1.52s-.31-1.18-.42-1.78l.62-.84a18.1,18.1,0,0,0,.53,2.08.63.63,0,0,0-.14.42A12.7,12.7,0,0,1,59.24,75.12Zm-1.34,2.3c-.34-1.24-.73-2.48-1-3.72a.19.19,0,0,0-.05-.09l0,0c.45,1.59,1,3.17,1.59,4.72l-.2.42a1.42,1.42,0,0,0,0-.2c-.06-.39-.11-.78-.16-1.17,0-.07-.13,0-.12,0Zm.54-.91c-.41-1.06-.83-2.13-1.3-3.16,0,0,0,0-.06-.07.28-.32.56-.65.83-1,.09.55.2,1.1.34,1.65a7,7,0,0,0,.83,2.29c-.06.26-.12.52-.2.77a8.56,8.56,0,0,0-.52-1.44.09.09,0,0,0-.17.07A6.28,6.28,0,0,1,58.44,76.51Zm-2.5-8.64a7.67,7.67,0,0,0-.16-1.07c.11.31.23.61.35.9A1.54,1.54,0,0,1,55.94,67.87ZM68,82l-1.1-.4a7,7,0,0,0-1.19-.34A12.4,12.4,0,0,0,68.46,80c.68.37,1.37.74,2.07,1.09a16.54,16.54,0,0,0-2.42.86A.18.18,0,0,0,68,82Zm-3.92-1a19.56,19.56,0,0,0-6.48,1,9.91,9.91,0,0,0,.88-1,12.48,12.48,0,0,0,6.32-2.25c.13-.1,0-.31-.16-.27a32,32,0,0,0-3.3,1.26c-.91.35-1.84.66-2.72,1.08a10.72,10.72,0,0,0,2.2-5.78,68.29,68.29,0,0,0,7,4.57C66.63,80.07,65.36,80.54,64.12,81Zm-4.63-9.58-.24-1,.23-.33.38-.52A5.51,5.51,0,0,0,59.49,71.44Zm.17-4a14,14,0,0,0-1.74,1,19.7,19.7,0,0,0,.88-4.28l.38-.47c.07.38.13.75.2,1.13A9.69,9.69,0,0,0,58.59,66c-.16.26.21.47.4.25s.41-.51.63-.76a.33.33,0,0,0,.44-.28h0a1.5,1.5,0,0,0,0-.22l.17-.19a4.89,4.89,0,0,0,.25.85.2.2,0,0,0,.4-.05,6.57,6.57,0,0,0,0-1.47h0c.17-.16.36-.31.54-.47a5,5,0,0,0,.4.76C61.09,65.41,60.38,66.43,59.66,67.44Zm2.19-22.07c.1.29.2.57.31.86l-.13.14-.41-.2c0-.15-.08-.3-.13-.44ZM61.22,45a.76.76,0,0,0,0-.11c0-.09-.07-.18-.11-.27a4.32,4.32,0,0,0,.39-.34c0,.12.08.24.13.36Zm1.71,3.86a.26.26,0,0,0,.23-.1l.11-.11a.19.19,0,0,0,.26-.13l.06,0c.59-.21,1.77,7,1.77,7.79a7.88,7.88,0,0,1-.3,2.19c-.34-1.32-.89-2.65-1.24-3.85-.09-.3-.55-.19-.47.11.28,1,.54,2,.81,3.06.16.6.29,1.23.5,1.83l-.15.36c-.35-1.07-1.13-3.07-1.23-3.33a.35.35,0,0,0-.3-.24s0,0,0-.06c-.07-.43-.73-.27-.66.17a21.56,21.56,0,0,0,1.39,5c-.12.21-.25.42-.38.63-.28-1.64-.8-3.24-1.18-4.85a.27.27,0,0,0-.53.13c.2.87.35,1.77.53,2.66a4.91,4.91,0,0,0-.71.48,11.49,11.49,0,0,1-.1-1.18s0,0,0,0,.29-.34.42-.51-.05-.22-.15-.16a10.64,10.64,0,0,0-1.47,1.13c-.13-.65-.26-1.3-.4-2h0c0,.75.06,1.49.1,2.23-.17.17-.34.33-.5.5-.14-.6-.29-1.2-.45-1.79s-.11-1.4-.19-2a3.64,3.64,0,0,0,1.23-.88C61.51,54.12,61,50.3,62.93,48.86Zm0-2.45c.23-.21.45-.45.65-.66.07.41.14.82.23,1.22a1,1,0,0,0-.36-.13c-.13,0-.25-.06-.38-.09S63,46.53,62.92,46.41Zm2,2.31.2-.15c0,.27.11.55.17.82-.1-.2-.22-.4-.33-.59A.3.3,0,0,1,65,48.72Zm-2.53,13.5a2.59,2.59,0,0,0-.62.27,2.58,2.58,0,0,1-.08-.26c-.08-.32-.14-.64-.2-1a9.51,9.51,0,0,0,.71-.71,18.26,18.26,0,0,0,.53,2.09.33.33,0,0,0,.1.15l-.66,1c-.06-.22-.13-.45-.21-.67a3.28,3.28,0,0,0,.58-.67A.14.14,0,0,0,62.44,62.22Zm-1.84-.08L61,61.8A10.35,10.35,0,0,0,61.18,63l-.43.4c-.06-.39-.14-.78-.2-1.16Zm-.17-.64c-.06-.36-.13-.72-.19-1.08.19-.18.39-.36.57-.55,0,.37,0,.77.07,1.18ZM60,62.8c0,.41.06.82.11,1.23a1.85,1.85,0,0,0-.14.14c0-.39-.1-.77-.16-1.15C59.87,62.94,59.94,62.87,60,62.8Zm-.32-.51c-.08-.4-.16-.79-.25-1.19.15-.11.29-.23.43-.35,0,.41,0,.81.08,1.22v0Zm-.61.73-.2.25c0-.38.05-.75.06-1.13C59,62.43,59,62.73,59.07,63Zm5.25.33a13.23,13.23,0,0,0,.23,2.09,9.68,9.68,0,0,0-2.86,1.7C62.6,65.9,63.5,64.64,64.32,63.35Zm.11-.18c.27-.43.52-.86.77-1.29a1.74,1.74,0,0,1,.1-.19A14.21,14.21,0,0,0,65.68,64,10.77,10.77,0,0,0,65,65C64.76,64.36,64.56,63.77,64.43,63.17ZM60.66,45c0,.12,0,.24.07.35s0,.13,0,.19l-.1.11-.5-.31Zm-1.11,0-.48-.25-.15-.38a7.83,7.83,0,0,0,1.42-1.1l.15.94A11.9,11.9,0,0,1,59.55,44.93ZM58,44.28l-.9-.24.63-.7C57.85,43.65,57.93,44,58,44.28Zm-20.69,2a.24.24,0,0,0,0-.34,11.19,11.19,0,0,1,4.43-2.66c2.77-.63,6.37.62,9.1,1.09,2.46.43,5.38.57,7.62,1.8l.2.12a8.84,8.84,0,0,0,.8,1.53c.08.12.33.11.31-.07s-.08-.59-.14-.88a19.11,19.11,0,0,0,1.85,1.06,6.33,6.33,0,0,0-1.38,2.63,26.87,26.87,0,0,1-.84,3.25,7.26,7.26,0,0,0-1.55.78.28.28,0,0,0,.27.49l.67-.38a3.19,3.19,0,0,1-1.69.8l-.1-.3A9,9,0,0,1,58,53.7c.06-.07,0-.21-.11-.15a5.14,5.14,0,0,0-1.14,1.14c-.17-.39-.82-.23-.68.2.07.19.13.38.2.58a1.17,1.17,0,0,0-.05.11,7.85,7.85,0,0,1-.84,0,.75.75,0,0,1-.07-.12,27.43,27.43,0,0,0,2.49-3.82c0-.07-.06-.15-.11-.09A27.36,27.36,0,0,0,55,54.94c-.19-.36-.39-.71-.59-1.07a15.88,15.88,0,0,0,1.88-3.21c0-.1-.11-.14-.16-.07-1.18,1.55-2.3,3.13-3.56,4.6L52,55.11l-.67,0a20.44,20.44,0,0,0,2-2.74c0-.07,0-.15-.12-.09A22,22,0,0,0,50.56,55c-.38,0-.76-.05-1.14-.06A9,9,0,0,0,51,53.25a.15.15,0,0,0-.2-.21c-.84.59-1.64,1.25-2.45,1.9H46.58a4.34,4.34,0,0,0,1.76-1.74c.06-.13-.06-.29-.2-.21a17.48,17.48,0,0,0-1.55,1.17,13.72,13.72,0,0,1-1.32.81c-.89,0-1.78.09-2.67.16A20.3,20.3,0,0,0,46,52.62a.16.16,0,0,0-.15-.26,14.76,14.76,0,0,0-4.36,2.9c-.72.08-1.44.17-2.15.28a20,20,0,0,0,3.35-3.07.12.12,0,0,0,0-.14.7.7,0,0,0-.37-1.27l-.2,0c-.93-.09-1,1.5,0,1.45h0a22.46,22.46,0,0,0-3.92,3.23c-.52.09-1,.19-1.54.3l.29-.3a23.19,23.19,0,0,0,2.45-2.79c.1-.13-.09-.25-.21-.16a24.36,24.36,0,0,0-2.79,2.68c-.24.26-.48.51-.71.77-.57.13-1.14.28-1.7.42l1.26-1.23a20,20,0,0,0,2.8-3c.11-.16-.1-.4-.27-.28a19.45,19.45,0,0,0-3,2.79c-.52.52-1,1-1.56,1.58C32.5,52.51,34.29,49,37.34,46.27ZM54.7,55.49h0c-.47-.06-.94-.14-1.4-.21.29-.32.56-.65.83-1ZM32.61,58.82a.78.78,0,0,0,.22,0,55.76,55.76,0,0,1,12-2c2.08-.09,4.07.2,6.13.3,1.52.07,3-.13,4.54,0a6.32,6.32,0,0,0,.89,1.54.26.26,0,0,0,.44-.24,5.05,5.05,0,0,0-.53-1.25h.58a4.32,4.32,0,0,0,.67,1.57,49.65,49.65,0,0,1-.32,5.45,10.75,10.75,0,0,0-1.18,1c-.19-.47-.38-.94-.58-1.39a11.18,11.18,0,0,0,.93-1.18.16.16,0,0,0-.21-.22,9.93,9.93,0,0,0-1,.72l-.32-.75a.2.2,0,0,0-.13-.11,14.83,14.83,0,0,0,1.7-2c.05-.07,0-.18-.13-.13a20.4,20.4,0,0,0-3.53,3c-.19-.37-.37-.75-.56-1.12a.29.29,0,0,0-.17-.16c.27-.26.55-.52.8-.79.1-.1,0-.24-.14-.19a13.3,13.3,0,0,0-4.9,4.1.17.17,0,0,0,.06.25,27.34,27.34,0,0,1-3.12-.36A24.41,24.41,0,0,0,48.1,61.2c0-.05,0-.13-.08-.09a23.88,23.88,0,0,0-4,3.54l-.68-.12-.51-.1a8.59,8.59,0,0,0,2.55-3.1c0-.12-.11-.18-.19-.12-.85.68-1.52,1.55-2.31,2.3-.28.27-.58.52-.87.77a30.75,30.75,0,0,0-8.8-.86c-.31,0-.61.08-.91.13A4.24,4.24,0,0,0,32.61,58.82Zm20,5.62-.41.09.31-.27A1.62,1.62,0,0,1,52.58,64.44Zm-.42-.83L51,64.83a6.64,6.64,0,0,1-1.25.26,15.11,15.11,0,0,1-1.78,0l0,0c1.11-.95,2.32-1.88,3.43-2.88l0,.05C51.71,62.72,51.94,63.16,52.16,63.61ZM20.59,72.35a25.4,25.4,0,0,1,2.89-2c2.6-2.15,4.88-4.17,8.31-4.89a21.54,21.54,0,0,1,8.57.37.18.18,0,0,0,.25.12l.09-.05a36.8,36.8,0,0,0,8.57,1.09c.82,0,1.8-.37,2.65-.43a.26.26,0,0,0,.39,0l.06,0c1.34-1.12,1.67,2.43,1.69,2.79.11,2,.39,4.65-.66,6.42-.13-1.45-.11-3-.18-4.41,0-.44-.7-.47-.69,0,0,1.68,0,3.36,0,5,0,.58.06,1.46.08,2.38l-.22.51a23.69,23.69,0,0,0-.36-3.79c-.21,1.64-.41,3.28-.66,4.91-.07.47-.18.94-.28,1.42A19.77,19.77,0,0,1,49,84.63,58.21,58.21,0,0,0,51.41,78a.58.58,0,0,0-1.11-.34,50.48,50.48,0,0,0-2,7.58c-.62.18-1.25.37-1.85.59l.09-.11a13.28,13.28,0,0,0,3-11.65.86.86,0,0,0-1-.63c-6,1.92-13.16.53-19.33.26-3.12-.13-7.81-.76-9.67,2.33A6.78,6.78,0,0,1,20.59,72.35Zm-9.93,11.8c2.48-2.87,6.16-7.3,10.28-5.13,2.62,1.39,4.62,3.31,7.46,4.36,3.76,1.39,6.32,3.14,7.54,6.68-6.75.82-13-2.21-19.66-3.23a17.89,17.89,0,0,0-1.81-.19.35.35,0,0,0-.23-.36,1.48,1.48,0,0,1-.13-.08c-.07,0-.07-.06,0,0a.51.51,0,1,0-.94.37.41.41,0,0,0,.05.09,8.22,8.22,0,0,0-3.94,1.12,14.14,14.14,0,0,0-3.42,3.52A45.58,45.58,0,0,1,10.66,84.15Zm-4.24,9,.07,0c.16.6.3,1.2.45,1.8L6.79,95c-.06-.21-.11-.41-.17-.61,0,0,0,0,0,0,0,.22,0,.45.08.67l-.77.44,0-1.54.18-.42A.62.62,0,0,0,6,93l.33-.35a.24.24,0,0,0,0,.08l-.16.09A.2.2,0,0,0,6.42,93.19ZM5.93,96l.81-.43c0,.53.11,1.07.15,1.6,0,.24,0,.49.05.73l-1,.61C6,97.67,6,96.83,5.93,96Zm-.59-.68c0,.18,0,.36,0,.53L5.07,96Zm-.5,1.2.43-.2c0,.88-.1,1.76-.07,2.62-.62.38-1.22.79-1.82,1.2C3.83,98.9,4.34,97.69,4.84,96.51Zm-1.7,4.26c.71-.39,1.41-.8,2.09-1.23,0,.25,0,.49.08.73a8.51,8.51,0,0,1-2.44,1.32Zm7.54,18.56a54.91,54.91,0,0,1-6.25,7.35c1-4.44,3.53-8.92,5.83-12.82a80.44,80.44,0,0,0,4.66-8.62,4.69,4.69,0,0,1,2.13.69,4,4,0,0,1,1,.86.77.77,0,0,0-.66.48A63.64,63.64,0,0,1,10.68,119.33Zm7.15-7.74c.53-.38,1.08-.75,1.61-1.15l.09.33A37.32,37.32,0,0,0,16.46,113a55.05,55.05,0,0,0,2.28-5.08,12.72,12.72,0,0,1,.56,1.93c-.6.39-1.19.82-1.77,1.23C17.22,111.28,17.51,111.82,17.83,111.59Zm4,12.54a2.1,2.1,0,0,1-.69-.3,5.27,5.27,0,0,0,2.12-.85C23,123.57,22.56,124.17,21.82,124.13ZM24,121.47l-.68.65-2.1,1.51-.21.12c-.5-.3-1.06-.69-1.29-.8l-.41-.19a13.26,13.26,0,0,0,3.85-2.64c.09-.09,0-.26-.13-.19-1.41.85-2.8,1.72-4.24,2.53l-.05,0c-.55-.25-1.12-.49-1.7-.72a22.24,22.24,0,0,0,3.54-2.23.14.14,0,0,0-.13-.24,26.24,26.24,0,0,0-4.12,2.19l-.64-.24a17.83,17.83,0,0,0,2.85-1.72.18.18,0,0,0-.17-.3A19.62,19.62,0,0,0,14.9,121l-.76-.28a13.32,13.32,0,0,0,3.45-2.47.14.14,0,0,0-.16-.23c-1.36.77-2.7,1.6-4,2.42l-.46-.17c1.85-1.25,3.74-2.47,5.54-3.79a.15.15,0,0,0-.15-.27,29.4,29.4,0,0,0-6.09,3.76c.47-.67.93-1.36,1.38-2A31.81,31.81,0,0,0,19,113.32c.09-.1,0-.28-.15-.2-1.45,1-2.83,2.07-4.22,3.14.37-.61.73-1.23,1.07-1.85,1.34-1,2.73-1.94,4-3l0,.09a.51.51,0,0,0,.92.15c1.94-2.43-.53-6.24-2.81-7.48a6,6,0,0,0-7.79,1.74.42.42,0,0,0,.56.59,8.89,8.89,0,0,1,3.09-1.17c-2.59,3.75-4.69,7.92-6.93,11.89a13.11,13.11,0,0,1-2.14-1.88c-3.63-4-3.34-8.59-1.95-13.13a5.36,5.36,0,0,0,2.69-1.51c0,.12.23.12.25,0a10.7,10.7,0,0,0,.23-1.52c.38-.24.76-.48,1.13-.74a4.54,4.54,0,0,0,.14.82.13.13,0,0,0,.26,0,5.71,5.71,0,0,0,0-1.1l.88-.63c.13-.1,0-.29-.16-.22s-.51.27-.76.41a16.39,16.39,0,0,0-.46-2.19l.14-.08c.15.59.3,1.18.49,1.77a.08.08,0,0,0,.16,0c-.15-.61-.32-1.22-.51-1.82a20.17,20.17,0,0,0,3.56-2.53c.09-.08,0-.25-.13-.18-1.16.81-2.35,1.58-3.56,2.29-.18-.58-.37-1.16-.54-1.75.86-.47,1.72-.92,2.54-1.47a.13.13,0,0,0-.13-.23c-.87.38-1.7.85-2.53,1.31,0,0,0,0,0-.08A17.19,17.19,0,0,1,10,89.13c3.07-1.85,7.45-.3,10.64.53C25.86,91,31,92.58,36.41,91.81a.5.5,0,0,0,.05.13c-.85,6.71-2,13.64-5.29,19.6-1.58,2.82-3.85,5-5.78,7.52A14.07,14.07,0,0,0,24,121.47Zm7-5.94c-.42.33-.84.67-1.25,1l0,0,1-1A.28.28,0,0,0,31,115.53Zm-6.2,8.57c0-.09.09-.17.13-.25a.18.18,0,0,0,.07.08Zm9.62-11.9a12.62,12.62,0,0,0-.92,3.65,28.12,28.12,0,0,0-4.1,3.62c-1.41,1.32-2.84,2.63-4.26,4,.51-1.06,1-2,1.53-3a36.84,36.84,0,0,0,5.93-5.63c.11-.15-.09-.36-.24-.26-.39.25-.76.53-1.14.81,1.11-1.07,2.22-2.14,3.26-3.27Zm-2.64,1.61a27.32,27.32,0,0,0,1.6-2.83.28.28,0,0,0,.43,0,17.06,17.06,0,0,0,2.44-3,.2.2,0,0,0-.3-.24,11.84,11.84,0,0,0-2,2.09,38.79,38.79,0,0,0,1.79-4.94.3.3,0,0,0,.42,0,10,10,0,0,0,1.47-1.58.2.2,0,0,0-.27-.27,7.51,7.51,0,0,0-1.42,1.16,77.56,77.56,0,0,0,1.79-8.7c.09.33.19.66.28,1l.72,3c-.61.54-1.17,1.15-1.74,1.72-.29.3.16.77.45.47.48-.49,1-1,1.45-1.51l.24,1a20.06,20.06,0,0,1-.72,2.68c-.88,2.51-2.32,4.77-3.44,7.18C33.85,111.89,32.81,112.84,31.79,113.81Zm29,8a7.89,7.89,0,0,1-.82,1.4,5.9,5.9,0,0,1-1.44,1.43,6.68,6.68,0,0,0,1.87-2.45c.05-.13-.15-.21-.22-.1s-.12.16-.17.25l-4.31,2.82c-.25.06-.51.12-.77.16a.24.24,0,0,0-.2.16,15.11,15.11,0,0,1-6.37-2.85A49.25,49.25,0,0,0,54,118.14c.06,0,0-.16-.08-.11a47.2,47.2,0,0,0-5.72,3.89c.74-1.83,1.71-3.6,2.43-5.46.1.3.19.61.28.93a.79.79,0,0,0,1.55-.17,4.94,4.94,0,0,0-1.52-4.1.49.49,0,0,0,.53-.37,2.42,2.42,0,0,0-.8-2.2,2.66,2.66,0,0,0-2.08-.91.36.36,0,0,0-.2.67,5.14,5.14,0,0,1,1.28,1.09,5.58,5.58,0,0,1,.57,1.08,7.45,7.45,0,0,0-2.5-1.35c-1.65-.48-6-.71-6.41,1.6,0,.18.14.4.33.27,1.5-1,4-.82,5.59-.25a4.81,4.81,0,0,1,3,2.67.79.79,0,0,0-1,.45,60.75,60.75,0,0,1-6.45,11.73q-1.52,2.15-3.21,4.13c-.69.81-3.1,2.59-3.3,3.55,1-4.66,3.53-9,6-13.2l.06,0a9,9,0,0,1,1.06-1.92,55.14,55.14,0,0,0,3.58-7c.19-.47-.5-.71-.76-.35-.69,1-1.35,1.93-2,2.93-.16-.27-.48-.45-.67-.71a2.59,2.59,0,0,1-.37-.89.46.46,0,0,0-.26-.3l.18-.15a.08.08,0,0,0-.1-.13,18.5,18.5,0,0,0-6.39,4.58c-.19.22.05.64.33.45,1-.73,2-1.58,3-2.36.77-.6,1.56-1.18,2.32-1.79a1.94,1.94,0,0,0,.25,1.26,1.65,1.65,0,0,0,1.26.85c-.67,1.11-1.32,2.23-2,3.37-.45-.12-.9-.22-1.35-.31-.7-.13-1.45-.2-2.15-.31,1.21-1,2.36-2,3.57-3,.06-.05,0-.14-.08-.1a13.75,13.75,0,0,0-4,2.81.33.33,0,0,0-.08.17,2.72,2.72,0,0,1-2.41-2.68s0,0,0-.07a17.47,17.47,0,0,0,4.36-4.3c.09-.12-.08-.25-.19-.16-1.39,1.22-2.76,2.46-4.18,3.64.23-3.69,3.53-7.46,4.72-10.82a20.31,20.31,0,0,0,1.18-5.7c.08-1.46-.52-3.68.53-4.9s2.33-.2,3.38.31c.32.15.62.33.94.48a15.24,15.24,0,0,0,4.57,1.26,35.4,35.4,0,0,0,5.15,0c2,0,5-.89,5.8,1.57.5,1.49,0,4,0,5.63,0,1.88,0,3.75,0,5.63,0,1,.06,2,.12,3.06-.5.4-1,.8-1.5,1.21A8.41,8.41,0,0,0,58,115.52c-.06.12,0,.3.18.25A7.82,7.82,0,0,0,60.51,114L61.75,113C61.92,116,62,119.13,60.76,121.77Zm2-25.95a1.15,1.15,0,0,0-.73-.48l.14-.08,1-.27A2.07,2.07,0,0,0,62.77,95.82Zm.7,7.6.38-.57c.16.65.3,1.3.42,2-.25.35-.49.71-.72,1.06C63.53,105.06,63.5,104.24,63.47,103.42Zm.11,3.29c.27-.33.55-.66.82-1,.08.55.14,1.11.19,1.66-.34.49-.66,1-1,1.48Zm.28,8.73c0-.66,0-1.3-.09-1.88l0,0c.3-.39.61-.77.92-1.16l0,1.8C64.41,114.59,64.14,115,63.86,115.44Zm.81-.12v.16a.14.14,0,0,0,.27,0c.07-.28.13-.56.19-.84s.35-.51.52-.76a14.17,14.17,0,0,0,.06,1.6c-.65.83-1.28,1.66-1.91,2.47,0-.51.06-1,.07-1.55Zm-1-2.55c0-.53-.07-1-.08-1.27,0-.62,0-1.24,0-1.85l1-1.29c0,1,.07,2,.07,2.94C64.4,111.8,64.06,112.29,63.72,112.77Zm2,6.08a21.46,21.46,0,0,0,4.46-5.33v1.23c-1.18,1.22-2.32,2.48-3.47,3.73Zm2.32-.8,2.16-2.47v0a.09.09,0,0,0,0,.06,13.76,13.76,0,0,0-1.59,2.19Zm7.76-4.81a5.59,5.59,0,0,1-1.09,1.64,8.26,8.26,0,0,0,.59-4.9c-.09-.62-1-.38-1,.24a11.52,11.52,0,0,1-.63,4.74,23,23,0,0,0-.27-9s-.06,0-.06,0a32.31,32.31,0,0,1,.16,9.47,0,0,0,0,0,0,0l-.15.5a16.77,16.77,0,0,1-4,1.7c.16-.24.31-.47.48-.69l2.92-3.11.44-.37c.06,0,0-.14-.08-.11q-.33.18-.66.39c.06-.39.1-.77.14-1.15l.14-.18c0-.07-.05-.14-.11-.09a26.43,26.43,0,0,0-.05-4.95.3.3,0,1,0-.6.06c.19,1.72.29,3.47.31,5.21-.62.58-1.22,1.18-1.81,1.78,0-.54,0-1.08,0-1.62.07-.14.15-.27.21-.41s-.09-.16-.14-.09l-.08.09a40.85,40.85,0,0,0-.59-4.8s-.07,0-.06,0a30.14,30.14,0,0,1,.3,5.19,71,71,0,0,1-6.39,6.93.28.28,0,0,0-.1.22c-.12.09-.26.17-.38.27a7.26,7.26,0,0,0,.37-1.51.22.22,0,0,0,.25-.06,41.75,41.75,0,0,0,5.91-7.48c.08-.14-.1-.3-.22-.18a44.29,44.29,0,0,0-3.54,4c.06-.63.08-1.26.08-1.89,1-1.51,2-3,2.89-4.63,0-.07-.06-.16-.12-.09-1,1.19-1.91,2.42-2.81,3.68a.25.25,0,0,0-.44.14c0,.17,0,.34,0,.5s-.22.32-.32.48c.07-.61.1-1.21.11-1.81A23.54,23.54,0,0,0,68.29,107c.08-.17-.14-.4-.28-.22a34.38,34.38,0,0,0-2.55,3.41,21.51,21.51,0,0,0-.28-2.53A27.65,27.65,0,0,0,68,103.41c0-.09-.06-.19-.14-.11A26,26,0,0,0,65,106.77q-.15-.7-.33-1.41a34.27,34.27,0,0,0,3.23-4.81c0-.08-.06-.17-.12-.1a32.34,32.34,0,0,0-3.33,4.08c-.17-.59-.35-1.19-.54-1.79.25-.37.51-.73.79-1.09l1.55-1.86c.33-.36.67-.72,1-1.06.08-.08,0-.24-.13-.17a12.47,12.47,0,0,0-3.44,3.54c0-.1-.07-.21-.11-.31a0,0,0,1,0-.05,0c0,.12.07.25.11.37l-.22.35,0-1.18c0-.12,0-.26,0-.41a44.57,44.57,0,0,0,4.8-5.82.09.09,0,0,0-.14-.11c-1.57,1.72-3.09,3.49-4.64,5.23a14.93,14.93,0,0,0-.1-3.06h0c.42-.34.75-.74,1.17-1.08a9.69,9.69,0,0,1,3.12-1.5,14.17,14.17,0,0,0,2.89-1.44,10.78,10.78,0,0,0,3.74-3.82,17.35,17.35,0,0,1,1.45,5.83c.07,2.12-.8,4-1,6.06a14,14,0,0,0,.67,4.68,1.06,1.06,0,0,0,0,1.06.5.5,0,0,0,.42.59C76.31,109.51,76.62,111.44,75.83,113.24Zm-5.44,2.28,0-.16c.66-.78,1.3-1.57,1.92-2.38,0,.29,0,.58,0,.87A11.17,11.17,0,0,0,70.39,115.52Zm6.45-10.4a14.42,14.42,0,0,1,.1-6.62,13.33,13.33,0,0,0,.29-2.78h0a7,7,0,0,0,3.24-3.24c.07-.17-.17-.28-.28-.17-.55.49-1,1-1.59,1.53a16.75,16.75,0,0,1-1.44,1.11c0-.39-.06-.79-.11-1.18A14.52,14.52,0,0,0,79.94,91c.08-.1-.07-.25-.17-.18-1,.69-1.89,1.41-2.81,2.14-.1-.53-.23-1.06-.37-1.58a5,5,0,0,0,2.26-1.86c.08-.15-.09-.38-.25-.26s-.12.09-.18.13l-1.94-.23A2.12,2.12,0,0,0,77.7,88c0-.14-.13-.29-.25-.21-.33.21-.6.48-.93.68a4.41,4.41,0,0,1-.78.4c-.24-.65-.51-1.31-.78-2a4.52,4.52,0,0,0,1.61-1.26c.12-.15-.09-.33-.24-.25-.56.3-1.1.61-1.66.89A2.72,2.72,0,0,0,73.89,85a8.63,8.63,0,0,0-1-.74,3.73,3.73,0,0,0,1.33-1.12A.14.14,0,0,0,74,83c-.28.17-.56.34-.84.49l-1,.4a25.51,25.51,0,0,0-3.39-1.58,12.38,12.38,0,0,0,2.44-.85,61.6,61.6,0,0,0,10.36,3.94,19.36,19.36,0,0,1,3,.73c1.38.7,1.55,1.61,1.22,3-.46,2-1.65,4.07-2.41,6C82,98.75,80.59,103.37,76.84,105.12ZM83.33,102l-.46.39a11.33,11.33,0,0,1-1.08.78c.25-.37.49-.76.71-1.15A3.58,3.58,0,0,0,84,100.2a1.24,1.24,0,0,0,.1-.2A19.21,19.21,0,0,0,83.33,102Zm1.09-2.57q1-2,2-4.11a14.72,14.72,0,0,1-1.65,3.47Zm8.37-15.88c-.26,1.25-.48,2.23-.57,2.55-.94,3.34-1.71,6.44-3.54,9.49a26.58,26.58,0,0,1-3.85,5c.39-.86.84-1.68,1.32-2.55a11.27,11.27,0,0,0,1.31-4.86,17.74,17.74,0,0,0,1.67-4.71c.22-1.25.36-2.48.63-3.67a19.69,19.69,0,0,1,1.3-2.49.41.41,0,0,0,0-.44c.35-.34.7-.68,1.06-1s.92-.78,1.37-1.19C93.28,81,93,82.37,92.79,83.54Zm.6-6.27c-.49,1.28-1.79,2.08-2.84,2.86a7.37,7.37,0,0,0-2.37,2.41,3.91,3.91,0,0,0-.36,1.16,10.17,10.17,0,0,0,0,1.46,6.51,6.51,0,0,1-.08,1c-.64-1.13-2-1.43-3.18-1.74a83.87,83.87,0,0,1-8.3-2.59A64.09,64.09,0,0,1,60.68,73c-.35-3.33,2.44-6.08,5.64-6.64s6.6.87,9.59,2.13c5.8,2.45,11.66,4.73,17.64,6.74a.28.28,0,0,1,.13.15A6.09,6.09,0,0,1,93.39,77.27ZM77.51,66.15c.23-.17.45-.36.67-.53l.33.76-.21.11c-.31.15,0,.59.25.46l.17-.08.08.18a9.2,9.2,0,0,0,.45,1c-1.12-.48-2.25-1-3.39-1.44-.14-.21-.27-.38-.33-.47l-.2-.3c.22-.09.44-.18.66-.29l0,0c.58.4.88,1.17,1.5,1.48a.12.12,0,0,0,.17-.06A1.12,1.12,0,0,0,77.51,66.15ZM75,65.41a2.74,2.74,0,0,0-.32-.36,3.13,3.13,0,0,1,.68.2Zm5.68,2.5.09.2c.11.23.22.5.37.75-.21-.08-.41-.15-.61-.24L80,68.39a3,3,0,0,0-.53-1.53c0-.1-.09-.19-.13-.28.23-.12.47-.23.7-.36.15.42.31.84.49,1.25A.32.32,0,0,0,80.69,67.91Zm.22-.9.06.06s0,0,0,0Zm.32.64.16-.11c.22.24.44.48.65.74s.61.87.93,1.31l-1-.4a3.63,3.63,0,0,0-.61-1.27Zm8.66,4.51.24-.15c.06.1.12.2.19.3Zm5.77,4.45a1.12,1.12,0,0,0,1.15.81,1.09,1.09,0,0,0,.25,0,23.31,23.31,0,0,1-2.17,3.69,63.52,63.52,0,0,0,.33-6.46.85.85,0,0,0-.31-.65c0-.15,0-.3,0-.44a5.47,5.47,0,0,0,.91-1.06c.06-.11-.07-.26-.18-.18-.34.22-.68.44-1,.67a.25.25,0,0,0-.26.09l-.12.16-.48.3L92,72.91A12.45,12.45,0,0,0,94.1,71c.12-.13,0-.36-.19-.26a14.43,14.43,0,0,0-2.55,1.94h0l-.59-.21c-.07-.25-.16-.5-.25-.76.27-.2.52-.41.77-.62a8.48,8.48,0,0,0,1.41-1.33c.13-.17-.1-.36-.26-.28a8.69,8.69,0,0,0-1.55,1l-.63.5c-.11-.27-.22-.54-.34-.8a6.77,6.77,0,0,0,.92-1.46c0-.1-.08-.23-.16-.13-.32.37-.65.73-1,1.08l-.41-.89c.23-.21.46-.42.68-.64a.12.12,0,0,0-.14-.19A22.45,22.45,0,0,0,87,69.87s0-.06,0-.09-.08-.06-.11,0a7,7,0,0,0-.88-1.2,10.19,10.19,0,0,0,2.39-1.76c.1-.1,0-.32-.15-.27a11.18,11.18,0,0,0-2.68,1.58.26.26,0,0,0-.37.14l-.37-.71c-.15-.3-.56,0-.44.24l.39.93h0c-.2.15,0,.45.2.43l0,0a3.26,3.26,0,0,0,.32.68,2.69,2.69,0,0,0,.37.3c.07.06.17,0,.17-.1a1.35,1.35,0,0,0,0-.49,4.71,4.71,0,0,0-.31-.69v0l0,0a9.5,9.5,0,0,1,.62.8c.24.35.41.74.68,1.06a.21.21,0,0,0,.35-.19h0a.56.56,0,0,0,0-.12.23.23,0,0,0,.22,0c.48-.34,1-.7,1.4-1.07l.46,1-.35.37a.25.25,0,0,0,.35.37l.25-.24c.11.22.23.43.35.65a5.33,5.33,0,0,0-.42.4.26.26,0,0,0-.07.15Q86.67,71,84.06,70a5.11,5.11,0,0,0-1-1.67,14.06,14.06,0,0,0,2.14-1.44c.88-.64,1.72-1.32,2.53-2a.1.1,0,0,0-.11-.16c-.94.54-1.86,1.13-2.75,1.75A14.34,14.34,0,0,0,82.76,68l-.1-.13c-.22-.27-.46-.53-.69-.78a46.05,46.05,0,0,0,4.26-3.5.08.08,0,0,0-.09-.13,46.67,46.67,0,0,0-4.61,3.13c-.27-.28-.55-.56-.83-.83a14.48,14.48,0,0,0,2.86-2.25c.1-.1,0-.3-.16-.21-1.05.74-2.11,1.45-3.2,2.1a.38.38,0,0,0-.36.21l-.77.43c-.14-.28-.27-.56-.41-.85,1-.76,1.89-1.55,2.79-2.39.1-.1,0-.29-.15-.21-1,.66-2,1.36-2.89,2.09l0,0c-.16-.33-.63-.05-.49.28l0,.12c-.27.21-.54.41-.8.63a5.29,5.29,0,0,0-.53-.45,7.13,7.13,0,0,0,2.22-1.87c.12-.16-.12-.31-.26-.2a17.7,17.7,0,0,1-2.53,1.73,3.83,3.83,0,0,0-.7-.29,5.07,5.07,0,0,0,1.26-1.14c.09-.11-.07-.28-.19-.2a17.14,17.14,0,0,1-1.93,1.14,5.33,5.33,0,0,0-.8,0,.31.31,0,0,0-.23.47,1,1,0,0,1-.18.08.25.25,0,0,0,.13.49,6.36,6.36,0,0,0,.62-.19,7.63,7.63,0,0,0,.56.88,27.23,27.23,0,0,0-2.78-.89,27,27,0,0,0,3.46-2.51.07.07,0,0,0-.08-.12,26.37,26.37,0,0,0-3.86,2.52c-.57-.13-1.14-.23-1.72-.31a8.55,8.55,0,0,0,2.77-2.09c.11-.12,0-.35-.17-.25-1.25.79-2.43,1.58-3.72,2.25a9.8,9.8,0,0,0-1.86.12c7.55-5.37,16-6.19,25-3.22,2.17.71,4.82,1.44,6.7,2.74,1.41,1,1.39,1.1,1.19,2.86-.17,1.56-.36,3.12-.67,4.66a24,24,0,0,1-1.44,4.71.74.74,0,0,1-.56.13c-.2,0-.46-.09-.54-.3C96.16,76.05,95.54,76.19,95.66,76.61Zm8.13-11.71a25.7,25.7,0,0,1-5.28,14.36c2.14-4.52,2.69-10.11,3.16-14.7a.93.93,0,0,0-.45-.83c-6.47-3.29-13.59-6.1-21-5.75a26.22,26.22,0,0,0-7.54,1.46,39.06,39.06,0,0,0,3.63-4.12c0-.07-.06-.15-.12-.1-1.87,1.77-3.86,3.45-5.76,5.2a18.34,18.34,0,0,0-1.79,1A19.08,19.08,0,0,0,70.49,54a25.92,25.92,0,0,1,2.45-2.23c.1-.08,0-.23-.13-.18a8.85,8.85,0,0,0-2.28,1.63q0-.75,0-1.5c.6-.49,1.21-1,1.84-1.45,0,0,0-.15,0-.12a6.88,6.88,0,0,0-1.84,1c0-.1,0-.19,0-.28a4.22,4.22,0,0,1,.89-.9,35.7,35.7,0,0,1,4.31-1h0L76,49a.43.43,0,0,0,.77-.1l.31,0a.39.39,0,0,0,.46-.05,20.24,20.24,0,0,1,11.24,1.9c4.68,2.4,9.12,4,14.35,3.79.12.32.25.63.39.92A48.67,48.67,0,0,1,103.79,64.9ZM94.47,51l.17-.15c.07.21.14.42.23.63-.28-.09-.56-.17-.83-.27-.62-.24-1.23-.51-1.82-.8l.14,0a4.23,4.23,0,0,0,1.19-.92l.46-.42c.13.41.27.82.42,1.22l-.33.35A.27.27,0,0,0,94.47,51Zm2.47.76a.83.83,0,0,1-.07-.13c.42-.28.84-.57,1.25-.88a3.45,3.45,0,0,1,.2.32,4.41,4.41,0,0,1,.26.59l-.44.46a.37.37,0,0,0-.08.15c-.39-.07-.77-.14-1.16-.23l0,0A.27.27,0,0,0,96.94,51.77ZM96.49,51A4.13,4.13,0,0,1,96,49.82a1.68,1.68,0,0,1,1.57.33C97.18,50.42,96.82,50.7,96.49,51Zm-.51.42-.27.24a9.89,9.89,0,0,0-.53-1.26l.31-.3A4.47,4.47,0,0,0,96,51.41Zm3.16-.33a4.83,4.83,0,0,0-.5-.72c.4-.32.77-.65,1.12-1,.09.27.17.54.26.8Zm1.12-.15c.08.26.16.53.25.79s.17.57.26.85c-.42,0-.84,0-1.26-.1a1.83,1.83,0,0,0-.08-.68C99.71,51.51,100,51.22,100.26,50.93ZM98.9,52.4h-.05l0,0Zm2.33-.46a5.34,5.34,0,0,0,1.24-.67c0,.37.08.74.13,1.11l-.23.23h-.9Q101.37,52.27,101.23,51.94Zm2.14.64A21.48,21.48,0,0,0,105,51l.06.62c-.38.31-.76.61-1.16.89Zm1.78.68a.9.9,0,0,0-.42-.58l.39-.28c0,.34.07.69.1,1s0,.48,0,.71Zm.5,4.77c0-.33-.05-.65-.08-1a.94.94,0,0,0,0,.16.26.26,0,0,0,.51-.06h0a11.06,11.06,0,0,0,.08-1.65.31.31,0,0,0,.25-.08l0,0c0,.62,0,1.24,0,1.86A4.48,4.48,0,0,0,105.65,58Zm.42-4.27a1.39,1.39,0,0,0,.31-.18c0,.31.05.61.07.92l-.28.3C106.15,54.46,106.12,54.11,106.07,53.76Zm1.5,7.09a.11.11,0,0,0,.12.11,16.34,16.34,0,0,1-1.93,2.23c0-.85,0-1.7,0-2.54a.36.36,0,0,0,.47.15,1.66,1.66,0,0,0,1-1.1.21.21,0,0,0-.34-.22,4,4,0,0,1-.61.5,3,3,0,0,1-.07-1.46.42.42,0,0,0,0-.16l.33-.4a3.12,3.12,0,0,0,0,.44h0a.2.2,0,0,0,.38,0,9,9,0,0,0,.15-3.54l.59-.53c0,1.08.14,2.16.1,3.25S107.55,59.75,107.57,60.85Zm2.12-3.9a13.86,13.86,0,0,1-1.86,3.8,13.54,13.54,0,0,0-.15-6.42,5.84,5.84,0,0,0,1.37-1.71.13.13,0,0,0-.17-.19A6.49,6.49,0,0,0,107,54c0-.25-.09-.5-.14-.74a13.9,13.9,0,0,0,.94-1.09,13.36,13.36,0,0,0,1.6-2.49c.05-.09-.07-.21-.14-.12-.59.69-1.2,1.37-1.8,2l-.78.87c-.07-.29-.15-.57-.22-.83s-.25-.11-.23,0c0,.39.08.77.12,1.15l-.16.17c0,.06-.11.11-.16.16-.06-.4-.14-.8-.22-1.2a12,12,0,0,0,3.09-3.74c.05-.11-.09-.25-.18-.14a27.63,27.63,0,0,1-3.06,3.15c0-.21-.1-.42-.14-.62a29.87,29.87,0,0,0,2.31-2.94c.08-.12-.1-.27-.21-.16-.75.79-1.51,1.57-2.29,2.34q-.07-.33-.15-.63c0-.17-.33-.15-.31,0l.09,1c-.58.56-1.16,1.12-1.75,1.67-.07-.3-.15-.61-.23-.91a6.26,6.26,0,0,0,1.8-2.31c.07-.16-.18-.3-.29-.18-.52.54-1,1.11-1.56,1.6l-.14.12c-.11-.45-.21-.89-.33-1.33h0c0,.5,0,1,0,1.6-.45.35-.93.65-1.4,1l-.36-.92a31.61,31.61,0,0,0,2.58-3.06c.07-.08-.06-.17-.14-.11a31.6,31.6,0,0,0-2.71,2.47c-.09-.25-.19-.51-.29-.76.15-.16.29-.31.42-.47a.11.11,0,0,0-.12-.17A13.93,13.93,0,0,0,98,49.77a2.65,2.65,0,0,0-1.7-.55c.41-.45.81-.91,1.2-1.37a.1.1,0,0,0-.13-.14,27.45,27.45,0,0,0-2.5,2.07c-.17-.37-.34-.74-.53-1.11a3.38,3.38,0,0,0,.37-.46c.11-.15-.08-.33-.24-.25a2.55,2.55,0,0,0-.39.24L94,48a.14.14,0,0,0-.26.1c0,.1,0,.2.08.3-.22.17-.43.36-.64.54s-.39.36-.58.54-.22.23-.35.33a.53.53,0,0,1-.19.13c-.14.14-.2.09-.16-.14,0,0,0-.07,0-.05a.31.31,0,0,0-.11.43l-1.39-.72a5.69,5.69,0,0,0,2.25-2.29.18.18,0,0,0-.28-.22c-.87.7-1.6,1.55-2.5,2.23l-1-.52a12,12,0,0,0,1.78-2.12c.1-.16-.11-.3-.25-.2a12.61,12.61,0,0,0-2,2.08c-.32-.15-.65-.29-1-.42a8.57,8.57,0,0,0,1.2-1.21c.09-.12-.08-.27-.2-.21a7.93,7.93,0,0,0-1.61,1.2c-.23-.08-.47-.17-.71-.23l-.16,0a4.31,4.31,0,0,0,1.47-1.67c.06-.13-.08-.27-.2-.16a11.3,11.3,0,0,1-2.17,1.61l-1-.19a4.86,4.86,0,0,0,2.1-2c0-.07,0-.17-.12-.12-1,.66-1.86,1.41-2.86,2q-.83-.09-1.65-.12a4,4,0,0,1,.42-.4c.4-.34,1.12-.61,1.38-1.08a.15.15,0,0,0-.08-.21c-.58-.18-1.31.38-1.72.73a4.05,4.05,0,0,0-.85.95c-.49,0-1,0-1.48,0,0-.25,0-.51,0-.76l.07-.09v0a.39.39,0,0,0,.72.22,1.16,1.16,0,0,0,.22-1l0,0A1.94,1.94,0,0,0,80,45a12.63,12.63,0,0,1,1.74-1.55.22.22,0,0,0,.37,0,3,3,0,0,0,.12-.32,9.19,9.19,0,0,1,4.37-1.46c3.34-.27,6.58.82,9.69,1.9,4.62,1.62,9.42,3.33,14.23,2A30.8,30.8,0,0,1,109.69,57Zm2.55-5a57.27,57.27,0,0,0,0-7.65.92.92,0,0,0-1.13-.91c-.51.15-1,.27-1.51.37a1.42,1.42,0,0,0-.1-1.14.26.26,0,0,0-.27-.15l.15-.12c.2-.17,0-.53-.27-.38s-.72.49-1.06.75c-.18.13-.68.41-.46.7s.59-.09.76-.22l.61-.51a.31.31,0,0,0,0,.21.85.85,0,0,1-.11,1c-6,.79-11.39-2.54-17.3-3.61.52-.18,1-.38,1.53-.61.14-.06,0-.25-.09-.23-.9.17-1.79.4-2.66.65l-.18,0a12.35,12.35,0,0,0-7.49,1.25c.22-.12.59-1.06.76-1.34a14.51,14.51,0,0,0,1.1-1.74,7.84,7.84,0,0,1,1.25-2.35,9.55,9.55,0,0,1,4.71-3.12,5.31,5.31,0,0,1,2,.06,13.7,13.7,0,0,0-4.85,2.21c-.06.05,0,.13.07.12a14.1,14.1,0,0,0,4.94-2,.18.18,0,0,0,0-.29c1.58.31,3.3,1,4.64,1.21a53.17,53.17,0,0,0,7.77.7,17.77,17.77,0,0,1,3.34-.06c1.82.41,2.18,1.63,2.82,3.13A23.13,23.13,0,0,1,113.07,45,17.73,17.73,0,0,1,112.24,52Zm-.11-17.08c.29-.21.57-.43.85-.65.14.35.28.7.4,1l-.71.53A8.38,8.38,0,0,0,112.13,34.89Zm4.57,5.45c0,.23,0,.47-.08.71a1.3,1.3,0,0,1-.86.35.25.25,0,0,0,0,.5,1.7,1.7,0,0,0,.8-.17,3.23,3.23,0,0,0,0,.44,4.39,4.39,0,0,1-1.19.52.36.36,0,0,0,.17.69l.3-.09c-.33.34-.67.68-1,1a.34.34,0,0,1,0-.1A28,28,0,0,0,113,36.4a7,7,0,0,0,.64-.37l.06.22c.07.32.12.65.16,1l-.08,0c-.28.14-.12.5.14.51a12.44,12.44,0,0,0,.3,1.94.19.19,0,0,0,.37,0,5.83,5.83,0,0,0,.16-2.19l.42-.21c0,.36.06.72.1,1.08s.06.91.12,1.36a4.34,4.34,0,0,0-.46.58c-.11.17.09.35.26.27a3.14,3.14,0,0,0,.31-.18,3.66,3.66,0,0,0,.27.83.17.17,0,0,0,.31,0,4.16,4.16,0,0,0,.08-1.27,7.76,7.76,0,0,0,.63-.65C116.74,39.64,116.73,40,116.7,40.34Zm-2.43-4.8c.22-.18.44-.37.64-.57,0,.52.1,1,.14,1.55-.15.1-.3.2-.46.29A11.8,11.8,0,0,0,114.27,35.54Zm6.66-2.21a18.67,18.67,0,0,1-2.73,7.15,10.47,10.47,0,0,1-.78,1.07l-.26.2a4.94,4.94,0,0,0,.19-1,.44.44,0,0,0,0-.1,0,0,0,0,0,0,0,12.9,12.9,0,0,0,0-2.07,12.32,12.32,0,0,0,1-1.69c.06-.12-.1-.28-.2-.16-.36.44-.73.87-1.1,1.3a.25.25,0,0,0-.3.28v0a3.33,3.33,0,0,1-.25.28c-.14.16-.29.31-.44.46,0-.24-.07-.48-.1-.72,0-.47-.12-1-.18-1.43A3.34,3.34,0,0,0,116.94,35c0-.17-.17-.36-.32-.2-.34.4-.64.82-1,1.2-.06-.49-.13-1-.18-1.45a.23.23,0,0,0-.06-.12,5.17,5.17,0,0,0,1-1.81.09.09,0,0,0-.15-.09c-.61.58-1.15,1.23-1.76,1.81l-.48.44a9.74,9.74,0,0,0-.47-1,11.37,11.37,0,0,0,1.87-2.12c0-.08-.05-.19-.13-.14-.72.51-1.4,1.06-2.08,1.62a9.09,9.09,0,0,0-.5-.76.24.24,0,0,0-.42.23l.42.95-1,.81a4.7,4.7,0,0,0-1.24-1.09,5.12,5.12,0,0,0,2.37-1.88c.07-.13-.08-.31-.21-.22a31.33,31.33,0,0,1-3,1.76l-.32-.07a11.92,11.92,0,0,0-2-.08,7.93,7.93,0,0,0,2-1.74c.09-.12-.08-.3-.2-.21-1,.69-1.92,1.41-2.94,2-.73,0-1.45.07-2.15,0-1.48,0-3-.18-4.44-.36a11.51,11.51,0,0,0,4-2.27c.1-.09,0-.29-.14-.24-1.73.61-3.37,1.57-5,2.36A16.45,16.45,0,0,1,96.62,32a11.82,11.82,0,0,0,1.77-1,.17.17,0,0,0-.12-.32,13.16,13.16,0,0,0-2.63,1.06c-.61-.17-1.22-.34-1.83-.48a6.09,6.09,0,0,0,1.91-1.38c.1-.12,0-.36-.17-.3a13.42,13.42,0,0,0-2.25,1.18l-.55.29a6,6,0,0,0-2.69.08,12.19,12.19,0,0,0-4.83,3.21,14.9,14.9,0,0,0-.49-4.48c0-.43,0-.85,0-1.28a23.32,23.32,0,0,1,3.87-2.78c5.71-1.33,11.21,1.2,16.83,3.22,5,1.79,10.62,2.8,15.37-.05a3.22,3.22,0,0,1,.4,1A9.64,9.64,0,0,1,120.93,33.33ZM118.23,28a3.81,3.81,0,0,0,.12-.51h0a2.93,2.93,0,0,0,.07.41Zm1.42-3.69a4.36,4.36,0,0,1,.8,1.73l-.52-.16C119.86,25.32,119.76,24.79,119.65,24.28Zm1.61,2-.08,0A5.92,5.92,0,0,0,120,23.85a.24.24,0,0,0-.43.1l-.06-.25c-.06-.34-.57-.21-.52.13a13.38,13.38,0,0,1,.16,1.79l-.25-.09c-.1-.35-.21-.68-.31-1a.37.37,0,0,0-.63-.13c-.16-.51-.34-1-.5-1.4s-.67-.21-.55.13A9.74,9.74,0,0,1,117.4,25l-1.25-.49c-.51-.82-1-1.65-1.61-2.42-.14-.19-.39,0-.31.22.26.58.55,1.15.85,1.71a14.57,14.57,0,0,1-1.33-.75c-2.55-1.6-4.26-2.73-7.35-2.9a41.8,41.8,0,0,0-8.51.4q-1.58.24-3.12.63c.48-.7.88-1.44,1.26-2.09a17.9,17.9,0,0,0,.87-1.69,3.73,3.73,0,0,0,.74,1.82.15.15,0,0,0,.26-.1,7,7,0,0,0-.44-1.93c-.06-.26-.11-.53-.16-.79a7.75,7.75,0,0,0,.46-3.08,6,6,0,0,1,.73,0,.26.26,0,0,0,.22.07l.33,0c2.15.25,3.71,1.48,5.77,2.62a13.48,13.48,0,0,0,5.71,1.67,40.43,40.43,0,0,0,4.27-.17,8,8,0,0,0,1.89.18l.1,0a4.81,4.81,0,0,1,1.59.63C120.57,19.88,122.55,23.79,121.26,26.3Z"/><path class="cls-1" d="M37.65,104.31A8.67,8.67,0,0,0,35,107.43c-.2.38.37.73.56.35a21,21,0,0,1,2.25-3.29C37.86,104.4,37.77,104.23,37.65,104.31Z"/><path class="cls-1" d="M14.55,97.14c2.15-1.33,4.37-2.52,6.6-3.7a.08.08,0,0,0-.07-.14,49.71,49.71,0,0,0-6.69,3.54C14.2,97,14.36,97.25,14.55,97.14Z"/><path class="cls-1" d="M23.66,94.45c-3.16,1.38-6.21,3-9.26,4.59-.15.08,0,.31.13.23,3.12-1.46,6.22-3,9.22-4.66A.09.09,0,0,0,23.66,94.45Z"/><path class="cls-1" d="M25.54,104.8a.4.4,0,0,0,0-.8A.4.4,0,0,0,25.54,104.8Z"/><path class="cls-1" d="M27.61,103.71a6.1,6.1,0,0,0-1.27.53c-.26.12,0,.52.22.4a6.31,6.31,0,0,0,1.21-.63C27.92,103.89,27.77,103.67,27.61,103.71Z"/><path class="cls-1" d="M27.49,110l-.2,0c-.51-.06-.54.83,0,.8l.2,0A.38.38,0,0,0,27.49,110Z"/><path class="cls-1" d="M10,102.05a.35.35,0,0,0-.26.25c0-.06,0-.08,0-.07a.29.29,0,0,0-.17.55,1.27,1.27,0,0,0,.55,0,.38.38,0,0,0,.37-.36c0-.13,0-.26-.12-.35S10.11,102,10,102.05Z"/><path class="cls-1" d="M12.56,96.28a.17.17,0,0,0-.28,0,.36.36,0,0,1-.1.14.34.34,0,0,0,.22.59.35.35,0,0,0,.26-.58A.36.36,0,0,1,12.56,96.28Z"/><path class="cls-1" d="M6.38,106.64a2.93,2.93,0,0,1-.4.19h-.1a.31.31,0,0,0-.57-.17.6.6,0,0,0-.08.43,1.21,1.21,0,0,0,.09.2s.1.22.07.07a.4.4,0,0,0,.28.3.85.85,0,0,0,1-.84A.22.22,0,0,0,6.38,106.64Z"/><path class="cls-1" d="M42.07,95.92l-.63.56s0,.13.07.08l.59-.6S42.09,95.9,42.07,95.92Z"/><path class="cls-1" d="M40.7,113.89c-1.77.36-4.27,1.61-4.92,3.43a0,0,0,0,0,0,0,6.59,6.59,0,0,0,1.22-.87l3-2,.77-.43A.08.08,0,0,0,40.7,113.89Z"/><path class="cls-1" d="M53.87,120.17a26.11,26.11,0,0,0-4.42,2.67c-.29.23.07.7.38.52a26.17,26.17,0,0,0,4.16-3C54.08,120.25,54,120.12,53.87,120.17Z"/><path class="cls-1" d="M54.39,121a12.64,12.64,0,0,0-2.86,2.24c-.35.33.13.8.49.52a12.4,12.4,0,0,0,2.64-2.47C54.79,121.08,54.56,120.89,54.39,121Z"/><path class="cls-1" d="M56.15,122.27c-.4.27-.78.56-1.17.84l-.58.43a3.1,3.1,0,0,0-.34.29s0,0-.05-.06a.34.34,0,1,0-.2.64c.44.1.82-.41,1.08-.67.45-.44.92-.88,1.35-1.35C56.29,122.33,56.23,122.22,56.15,122.27Z"/><path class="cls-1" d="M58.18,119.16c0,.11.1.21.2.21.58,0,1-.73,1.23-1.19a5.06,5.06,0,0,0,.61-1.94.24.24,0,0,0-.15-.27,4.41,4.41,0,0,1,.71-.66c.29-.22-.08-.74-.38-.52-.68.48-1.76,1.42-1.54,2.34a.15.15,0,0,0,.22.1,1.69,1.69,0,0,0,.41-.44A4.24,4.24,0,0,1,59,118C58.71,118.4,58.25,118.69,58.18,119.16Z"/><path class="cls-1" d="M61,118.15a8.26,8.26,0,0,0-2.49,2c-.22.29.22.58.46.36v0a17.39,17.39,0,0,1,1.83-1.62,12.9,12.9,0,0,1-1.41,1.89c-.47.53-1.06,1-1.49,1.55-.14.19.12.42.31.32,1.34-.7,2.36-2.36,3.12-3.61a.25.25,0,0,0-.17-.38l.1-.07C61.52,118.45,61.26,118,61,118.15Z"/><path class="cls-1" d="M49.79,93.68c-.16.09,0,.32.14.25a18.69,18.69,0,0,0,3.86-2.09.07.07,0,0,0-.07-.12A19.49,19.49,0,0,0,49.79,93.68Z"/><path class="cls-1" d="M58.68,93.24c-1.2.36-2.36.82-3.55,1.23-.21.07-.21.45,0,.42a5.94,5.94,0,0,0,3.58-1.5C58.82,93.33,58.76,93.21,58.68,93.24Z"/><path class="cls-1" d="M81.75,94.15a19.52,19.52,0,0,0-4,3.14c-.32.31.12.74.45.48a19.9,19.9,0,0,0,3.66-3.5C81.92,94.2,81.82,94.11,81.75,94.15Z"/><path class="cls-1" d="M80.16,98.59a12.2,12.2,0,0,0-2.2,2.34.29.29,0,0,0,.45.36,12.09,12.09,0,0,0,1.91-2.57A.1.1,0,0,0,80.16,98.59Z"/><path class="cls-1" d="M79.78,101.28c-.15.25-.29.52-.44.78-.06.11-.13.24-.18.36s0,.2,0,.34a.13.13,0,0,0,.24.1c.06-.08.14-.12.19-.21a2,2,0,0,0,.16-.43c.08-.28.18-.57.26-.86A.1.1,0,0,0,79.78,101.28Z"/><path class="cls-1" d="M46,64.14c-.21.21.08.49.3.33a19,19,0,0,0,4.22-3.83c.09-.11-.07-.25-.18-.19A19.14,19.14,0,0,0,46,64.14Z"/><path class="cls-1" d="M74.51,54.64a27.38,27.38,0,0,0-4.82,4.68c-.18.21.11.53.3.32C71.5,58,73.1,56.4,74.63,54.77,74.72,54.69,74.6,54.57,74.51,54.64Z"/><path class="cls-1" d="M70.75,57.38a18.37,18.37,0,0,0,3.32-3.56c.12-.17-.12-.32-.26-.22a18.48,18.48,0,0,0-3.4,3.5C70.26,57.31,70.57,57.52,70.75,57.38Z"/><path class="cls-1" d="M102.52,55.58a.18.18,0,0,0-.34.13c.07.3.13.6.18.89a6.43,6.43,0,0,0-.68-.86c-.22-.23-.66.06-.46.34a9.49,9.49,0,0,1,1.17,2.31c0,.18-.06.36-.1.55A13.9,13.9,0,0,1,101,61.61c-.07.16.08.37.25.26a3.54,3.54,0,0,0,1.52-2c.06.3.13.6.18.91a.17.17,0,0,0,.32,0,5.18,5.18,0,0,0-.23-2.75A5.44,5.44,0,0,0,102.52,55.58Z"/><path class="cls-1" d="M70,38.62h0c-.49.21,0,.63.43.39a9.75,9.75,0,0,0,2.11-2.36c.71-.87,1.38-1.76,2-2.68,0,0,0-.11-.08-.07-.84.82-1.66,1.65-2.45,2.51a28.32,28.32,0,0,0-2,2.25Z"/><path class="cls-1" d="M107.65,35.29c.08-.14-.08-.33-.23-.23a11.26,11.26,0,0,1-3.2,1.73,8.54,8.54,0,0,1-4,.05c-.1,0-.19.13-.08.18C102.5,38.22,106.16,37.72,107.65,35.29Z"/><path class="cls-1" d="M107.73,36.62c.12-.19-.17-.36-.29-.18a7.3,7.3,0,0,1-2.3,2.09c-.77.46-1.65.67-2.43,1.08a.15.15,0,0,0,.07.28C104.86,40.15,106.76,38.23,107.73,36.62Z"/><path class="cls-1" d="M108,37.52a0,0,0,0,0,0,0c-.62.41-1.16.94-1.75,1.4s-1.39.75-1.78,1.37a.15.15,0,0,0,.13.22,3.34,3.34,0,0,0,2-1.11A5.31,5.31,0,0,0,108,37.52Z"/><path class="cls-1" d="M108.33,39.35c.15-.29-.27-.56-.43-.27a4.6,4.6,0,0,1-.82,1.08A9.24,9.24,0,0,1,106,41a.3.3,0,0,0,.29.53A4.67,4.67,0,0,0,108.33,39.35Z"/><path class="cls-1" d="M108.35,38.94a2.53,2.53,0,0,1-.31,2c-.34.52-.88.71-1.26,1.15-.06.07,0,.22.08.21.62,0,1.1-.76,1.32-1.28a3.32,3.32,0,0,0,.23-2.08S108.34,38.91,108.35,38.94Z"/><path class="cls-1" d="M91,37.13c-2.32-.77-5.1.81-6.52,2.57-.16.19.16.43.33.27A8.41,8.41,0,0,1,88,38a20.9,20.9,0,0,1,3-.52A.2.2,0,0,0,91,37.13Z"/><path class="cls-1" d="M88,36.78c.74-.27,1.49-.49,2.2-.82a.14.14,0,0,0-.06-.26,8.59,8.59,0,0,0-4.65,1.84c-.07.05,0,.16.07.14C86.4,37.45,87.19,37.07,88,36.78Z"/><path class="cls-1" d="M105.91,30.4a17.61,17.61,0,0,0-3.7,1.87.23.23,0,0,0,.22.41A18.86,18.86,0,0,0,106,30.6.12.12,0,0,0,105.91,30.4Z"/><path class="cls-1" d="M65.78,26.11a24.46,24.46,0,0,0,10.49-2.72c.2-.12.08-.45-.14-.38a56.48,56.48,0,0,1-10.41,2.54C65.41,25.58,65.47,26.13,65.78,26.11Z"/><path class="cls-1" d="M67.89,24.23a14.48,14.48,0,0,0,7.84-1.37.2.2,0,0,0-.14-.36,38.24,38.24,0,0,1-7.69,1.27A.23.23,0,0,0,67.89,24.23Z"/><path class="cls-1" d="M82.62,16A5.84,5.84,0,0,0,84.44,16a.16.16,0,0,0,0-.31,5.8,5.8,0,0,0-1.81-.17A.28.28,0,0,0,82.62,16Z"/><path class="cls-1" d="M106.39,22.73c-.84.44-1.58,1.05-2.44,1.48-.69.34-1.76.48-2.28,1.07,0,0,0,0,0,0,.74.36,1.78-.15,2.47-.45a5.91,5.91,0,0,0,2.5-1.87A.19.19,0,0,0,106.39,22.73Z"/><path class="cls-1" d="M58.14,100.28c-.75.4-1.49.81-2.22,1.22,0-.06,0-.12,0-.19h0l0,.21-1.23.69a.35.35,0,0,0-.12.07l-1.21.69c-.11-.24-.22-.47-.34-.7a9.74,9.74,0,0,0,3.95-2.92c.09-.12-.08-.31-.21-.22-.79.55-1.52,1.16-2.32,1.7-.54.36-1.1.67-1.66,1l-.24-.42a.3.3,0,0,0-.08-.08,6.31,6.31,0,0,0,2.35-1.8c.1-.12-.09-.25-.2-.16a10.56,10.56,0,0,1-5.25,2.75s0,.06,0,.06a12.35,12.35,0,0,0,2.63-.66.22.22,0,0,0,0,.17l.25.44-.33.19c-.13.09-.06.32.11.27l.41-.12c.13.25.26.51.37.77-.43.24-.86.48-1.3.71s-.06.62.26.48.87-.38,1.3-.59a23.6,23.6,0,0,1,1,3.38c0,.09.17.08.17,0a9.74,9.74,0,0,0-.68-3.62c.33-.16.65-.32,1-.5a4.19,4.19,0,0,0,1,2.5.14.14,0,0,0,.24-.13,9.78,9.78,0,0,0-.5-1.5,7.64,7.64,0,0,1-.26-1.15l.89-.52a8.7,8.7,0,0,0,.88,3.25.08.08,0,0,0,.15-.06c-.26-1.1-.65-2.17-.92-3.26a20.58,20.58,0,0,0,2.28-1.64C58.53,100.45,58.32,100.19,58.14,100.28Z"/><path class="cls-1" d="M51.16,99.68a0,0,0,1,0,0,.06A0,0,0,0,0,51.16,99.68Z"/><path class="cls-1" d="M26.69,102.18a.22.22,0,0,0,.37-.2,5.91,5.91,0,0,0-.61-1.51c.29-.19.58-.39.85-.6a0,0,0,0,0,0,0,5,5,0,0,0,1.11,1.5.2.2,0,0,0,.33-.08c.05-.18.23-1.17.4-1.17s.28,1.28.28,1.44a.05.05,0,0,0,.1,0,2.81,2.81,0,0,0-.11-1.3.21.21,0,0,0,.28-.07,2.61,2.61,0,0,0,.17-1.68c0-.3-.57-.32-.62,0a3.67,3.67,0,0,0-.07,1.28,0,0,0,0,0-.06,0,10.17,10.17,0,0,1-.55,1c-.27-.51-.64-1-.92-1.49a13.49,13.49,0,0,1-1-2.12.15.15,0,0,0-.05-.06l1.5-1a.14.14,0,0,0-.13-.24c-1.07.48-2.14,1-3.2,1.58l-.58-1,.09-.06a.17.17,0,0,0-.16-.29l-.11,0-.15-.25a.21.21,0,0,0-.36.2,1.63,1.63,0,0,1,.11.23,40.63,40.63,0,0,0-6.34,3.57.15.15,0,1,0,.15.26,40.93,40.93,0,0,0,6.38-3.44c.16.34.31.68.48,1a35.66,35.66,0,0,0-4.08,2.59c-.19.14,0,.42.24.32,1.4-.71,2.78-1.49,4.14-2.31.16.34.33.67.5,1s.3.64.45,1c-.51.28-1,.58-1.52.87-.32.17,0,.68.27.5l1.5-.86A5.4,5.4,0,0,0,26.69,102.18Zm-1.58-4.1,1.26-.77a16.57,16.57,0,0,0,.82,2.28s0,0,0,0a10.19,10.19,0,0,0-.95.43c-.19-.31-.37-.63-.54-.93S25.3,98.41,25.11,98.08Z"/><path class="cls-1" d="M51,61.15a0,0,0,1,0,0,.06A0,0,0,1,0,51,61.15Z"/><path class="cls-1" d="M63.54,23.47l.19,0a.86.86,0,1,0,0-1.66l-.19,0A.84.84,0,0,0,63.54,23.47Z"/><path class="cls-1" d="M68.26,21.51a.5.5,0,0,0,.36-.84s0,0,0,0a.35.35,0,0,0-.66,0v0A.5.5,0,0,0,68.26,21.51Z"/><path class="cls-1" d="M48.27,50a.74.74,0,0,0,0-1.47A.74.74,0,0,0,48.27,50Z"/><path class="cls-1" d="M51.81,50.8l0-.07a.38.38,0,0,0-.51-.54l-.08,0a.46.46,0,1,0,.56.58Z"/><path class="cls-1" d="M41.51,47.72a.71.71,0,0,0,0-1.42A.71.71,0,0,0,41.51,47.72Z"/><path class="cls-1" d="M39.11,72.24a.69.69,0,0,0,0-1.38A.69.69,0,0,0,39.11,72.24Z"/><path class="cls-1" d="M51.49,75.09a0,0,0,0,0,0,.06S51.53,75.09,51.49,75.09Z"/><path class="cls-1" d="M43.56,72.28l.19,0c.81.06.85-1.29,0-1.26h-.2A.62.62,0,0,0,43.56,72.28Z"/><path class="cls-1" d="M46.84,71.55a.7.7,0,0,0,0-1.39A.7.7,0,0,0,46.84,71.55Z"/><path class="cls-1" d="M32.9,71.75a.66.66,0,0,0,0-1.31A.66.66,0,0,0,32.9,71.75Z"/><path class="cls-1" d="M28.52,70.11l.58-.52a5.26,5.26,0,0,1,.63-.62s0-.09,0,0a6.27,6.27,0,0,1-.66.6l-.55.55A0,0,0,1,0,28.52,70.11Z"/><path class="cls-1" d="M69.23,76.83a.22.22,0,0,0,0,.44A.22.22,0,0,0,69.23,76.83Z"/><path class="cls-1" d="M67.37,70.94c-.19-.11-.43.16-.26.33,1.74,1.67,3.61,3.19,5.3,4.91s3.24,3.59,4.9,5.34a.23.23,0,0,0,.37-.27A30.81,30.81,0,0,0,67.37,70.94Z"/><path class="cls-1" d="M72.46,71.38a.29.29,0,0,0-.42.4A89.59,89.59,0,0,1,79.35,81c.08.11.25,0,.19-.1A37,37,0,0,0,72.46,71.38Z"/><path class="cls-1" d="M77.36,74s0,0,0,0c.82,1.52,1.54,3.11,2.48,4.55a.09.09,0,1,0,.16-.09C79.23,76.88,78.24,75.45,77.36,74Z"/><path class="cls-1" d="M25.6,111.3a.77.77,0,0,0-1.05,0,.78.78,0,0,0-.21.46.51.51,0,0,0-.17.16.7.7,0,0,0,.11.86.87.87,0,0,0,1,.25A1,1,0,0,0,25.6,111.3Z"/><path class="cls-1" d="M19.53,82.22a1.41,1.41,0,0,1,0-.2.52.52,0,0,0-1,0c0,.07,0,.13,0,.2C18.42,82.86,19.55,82.89,19.53,82.22Z"/><path class="cls-1" d="M22.47,85.7a.65.65,0,0,0,0-1.29A.65.65,0,0,0,22.47,85.7Z"/><path class="cls-1" d="M83,77.42a.57.57,0,0,0-1,0l-.09.13c-.86,1.21,2,1.28,1.15,0Z"/><path class="cls-1" d="M82.69,55.42a.66.66,0,1,0,0,1.27c.32,0,.8-.22.81-.61S83,55.48,82.69,55.42Z"/><path class="cls-1" d="M88.51,56.69a.57.57,0,0,0-.82.78,1.29,1.29,0,0,0,.32.34c.46.35,1.15-.3.83-.79A1.72,1.72,0,0,0,88.51,56.69Z"/><path class="cls-1" d="M94,35.42A.77.77,0,0,0,94,37,.77.77,0,0,0,94,35.42Z"/><path class="cls-1" d="M93,26.5A.77.77,0,0,0,93,28,.77.77,0,0,0,93,26.5Z"/><path class="cls-1" d="M98.88,15.2a.23.23,0,0,0-.4-.07c0-.28-.09-.55-.12-.83s-.53-.24-.51,0a17.28,17.28,0,0,0,.73,4.17.27.27,0,0,0,.53-.13h0c-.16-.94-.38-1.85-.55-2.78l.33.91a2,2,0,0,0,.46.94c.06.05.18.05.19-.05a1.89,1.89,0,0,0-.23-1C99.18,16,99,15.61,98.88,15.2Z"/><path class="cls-1" d="M100,14.94a0,0,0,0,0-.06,0c.17.56.38,1.11.55,1.67A5.51,5.51,0,0,0,101,18.1a.13.13,0,0,0,.23-.09,5.68,5.68,0,0,0-.57-1.46C100.43,16,100.22,15.47,100,14.94Z"/></g></g></g></svg>