<svg xmlns="http://www.w3.org/2000/svg" viewBox="0 0 105.17 112.12"><defs><style>.cls-1{fill:#5a5a68;}</style></defs><g id="Capa_2" data-name="Capa 2"><g id="_1" data-name="1"><g id="_5" data-name="5"><path class="cls-1" d="M101.94,43.71c3.14-5.13,3.51-11.59,3.09-17.53a20.94,20.94,0,0,0-1.53-10A18.49,18.49,0,0,0,90.43.74C81.3-2,74.28,3.44,66.93,8c-1.69,1-3.44,2-5.22,2.93-1.57.79-3.33,1.09-5,1.76C53.17,14.08,49.6,15.43,46.11,17c-9,4-18,8.37-26,14.16C13,36.3,6.58,42.86,3.3,51.15A38.13,38.13,0,0,0,1,60.79a115.07,115.07,0,0,0-.91,18c.13,3.66,0,7.46.85,11C2.16,95.1,6,99,10.43,101.93,20.6,108.76,31.82,112.57,44,112.07s25.67-4.52,34-13.71A140.08,140.08,0,0,0,89.94,82.78c3.49-5.18,4.69-10.71,5.13-17,.28-4,0-8.11,1-12S99.85,47.11,101.94,43.71Zm-.68-29.61a.56.56,0,0,0,.06.41,3.54,3.54,0,0,1,.16.34,16.93,16.93,0,0,1,.39,7.18,17.14,17.14,0,0,1-3,7,.36.36,0,0,0-.18.08c-3.69,3.38-6.9,7.18-11,10.16a28.67,28.67,0,0,1-14.9,5.68c-5.37.41-10.39-.77-15.54-2.14-4-1.07-8-1.92-12.08-1.07C50.73,34.91,61.86,37.46,67.54,31a13.21,13.21,0,0,0,1.91,2.46c-1,1.2-2,2.38-3,3.54-1.75.32-3.48.78-5.21,1.19-.2,0-.16.36,0,.31,1.63-.38,3.28-.74,4.9-1.19-.11.13-.23.26-.34.4-.64.71-1.31,1.4-2,2.11-1.77.45-3.56.85-5.38,1.14-.22,0-.18.38,0,.35,1.61-.22,3.21-.51,4.8-.89a17.11,17.11,0,0,0-1.22,1.48c-.09.12.06.31.2.21a23.55,23.55,0,0,0,2.16-2c.51-.13,1-.28,1.5-.44a21.46,21.46,0,0,0-1.68,2.15c-.07.1,0,.26.16.17a25.88,25.88,0,0,0,2.48-2.64c.42-.15.84-.3,1.25-.47a.13.13,0,0,0-.09-.24l-.75.21c.61-.74,1.21-1.48,1.82-2.19.14-.16-.11-.36-.26-.2-.77.88-1.61,1.74-2.42,2.64l-1.43.39c1.68-1.83,3.2-3.89,4.65-5.79,2.8,2.75,6.76,4.35,10.18,3.14h0C85.8,36.09,91.75,31,93.25,25.42a8.85,8.85,0,0,0-2.38-8.74,7.81,7.81,0,0,0-2.18-1.38A12.51,12.51,0,0,0,92,3.51,17.83,17.83,0,0,1,101.26,14.1ZM83.49,61.26a35.56,35.56,0,0,1-4.63,13.33c-5.27,5.44-13.8,4.69-21.16,2.5C59.62,76,61.54,75,63.44,73.85c1-.09,2-.19,3-.31-1.16.62-2.32,1.27-3.46,1.93l-2.58.26a.15.15,0,0,0,0,.29l1.9-.18-1.53.87c-.19.11,0,.43.18.33l2.41-1.31c1.38-.13,2.76-.27,4.14-.43L63.4,77.55s0,.09,0,.07a28.61,28.61,0,0,0,5.34-2.47l.78-.1c.09,0,.07-.14,0-.14l-.4,0c1-.63,2-1.31,3-2,.09-.07,0-.2-.11-.14q-2,1.16-4,2.23c-1.33.1-2.66.22-4,.35,1.2-.65,2.38-1.31,3.55-2l.16,0a.15.15,0,0,0,.14-.16l1.47-.89c.12-.08,0-.28-.11-.22-.64.31-1.26.63-1.89,1-.91,0-1.83,0-2.75.12,1.18-.71,2.36-1.43,3.52-2.18.06,0,0-.15-.06-.11-1.39.75-2.75,1.53-4.11,2.33-1.23.09-2.45.21-3.68.34a80.08,80.08,0,0,0,8.26-5.08c.1-.07,0-.26-.11-.2-3.22,1.75-6.39,3.6-9.57,5.42q-1.29.14-2.58.24a.22.22,0,0,0,0,.43l1.55-.11-3,1.69a.16.16,0,0,0,0,.26c-1.09-.39-2.15-.8-3.14-1.21a26.6,26.6,0,0,1-2.93-1.45,37.77,37.77,0,0,0,4-2,27.57,27.57,0,0,0,3.69-.7C55,71.81,53.47,72.86,52,74c0,0,0,.05,0,0,1.95-1.09,3.86-2.33,5.73-3.61l.32-.09c.06,0,0-.11,0-.14,1-.68,2-1.37,2.94-2.06.09-.06,0-.18-.1-.13-1.25.77-2.51,1.56-3.76,2.37-1.14.23-2.28.42-3.43.57.88-.53,1.74-1.09,2.58-1.67l1.06-.12a.06.06,0,0,0,0-.11l-.77,0c.86-.6,1.71-1.22,2.52-1.84a.1.1,0,0,0-.12-.16c-1.09.7-2.18,1.38-3.29,2-1.68.1-3.36.19-5.05.26l1.79-.93,2.75-.19c.13,0,.13-.22,0-.24-.56-.06-1.14-.09-1.72-.12,1.83-1,3.64-2,5.4-3,.05,0,0-.13,0-.1-1.85,1-3.68,2.1-5.52,3.15a27.44,27.44,0,0,0-3.73.15,60.35,60.35,0,0,0,5.33-3.47c.09-.07,0-.19-.1-.14-2.15,1.33-4.4,2.53-6.61,3.79-.93.14-1.84.31-2.72.53a0,0,0,0,0,0,.09l1.83-.12c-.75.44-1.5.89-2.23,1.36a0,0,0,0,0,0,.05c.43-.15.85-.32,1.28-.5a.17.17,0,0,0,.16.2c1.12,0,2.25,0,3.37-.08-.79.42-1.59.83-2.4,1.22,0,0,0,.07,0,.05L50,69.77c1.79-.07,3.58-.19,5.36-.38l-2.78,1.7a40.94,40.94,0,0,1-5.65.2c-.2,0-.26.31,0,.33a31.4,31.4,0,0,0,4.85,0c-1,.61-2,1.22-2.94,1.85-2.89-1.65-5.49-3.73-8.26-5.59a37,37,0,0,0,3.81-2.06q1.66,0,3.33,0c-1.83,1-3.73,1.89-5.48,3,0,0,0,0,0,0a46,46,0,0,0,6.45-3c1,0,2-.05,3-.11.12,0,.09-.18,0-.18-.82,0-1.63,0-2.44,0,1.72-1,3.4-2,5-3,.08-.05,0-.19-.08-.14-2,1-3.94,2.13-5.91,3.2l-3.57.14c1.47-.91,2.89-1.9,4.25-2.91a.05.05,0,1,0-.06-.08c-1.58,1.05-3.19,2-4.81,3l-2,.09s0,.06,0,.06h1.76l-3.29,2c-.63-.42-1.27-.83-1.92-1.22l-.27-.16A38.12,38.12,0,0,0,44.72,63c.07-.06,0-.16-.09-.12a69.48,69.48,0,0,1-6.43,3.56c-.53-.31-1.1-.63-1.71-1a99.08,99.08,0,0,0,8.68-4.95c.09-.06,0-.21-.09-.16a99.75,99.75,0,0,0-8.65,5.07,20,20,0,0,0-6.82-2.28c3.58-1.34,5.45-4.64,6.83-8.49,1.2-3.35,2.74-6.25,6.23-7.62,3.14-1.23,6.58-1,9.81-.3,6.18,1.32,11.84,3.57,18.27,3.39A35.24,35.24,0,0,0,86.4,45.89l-.21.59C84.61,51.28,84.23,56.29,83.49,61.26ZM23.16,88.21a43.54,43.54,0,0,0,5.21-1.14,47,47,0,0,1,7.09,1.82c3.55,1.24,7.24,3.63,11,4.55a46,46,0,0,1-21.34-4,44.21,44.21,0,0,1-6.37-3.54,6.57,6.57,0,0,1,.66,0c.7,0,1.42.13,2.12.21,1.41.14,2.82.31,4.22.51l1.6.25c-1.45.22-2.87.53-4.29.87C22.84,87.83,22.88,88.26,23.16,88.21Zm18.11,2.08a59.34,59.34,0,0,0-7-2.81,70.34,70.34,0,0,0-16.75-2.59.2.2,0,0,0-.11,0,36.39,36.39,0,0,1-2.88-2.35,12.55,12.55,0,0,0,2-.1s0,0,0,0l0,0c.82-.09,1.65-.22,2.48-.27s2-.06,2.92,0c-.33.34-.65.69-.95,1.06,0,0,0,.06,0,0,.47-.35.92-.72,1.38-1.09a33.66,33.66,0,0,1,3.47.33c4.57.68,8.87,2.43,13.1,4.22,5.28,2.24,10.9,4.72,16.68,5.24A43.65,43.65,0,0,1,50,93.1,48.42,48.42,0,0,1,41.27,90.29ZM21.25,81,24,80.27l-.91.82C22.48,81,21.87,81,21.25,81Zm4.93.45.41-.09-.18.13Zm9.46,2.69a45.74,45.74,0,0,0-8.85-2.58l.45-.34,2.35-.5c-.32.25-.64.52-.95.79s.05.51.25.34a17.22,17.22,0,0,1,1.64-1.32l4.06-.8a.08.08,0,0,0,0-.16c-1.11.13-2.22.29-3.32.47.57-.38,1.16-.73,1.77-1.07.13-.07.06-.28-.09-.22a13.54,13.54,0,0,0-2.63,1.46c-.76.13-1.53.28-2.29.44,1.73-1.3,3.45-2.61,5.11-4,.07-.06,0-.17-.08-.12-1.95,1.35-3.84,2.8-5.72,4.25-.76.16-1.51.33-2.27.51l-.44,0-.91-.09L25.07,80c1.59-.43,3.17-.87,4.76-1.33.06,0,0-.13,0-.11-1.41.31-2.8.64-4.2,1,1.15-1,2.29-2,3.47-2.93.07,0,0-.16-.08-.11-1.48,1-3,2.11-4.4,3.28C23,80.14,21.5,80.54,20,81c-.58,0-1.16,0-1.74.08C19.36,80,20.47,79,21.64,78c1.72-1.48,3.51-2.88,5.25-4.34a.13.13,0,0,0-.16-.21,48.45,48.45,0,0,0-9.08,7.69,10.13,10.13,0,0,0-3.6,1.05c-.32-.29-.62-.59-.92-.89,1.43-1.47,2.93-2.85,4.48-4.19.06,0,0-.15-.07-.1A43.61,43.61,0,0,0,13,81.07,26.25,26.25,0,0,1,5.78,68.32,26.26,26.26,0,0,1,13.51,66a21.8,21.8,0,0,0-6,5.91s0,.1.09.07a35.21,35.21,0,0,0,2.85-2.75c1.15-1.12,2.34-2.2,3.53-3.28,10.61-1.26,21,4,30.7,8.92,8.24,4.17,21.8,11.14,30.59,4.77A38.65,38.65,0,0,1,59.15,90.83C50.76,91,43.42,87.15,35.64,84.12Zm22-7.05c-.9-.27-1.78-.56-2.63-.86h0c1.35-.66,2.72-1.35,4.07-2.06l3.63-.24C61.05,74.93,59.35,76,57.65,77.07Zm-7-7.68c-1.33.06-2.65.11-4,.14.6-.26,1.19-.55,1.77-.85l3.88-.22C51.8,68.78,51.24,69.09,50.68,69.39Zm16.75-20c-6.42-.34-12.22-3.62-18.59-4-3.89-.23-8.14.75-10.7,3.91-1.6,2-2.2,4.49-3.08,6.82-1.45,3.81-4,6.45-8.14,7.18a.24.24,0,0,0,0,.47,1.75,1.75,0,0,0,.24,0,4.38,4.38,0,0,0,.48.29c2.72.85,5.41.83,8.1,2.14a52.49,52.49,0,0,1,7.55,4.91,42.41,42.41,0,0,0,14.3,6.82c4.9,1.32,11.84,2.74,17.15.95-5.3,3.65-12.52,2.33-18.31.33-6.79-2.33-13-6-19.48-9-9.3-4.36-21.81-8-31.3-2.18a24.45,24.45,0,0,1-.36-2.59c0-.34,0-.67,0-1a.42.42,0,0,0,.28.11l1.67,0a.07.07,0,0,0,.1,0h0C13,64.33,18.83,63.75,24,61.6c5.72-2.38,9.19-6.79,12.1-12.1,3.51-6.4,6.52-12.69,13.82-15.39,5.49-2,11.39-2.53,16.65-5.16a10.51,10.51,0,0,0,.71,1.57c-6.59,6.33-18.25,3.74-23.61,11.69a.5.5,0,0,0,.56.77c5.83-1.77,11.55.58,17.2,1.93a35.55,35.55,0,0,0,14.84.57A33.18,33.18,0,0,0,91.07,38a27.53,27.53,0,0,0-4.15,6.55.56.56,0,0,0-.19.07A34.91,34.91,0,0,1,67.43,49.35ZM12.83,57.6l1.51-.43q-3.11,3.22-6.29,6.37l-2.57.16a.47.47,0,0,0-.2.07V63.7c2.5-2.64,4.85-5.51,7.1-8.42,1.51-.2,3-.45,4.52-.78l-2.15,2.25-2,.6C12.56,57.4,12.66,57.64,12.83,57.6ZM71.58,21.44A19.47,19.47,0,0,0,68.9,23a9,9,0,0,1,.76-1.36c1.07-.62,2.17-1.25,3.23-1.91,0,0,0,0,.06,0a25.67,25.67,0,0,0,5.42-2.71.09.09,0,0,0-.09-.16,32,32,0,0,0-4.15,2,.15.15,0,0,0-.18-.13,16.8,16.8,0,0,0-3.42,1.82A9.46,9.46,0,0,1,72,19.23c1.21-.59,2.41-1.22,3.6-1.86A23.9,23.9,0,0,1,82,16.09a11.12,11.12,0,0,1,6.41,1.17c-1.28.46-2.54,1-3.85,1.34a8.78,8.78,0,0,0-2.34.18c.3-.19.6-.38.88-.58A.1.1,0,0,0,83,18c-2,.75-4,1.55-5.85,2.48a.23.23,0,0,0,.17.42l.25-.07c-.34.24-.68.5-1,.76l-2.79,1.22a.16.16,0,0,0,.11.29,14.65,14.65,0,0,0,1.81-.69,11.59,11.59,0,0,0-3,5,36.85,36.85,0,0,0-3.6,1.69q-.18-.39-.33-.78c.42-.21.83-.45,1.23-.66.75-.4,1.49-.84,2.2-1.31.1-.06,0-.22-.1-.17q-1.29.57-2.52,1.26c-.31.17-.63.34-.93.52a7.44,7.44,0,0,1-.2-.78c.82-.56,1.65-1.1,2.48-1.65a.07.07,0,0,0-.07-.13,17.81,17.81,0,0,0-2.48,1.41,6.73,6.73,0,0,1,0-1.68h0a10,10,0,0,0,2.73-1.9c.11-.11,0-.24-.16-.18-.86.48-1.69,1-2.53,1.55a7.64,7.64,0,0,1,.24-.91,22.81,22.81,0,0,0,3.11-2C71.83,21.59,71.74,21.37,71.58,21.44Zm18.06-3.2a6.28,6.28,0,0,1,1.12,1.59,8.33,8.33,0,0,1,.8,4.06,8.37,8.37,0,0,0-3.85-4.41l0,0a11.23,11.23,0,0,0,1.93-1.05A.14.14,0,0,0,89.64,18.24ZM72.37,29.12A11.86,11.86,0,0,0,71,30c-.34.24-.69.48-1,.75a10.28,10.28,0,0,1-.84-1.37,37.31,37.31,0,0,0,3.43-1.66A8.4,8.4,0,0,0,72.37,29.12Zm-1.06,1.25c.36-.24.71-.5,1-.77,0,.24,0,.49,0,.73a10.61,10.61,0,0,0-1.86,1.07l-.27-.35C70.61,30.85,71,30.6,71.31,30.37Zm1.12.42c0,.2.06.39.1.59a8.42,8.42,0,0,0,.41,1.32c-.21.16-.41.32-.63.46A13.52,13.52,0,0,1,71,31.89,11.49,11.49,0,0,0,72.43,30.79ZM73.06,33a7.8,7.8,0,0,0,.65,1.17,11.25,11.25,0,0,1-1.06-.75A2.33,2.33,0,0,0,73.06,33Zm1-3.2a9.19,9.19,0,0,1,3.79-7.16c2.29-1.71,5.63-2.95,8.45-1.86s5.15,4.91,4,8-6,5.37-9,6c-2,.45-3.79,1.21-5.49-.38A6.49,6.49,0,0,1,74,29.81ZM89.46,18.16a13,13,0,0,0-2.36,1,8,8,0,0,0-1.2-.4,10.31,10.31,0,0,0,2.88-1.28,7.79,7.79,0,0,1,.78.64A.17.17,0,0,0,89.46,18.16ZM91.1,3.1a13.85,13.85,0,0,1,.42,5.75,14.48,14.48,0,0,1-3,6.38,12,12,0,0,0-3.68-.8c3.71-2.71,5.64-7.87,3.5-12.19A16.19,16.19,0,0,1,91.1,3.1Zm-24,6.64c1-.7,2.06-1.41,3.08-2.1,3.12-2.15,6.19-4.16,10-5.18-3.43,3.59-7,7.12-10.12,11a.11.11,0,0,0,.17.14c3.6-3.51,6.85-7.38,10.17-11.15a17.41,17.41,0,0,1,4.11-.56A16.91,16.91,0,0,1,87.26,2c1.24,3,1.77,5.94.11,9a8.63,8.63,0,0,1-3.25,3.34,21.74,21.74,0,0,0-2.81.1C74.86,15.08,66.2,18.06,66,25.86a8.49,8.49,0,0,0,.29,2.28C61,30.88,54.84,31.32,49.21,33.38s-9.15,5.76-11.81,11C34.19,50.76,31.63,57,24.81,60.27,19.68,62.72,14,63.17,8.42,63.52A88.81,88.81,0,0,0,15.15,57l3.41-1c-.54.46-1.06.93-1.58,1.4l-1.78.53c-.24.07-.1.42.14.36l1-.28c-1.66,1.56-3.29,3.17-5,4.74a0,0,0,1,0,0,0,69.91,69.91,0,0,1,5.39-4.91c1.18-.33,2.36-.67,3.53-1-.93.79-1.88,1.57-2.83,2.32-.73.2-1.46.39-2.2.56-.33.07-.27.61.07.53L16.44,60l-.34.28.4-.3c1.49-.36,3-.76,4.43-1.23-1.05.92-2.11,1.83-3.2,2.71-.17.14,0,.41.2.28,1.45-1.09,2.88-2.22,4.26-3.4,1.18-.42,2.34-.87,3.49-1.38a.14.14,0,0,0-.1-.26l-2.45.8a56.27,56.27,0,0,0,5.86-6c.05-.06,0-.15-.09-.1-2.3,2.2-4.62,4.37-7,6.48-1.41.44-2.83.86-4.27,1.25,1-.79,2-1.58,3-2.4,1-.28,1.93-.58,2.88-.91.14,0,.08-.28-.06-.24-.69.16-1.37.34-2.05.52a76.45,76.45,0,0,0,5.78-5.34s0-.06,0,0c-2,1.85-4,3.69-6.12,5.47-1.18.32-2.36.67-3.53,1l1.72-1.45c1.1-.32,2.19-.65,3.28-1,.11,0,.06-.24-.05-.21-.88.22-1.75.46-2.62.7l1.28-1.1c.1-.09,0-.26-.13-.18-.64.48-1.25,1-1.85,1.48-1.21.34-2.42.69-3.62,1,.64-.7,1.27-1.42,1.89-2.14A40.56,40.56,0,0,0,25,51.87a.11.11,0,0,0-.08-.2c-2.3.78-4.6,1.5-6.93,2.09.66-.78,1.32-1.57,2-2.36a.07.07,0,0,0-.1-.09c-.78.87-1.58,1.73-2.38,2.58-1.57.39-3.15.72-4.76,1,.86-1.11,1.71-2.24,2.54-3.35a.1.1,0,1,0-.15-.12A138,138,0,0,0,5.29,63.18c.16-5.12,2.41-9.58,5.14-14a90.61,90.61,0,0,1,9.24-12.92c7.81-8.7,18.52-12.66,29-17-1,1-2,2-3,3-2,.31-3.92.59-5.9.79a0,0,0,0,0,0,.06c1.9-.2,3.81-.42,5.7-.68-1.39,1.32-2.83,2.59-4.29,3.83-1,.21-1.91.42-2.87.61-.22,0-.18.38,0,.34l2.2-.41q-1.65,1.39-3.33,2.76a.08.08,0,0,0,.1.13c1.3-.95,2.56-2,3.78-3,1.21-.23,2.43-.48,3.64-.75-.88.84-1.76,1.69-2.62,2.55-1.29.22-2.59.42-3.9.57a.16.16,0,0,0,0,.32c1.15-.13,2.29-.28,3.43-.46-.49.5-1,1-1.46,1.51-2.44.49-4.88,1-7.34,1.34-.22,0-.18.38,0,.35,2.33-.34,4.67-.69,7-1.1h0c3.06-.54,6.11-1.16,9.11-1.93,0,.06.08.11.13.06L49.4,29c.91-.24,1.82-.49,2.72-.75.15,0,.09-.31-.07-.28l-2,.41c.75-.68,1.48-1.38,2.2-2.08L53,26c.11,0,0-.2-.07-.17l-.35.1c3.54-3.51,6.84-7.28,10.2-11,0,0,0-.06,0,0-3.54,3.86-7.33,7.48-11,11.23-1.21.35-2.42.67-3.63,1Q49.58,25.76,51,24.3l.88-.27c.13,0,.08-.26-.05-.23l-.45.1c3.19-3.37,6.28-6.83,9.41-10.26C62.24,12,65.28,11,67.14,9.74ZM45.94,29.23c-1.7.36-3.41.72-5.12,1.06.57-.5,1.13-1,1.69-1.53,1.55-.26,3.09-.58,4.61-1l-1.19,1.28A.1.1,0,0,0,45.94,29.23Zm1.73-1.55c1.27-.33,2.52-.69,3.76-1.1-.6.62-1.2,1.24-1.79,1.88l-3.51.73Zm-.11-.35c-1.51.37-3,.7-4.58,1,.92-.86,1.82-1.73,2.71-2.61,1.52-.35,3-.73,4.53-1.17C49.33,25.46,48.44,26.39,47.56,27.33Zm-2.11-2.06-3.68.85q2.05-1.82,4-3.75c1.12-.16,2.24-.33,3.36-.52Q47.29,23.55,45.45,25.27Zm.49-3.08c1-1,1.92-2,2.85-3,2-.82,3.92-1.65,5.85-2.53-1.72,1.66-3.48,3.28-5.24,4.9C48.25,21.81,47.1,22,45.94,22.19Zm4.74,1.86-4.34,1q1.65-1.64,3.28-3.29,2-.35,3.9-.78c.08,0,.07-.15,0-.14-1.21.23-2.43.46-3.65.67,1.62-1.63,3.23-3.26,4.88-4.85,0,0,0,0,0,0,2-.91,4-1.87,5.85-2.92C57.34,17.23,54,20.62,50.68,24.05ZM3.23,55.22c2.3-8.82,8.31-16,15.35-21.54,8.11-6.39,17.54-11,26.92-15.25,4.6-2.08,9.32-3.83,14-5.75C45.64,20,29.53,23.49,18.73,35.52A93.72,93.72,0,0,0,8.87,49.45C6.18,53.85,4,58.36,4,63.61c0,10.67,7.22,19.44,16,24.62A48,48,0,0,0,41.3,94.68,46.91,46.91,0,0,0,52.52,94a40,40,0,0,0,5.29-1.29A41.07,41.07,0,0,0,76,81.16C83.32,72.88,85,63,86.88,52.45A32,32,0,0,1,94.7,36.3c3.26-3.73,6.82-7.31,8.22-12.21a19.17,19.17,0,0,0,.6-2.94,19.32,19.32,0,0,1,.24,2.84.62.62,0,0,0-.1.34c0,.59,0,1.19,0,1.8,0,.43-.09.86-.17,1.29-.79,4.67-3.36,8.12-6.25,11.72-5.78,7.19-6.06,15.38-7.58,24.1C86.43,81.75,70.83,94.16,52.9,97.16c-16,2.67-34.15-1.42-45.58-13.48a21.73,21.73,0,0,1-3.95-5.2C2.17,76.05,2.09,73.22,2,70.56A51.71,51.71,0,0,1,3.23,55.22ZM2.29,89l0-.16c.1.22.2.43.31.64C2.47,89.29,2.38,89.13,2.29,89Zm43.94,20.86c-1.2.07-2.41.1-3.62.1h0l2.9-1.49c1.35-.08,2.71-.21,4.06-.39a30.87,30.87,0,0,1-3.19,1.63A.28.28,0,0,0,46.23,109.83Zm-5.5-3.57q-.58,0-1.17-.06c-.86,0-1.72-.14-2.58-.24.62-.29,1.24-.61,1.85-.94,1.34.12,2.69.18,4,.18C42.16,105.58,41.45,105.93,40.73,106.26Zm3-1.06c.88,0,1.76,0,2.63-.09l-2.5,1.19c-.69,0-1.38,0-2.06,0C42.4,106,43.05,105.59,43.68,105.2Zm-6.64-1s0-.08,0-.13a.41.41,0,0,0-.77-.12,1.1,1.1,0,0,0,0,.16l-2.33-.34c.62-.33,1.24-.68,1.85-1,1.81.25,3.64.41,5.47.49-.73.4-1.47.81-2.22,1.19Q38,104.31,37,104.19Zm-.78.53a.41.41,0,0,0,.6.08l1.1.14c-.63.31-1.26.62-1.9.91-1.6-.21-3.2-.49-4.79-.79.61-.28,1.21-.57,1.81-.87C34.13,104.4,35.19,104.57,36.26,104.72Zm-1.17,1.56c-.75.33-1.51.65-2.28,1-1.46-.25-2.91-.57-4.33-.94.66-.28,1.32-.56,2-.86C32,105.75,33.54,106,35.09,106.28Zm.92.14c1.17.16,2.35.28,3.53.36-.86.37-1.73.7-2.62,1-1.09-.1-2.17-.23-3.23-.4C34.47,107.07,35.25,106.76,36,106.42Zm4.58.43c.64,0,1.27.05,1.91.06-.79.36-1.58.72-2.38,1.06-.71,0-1.41-.06-2.11-.11C38.89,107.56,39.75,107.22,40.59,106.85Zm3.3.06q1.89,0,3.78-.18c-.75.37-1.5.76-2.24,1.16-1.32.08-2.65.11-4,.1C42.27,107.65,43.08,107.29,43.89,106.91Zm7.84-.12-.75.44-.56.1c-1.21.19-2.43.34-3.65.45.71-.38,1.42-.77,2.13-1.18a45.89,45.89,0,0,0,6.26-1.13l-1.75,1a.57.57,0,0,0-.58.35l-.89.2A.17.17,0,0,0,51.73,106.79ZM96.26,49.26c-.23.41-.43.83-.62,1.26l.3-.87c0-.12-.13-.2-.18-.08A50,50,0,0,0,93,57.84a29.46,29.46,0,0,0-1.11,8.64.18.18,0,0,0,.36,0c.56-2.73.63-5.55,1.2-8.3.28-1.34.61-2.66,1-4A27.61,27.61,0,0,0,94.05,57c-.62,6.21,0,12.16-2.69,18-2.5,5.52-6.41,10.46-10,15.28-3.47,4.6-7.26,9.06-12,12.42-5,3.57-11,5.47-17,6.48-1.53.26-3.08.45-4.63.57A20,20,0,0,0,51,107.85q1-.16,1.92-.36a.57.57,0,0,0,.4.25.59.59,0,0,0,.63-.34l.38-.21a42.41,42.41,0,0,0,6.22-2,.23.23,0,0,0,.3.16l.47-.11a.49.49,0,0,0,.41-.55c.41-.19.81-.37,1.21-.57a.16.16,0,0,0-.12-.3l-1.4.49a.48.48,0,0,0-.55.2c-1.4.48-2.81.94-4.23,1.35l2-1.08a.45.45,0,0,0,.25-.44c.38-.13.75-.24,1.12-.38.1,0,0-.19-.07-.16-.37.11-.74.2-1.12.29a.63.63,0,0,0-.89-.27l-1.37.82c-2.07.47-4.14.86-6.24,1.13.35-.21.71-.41,1.06-.63.08-.05,0-.19-.08-.15q-1,.43-1.95.9c-1.34.15-2.68.26-4,.32.77-.38,1.52-.79,2.27-1.23.31,0,.62-.07.93-.1a.54.54,0,0,0,.53.31.67.67,0,0,0,.28,0,.49.49,0,0,0,.41-.41,48.57,48.57,0,0,0,7.2-1.45c.08,0,0-.15,0-.13-2.46.45-4.94.82-7.43,1.06h0a.6.6,0,0,0-.26-.11.74.74,0,0,0-.25,0c0-.08-.07-.18-.16-.13l-.9.41c-1.07.08-2.13.14-3.2.17.38-.27.74-.54,1.1-.83a.06.06,0,1,0-.07-.1c-.54.32-1.09.63-1.63.93H42.83l-.76,0a.54.54,0,0,0,0-1.06.54.54,0,0,0-.21,1c-.66,0-1.32,0-2-.1.67-.39,1.34-.8,2-1.23.92,0,1.83,0,2.75,0,3.46,0,7.83.27,10.86-1.71.05,0,0-.13-.06-.1a12.15,12.15,0,0,1-5.13,1.05c-2,.14-4,.21-6,.2-.55,0-1.09,0-1.63,0,.24-.16.48-.32.71-.5s0-.16-.09-.12c-.34.21-.69.41-1,.6-1.92-.07-3.84-.22-5.75-.41a.11.11,0,0,0-.14-.09l-.13.07-4.4-.48a.12.12,0,0,0,0,.23c1.19.28,2.39.5,3.6.68l-1.95,1c-1.65-.28-3.3-.6-5-1-.14,0-.21.19-.07.23,1.37.45,2.78.82,4.22,1.14L30.8,105l-1-.21c-3.63-.73-7.3-1.4-10.85-2.45a.07.07,0,0,0-.05.14,95.29,95.29,0,0,0,10.28,2.7l.89.19c-.63.3-1.25.59-1.88.87A63.74,63.74,0,0,1,13.23,100c-.08,0-.17.09-.09.14a45.53,45.53,0,0,0,14.14,6.42c-.21.09-.42.2-.63.28s0,.21.06.17l.87-.37c1.39.37,2.8.68,4.21.94l-.43.16c-.25.09-.1.46.15.38s.75-.26,1.13-.39c1,.16,2,.3,3,.41l-.21.06c-.24.07-.1.42.14.36l1.14-.31.82.07c.68.05,1.37.09,2.06.12a.25.25,0,0,0,.33.17l.34-.14c1.35,0,2.71,0,4.07,0l-1.85,1a.26.26,0,0,0,0,.43,57.87,57.87,0,0,1-25-5.83C12.05,101.45,5.88,97.73,3.28,92a17.6,17.6,0,0,0,4.14,4.42c.16.12.41-.08.27-.26C6.5,94.68,5.15,93.34,4,91.78l0,0a12.33,12.33,0,0,0,1.89,2c.12.1.3-.07.2-.19-.67-.85-1.34-1.72-2-2.61a20.89,20.89,0,0,0,2.68,2.64c.11.09.29-.06.19-.17a46.42,46.42,0,0,1-5-6,51.68,51.68,0,0,1-.39-5.27c1,3.66,3,7.42,6.12,9.44.16.1.38-.07.25-.24a52.17,52.17,0,0,1-4-5.13,22.62,22.62,0,0,1-2.4-5.58A26.15,26.15,0,0,0,9.12,90.1c.12.09.32-.07.21-.2A49.94,49.94,0,0,1,1.52,79.79c-.06-1-.11-2.06-.18-3.09a13.17,13.17,0,0,0,1.21,3C6.4,86.55,14,92.26,21,95.32A54.55,54.55,0,0,0,45.44,100c18.05-.85,35.73-9.16,43.24-26.18,1.08-2.43,1.07-6.21,1.65-8.78a52.86,52.86,0,0,0-.09,5.33.12.12,0,0,0,.23,0c.68-5,.61-10,1.89-15a27.88,27.88,0,0,1,6.51-12.23c.08-.09-.05-.23-.14-.15a22.71,22.71,0,0,0-5.92,9.26A29.74,29.74,0,0,1,98.32,40a34.94,34.94,0,0,0,5.26-8.09,31.77,31.77,0,0,1-.64,5.26,11.43,11.43,0,0,1-3.21,3.53c-.12.09,0,.33.14.25a8,8,0,0,0,2.67-2.24,17.58,17.58,0,0,1-2.21,4.82C99,45.51,97.42,47.22,96.26,49.26Z"/><path class="cls-1" d="M89.49,75.14C86.7,79.59,84,84,80.85,88.24c.28-.74.51-1.52.72-2.29A32.76,32.76,0,0,0,85.09,81c0-.09-.09-.18-.14-.09a38,38,0,0,1-3.12,4c.14-.49.27-1,.41-1.45h0c-.26.63-.57,1.29-.87,2-.6.65-1.21,1.28-1.84,1.89.27-.69.55-1.38.84-2.06.08-.2-.23-.35-.32-.14-.42,1-.85,1.95-1.29,2.92a45.82,45.82,0,0,1-7.22,5.3c-.1.06,0,.24.11.19a28.68,28.68,0,0,0,6.58-4.3c-.08.2-.18.4-.26.6a25.51,25.51,0,0,0-1.57,3.78,21.66,21.66,0,0,1-8.47,6c-.09,0,0,.16,0,.13a19.23,19.23,0,0,0,8.43-5.45.09.09,0,0,0,.08,0l.08-.12c1.09-1.14,2.1-2.36,3.07-3.59,1.32-1.69,2.63-3.43,3.88-5.21a12.22,12.22,0,0,0-.64,1.75c0,.16.22.27.31.13a22.79,22.79,0,0,0,1.74-3.54.27.27,0,0,0-.05-.31,70.12,70.12,0,0,0,4.76-8.15C89.69,75.14,89.54,75.05,89.49,75.14ZM79.93,89.46l-.17.22c-.74.95-1.5,1.9-2.3,2.82.35-.8.64-1.63,1-2.41.21-.51.42-1,.62-1.53.61-.56,1.19-1.13,1.74-1.73A14.64,14.64,0,0,0,79.93,89.46Z"/><path class="cls-1" d="M14.17,95.56a.1.1,0,0,0,0,.19A.1.1,0,0,0,14.17,95.56Z"/><path class="cls-1" d="M13.1,98.71s.05,0,0-.06A0,0,0,0,0,13.1,98.71Z"/><path class="cls-1" d="M48.54,99.93a36.94,36.94,0,0,1-11-.15s0,0,0,0a19.52,19.52,0,0,0,11,.36C48.72,100.15,48.71,99.91,48.54,99.93Z"/><path class="cls-1" d="M68.37,26c-.14.11,0,.37.15.28a15.92,15.92,0,0,0,3.18-2.13c.07-.07,0-.2-.08-.16A15.57,15.57,0,0,0,68.37,26Z"/><path class="cls-1" d="M77.6,18.66A18.21,18.21,0,0,0,80.35,17a.12.12,0,0,0-.11-.2c-1.08.46-2.1,1.05-3.13,1.6a10.32,10.32,0,0,0-2.43,1.42h0A8.84,8.84,0,0,0,77.6,18.66Z"/><path class="cls-1" d="M76.16,20s0,0,0,0a10.54,10.54,0,0,0,3.32-1.32A29.54,29.54,0,0,0,82.67,17c.06,0,0-.12-.06-.1a34.44,34.44,0,0,0-3.7,1.56A9.33,9.33,0,0,0,76.16,20Z"/><path class="cls-1" d="M88.68,19.63a1.12,1.12,0,0,0,.82.11.83.83,0,0,0,.6-.52c0-.12-.06-.27-.2-.21-.31.13-.71.38-1.07.28S88.45,19.53,88.68,19.63Z"/><path class="cls-1" d="M34.16,63.71s0,0,0,0a7.68,7.68,0,0,0,3.68-1.55,0,0,0,0,0,0,0A7.65,7.65,0,0,1,34.16,63.71Z"/><path class="cls-1" d="M65,68c-4,2.32-7.85,4.83-11.71,7.34,0,0,0,0,0,0,4-2.36,7.93-4.71,11.78-7.26C65.13,68.07,65.06,68,65,68Z"/><path class="cls-1" d="M75.69,73.61A50.77,50.77,0,0,1,68.57,77c-.3.11-.12.56.18.46a23.18,23.18,0,0,0,7.08-3.54C76,73.78,75.84,73.53,75.69,73.61Z"/><path class="cls-1" d="M60.6,50a0,0,0,1,0,0,0L59,51.22s0,0,0,0Z"/><path class="cls-1" d="M58.17,55c2.68-1.48,5.14-3.35,7.88-4.74,0,0,0,0,0,0a36.49,36.49,0,0,0-8,4.53C57.94,54.86,58,55.07,58.17,55Z"/><path class="cls-1" d="M68.43,57.63a.07.07,0,0,0,.08.11c3.13-2,6-4.36,9-6.51,0,0,0,0,0,0C74.52,53.35,71.34,55.32,68.43,57.63Z"/><path class="cls-1" d="M72.36,57.76c-4.12.29-8.23.78-12.34,1.23-.23,0-.19.38,0,.36C64,59,68,58.62,72,58.09l-.9.73a.16.16,0,0,0,.19.25c.6-.36,1.2-.74,1.8-1.12l.9-.13a.09.09,0,1,0,0-.17c-.16,0-.32,0-.49,0,3.28-2.15,6.4-4.62,9.55-6.92a.21.21,0,0,0-.25-.34C79.29,52.82,75.67,55.13,72.36,57.76Z"/><path class="cls-1" d="M81.38,54.39A101.34,101.34,0,0,0,70.64,63a.13.13,0,1,0,.15.2,100.48,100.48,0,0,0,10.63-8.8S81.42,54.36,81.38,54.39Z"/><path class="cls-1" d="M79.58,59.47c-3.66,2.89-7.5,5.52-11.34,8.17-.09.06,0,.17.09.12a88.8,88.8,0,0,0,11.48-8C80,59.62,79.78,59.31,79.58,59.47Z"/><path class="cls-1" d="M77.66,64.39a70.44,70.44,0,0,0-6.25,4.89c-.12.11.06.26.17.19a69.54,69.54,0,0,0,6.33-4.74C78.13,64.56,77.88,64.22,77.66,64.39Z"/><path class="cls-1" d="M29.08,54.69c-2.58,2.27-5.37,4.39-7.81,6.82h0a34.72,34.72,0,0,0,7.89-6.72C29.23,54.73,29.14,54.63,29.08,54.69Z"/><path class="cls-1" d="M29.1,55.82c-1.47,1.41-2.77,3-4.32,4.31-.05,0,0,.14.07.09A20.37,20.37,0,0,0,29.33,56,.15.15,0,0,0,29.1,55.82Z"/><path class="cls-1" d="M18.09,42.85C14.78,46.27,11.73,50,8.64,53.58c-.13.15.1.33.23.19,3.19-3.53,6.46-7,9.44-10.75C18.42,42.88,18.22,42.72,18.09,42.85Z"/><path class="cls-1" d="M53.22,29.07c-.06.07.05.18.12.13,3.94-2.91,7.19-7,10.21-10.83,0,0,0,0,0,0-1.55,1.94-3.22,3.78-4.94,5.56S54.93,27.28,53.22,29.07Z"/><path class="cls-1" d="M58.06,27.8a.13.13,0,0,0,.17.18c3.21-2.24,5.77-5.66,8.29-8.61,0,0,0,0,0,0-1.34,1.48-2.77,2.87-4.19,4.27S59.33,26.29,58.06,27.8Z"/><path class="cls-1" d="M64.09,24.65c-.88.75-1.78,1.49-2.61,2.3-.06.07,0,.17.12.12.92-.68,1.79-1.44,2.67-2.17C64.43,24.77,64.24,24.52,64.09,24.65Z"/><path class="cls-1" d="M20.9,75.75q-3.24,2.94-6.46,5.92c-.09.09,0,.27.13.17q3.21-3,6.4-6S20.94,75.71,20.9,75.75Z"/><path class="cls-1" d="M73.87,10.6c2.79-2.23,5.47-4.69,8.18-7A.08.08,0,1,0,82,3.45a45.24,45.24,0,0,0-8.3,6.94A.15.15,0,0,0,73.87,10.6Z"/><path class="cls-1" d="M75.09,11.2a.18.18,0,0,0,.21.29c2.27-1.31,4.36-3,6.49-4.51a.19.19,0,0,0-.22-.3C79.4,8.16,77.1,9.52,75.09,11.2Z"/><path class="cls-1" d="M36.69,78.71A42.1,42.1,0,0,0,32.78,81c-.24.14,0,.48.25.34a41.32,41.32,0,0,0,3.78-2.38A.12.12,0,0,0,36.69,78.71Z"/><path class="cls-1" d="M38.37,61.18c1.74-1.28,3.48-2.57,5.19-3.88,0,0,0-.1-.05-.07Q40.86,59.09,38.25,61C38.13,61.09,38.26,61.27,38.37,61.18Z"/><path class="cls-1" d="M34.19,62.33c3-2.15,5.84-4.37,8.66-6.69a.06.06,0,0,0-.08-.1Q38.28,58.68,34,62.08A.15.15,0,0,0,34.19,62.33Z"/><path class="cls-1" d="M37,57.22c.86-.54,1.73-1.07,2.55-1.66.1-.07,0-.25-.1-.19-.9.5-1.76,1.05-2.64,1.59C36.61,57.07,36.8,57.33,37,57.22Z"/><path class="cls-1" d="M55.41,57.41s0,0,0,0a42.86,42.86,0,0,0,11.74-.77.09.09,0,0,0,0-.18c-.58.07-1.17.12-1.76.18,3.33-2,6.56-4.16,9.72-6.4,0,0,0,0,0,0-3.4,2-6.76,4.16-10,6.46C61.86,57,58.64,57.21,55.41,57.41Z"/><path class="cls-1" d="M53.77,57c2.55-.18,5.1-.34,7.64-.57h.06c1.15-.1,2.3-.21,3.45-.35a.1.1,0,0,0,0-.19c-.89,0-1.79.07-2.68.12,2.94-1.65,5.71-3.63,8.51-5.49,0,0,0,0,0,0-3,1.79-6.11,3.5-9,5.54-2.67.16-5.34.4-8,.62C53.51,56.64,53.55,57,53.77,57Z"/><path class="cls-1" d="M23.5,74.1a76.61,76.61,0,0,1-8.26,2.43c.41-.4.81-.82,1.21-1.24a35.64,35.64,0,0,0,6.37-1.69c.15,0,.06-.26-.09-.22q-2.84.8-5.75,1.34l2.68-2.87c.69-.26,1.38-.53,2.05-.83a.1.1,0,0,0-.07-.19l-1.47.48.43-.45s0-.1-.07-.06l-.63.59q-1.71.56-3.42,1.08L18,70.76c.05-.06,0-.13-.09-.08-.63.63-1.26,1.27-1.87,1.91-1,.29-2,.57-3,.82,1-1.06,2.07-2.07,3.17-3l1.87-.44c.09,0,.05-.18,0-.17l-1.75.31a.1.1,0,0,0-.1,0h0c-1,.2-2.07.42-3.11.64,1.18-1.2,2.32-2.43,3.44-3.66.06-.06,0-.17-.11-.11-1.38,1.28-2.77,2.58-4.11,3.93l-.21.05a.15.15,0,0,0-.08.25c-1.17,1.19-2.3,2.4-3.35,3.67,0,0,0,0,0,0,1.4-1.17,2.74-2.45,4-3.76,1-.21,2-.41,3-.63a29.84,29.84,0,0,0-5,5.17c-.11.15.12.34.24.19.53-.67,1.1-1.32,1.68-2,.95-.22,1.9-.45,2.84-.71-1.34,1.4-2.66,2.82-4,4.25-.1.1.08.24.17.14,1.43-1.5,2.86-3,4.26-4.51,1.12-.32,2.23-.67,3.33-1.06l-3.09,2.88c-.7.13-1.41.23-2.11.33a.22.22,0,0,0,0,.44c.5-.06,1-.13,1.48-.21a42.93,42.93,0,0,0-3.89,4.22s0,.06,0,0a34.53,34.53,0,0,0,3-2.68,47.65,47.65,0,0,0,8.82-2.73A.1.1,0,0,0,23.5,74.1Z"/><path class="cls-1" d="M23,47.66c-3.29.77-6.54,1.79-9.79,2.74-.27.08-.11.47.16.4,3.24-.92,6.51-1.78,9.7-2.87C23.19,47.88,23.13,47.62,23,47.66Z"/><path class="cls-1" d="M47.68,32c-3.29.73-6.57,1.66-9.86,2.43,3.31-.68,6.64-1.31,9.91-2.24C47.83,32.15,47.79,32,47.68,32Z"/><path class="cls-1" d="M33.64,35.35c.43-.11.87-.2,1.3-.3-.43.08-.87.17-1.31.24C33.6,35.3,33.6,35.36,33.64,35.35Z"/><path class="cls-1" d="M47.88,31c-4,.79-8,1.63-12,2.35-.18,0-.15.33,0,.29,4-.71,8-1.47,12-2.47C48,31.12,48,31,47.88,31Z"/><path class="cls-1" d="M31.87,38.45c-2.69.41-5.35.95-8,1.45-.22,0-.18.39,0,.35,2.67-.51,5.35-1,8-1.58C32,38.64,32,38.43,31.87,38.45Z"/><path class="cls-1" d="M48.92,78.25a127.48,127.48,0,0,1-12.56,4.46c-.28.08-.11.5.16.42A81.53,81.53,0,0,0,49,78.36C49,78.33,49,78.22,48.92,78.25Z"/><path class="cls-1" d="M48.87,80.58a34.23,34.23,0,0,1-9.27,2,.24.24,0,0,0,0,.47,26.58,26.58,0,0,0,9.27-2.36A.07.07,0,0,0,48.87,80.58Z"/><path class="cls-1" d="M48.75,81.87q-3.36.87-6.69,1.81c-.18,0-.07.32.1.27q3.33-.95,6.64-2C48.88,82,48.83,81.85,48.75,81.87Z"/><path class="cls-1" d="M19.79,79.65c-.11,0-.09.19,0,.17a15.49,15.49,0,0,0,4.54-1.43s0-.12,0-.09A18.83,18.83,0,0,1,19.79,79.65Z"/><path class="cls-1" d="M24.79,89.11a7.25,7.25,0,0,0,3.69-1c.12-.07,0-.24-.12-.2a14,14,0,0,1-3.63.71C24.44,88.67,24.5,89.12,24.79,89.11Z"/><path class="cls-1" d="M27,89.8a16.64,16.64,0,0,0,5.07-1.17c.15,0,.06-.25-.08-.21a28,28,0,0,1-5,.9C26.65,89.35,26.71,89.82,27,89.8Z"/><path class="cls-1" d="M22.19,92.81s.06-.07,0-.08c-5.52-1.51-9.42-6-13.38-9.88-.09-.09-.2.06-.12.14C12.62,87,16.32,91.94,22.19,92.81Z"/><path class="cls-1" d="M58.22,94c6-1.6,12.35-3.79,17.21-7.77C80.6,82,83.11,75.71,84.94,69.47c0-.08-.12-.12-.16,0-2.43,6.26-4.6,12.63-10.11,16.9-4.9,3.8-10.82,5.39-16.59,7.34C57.85,93.75,58,94.07,58.22,94Z"/><path class="cls-1" d="M87.12,64c.5-2.38.58-4.86,1-7.27a66.81,66.81,0,0,1,1.94-7.61c0-.1-.12-.18-.17-.07a52,52,0,0,0-2.15,7.35,28.41,28.41,0,0,0-1,7.6C86.8,64.14,87.08,64.13,87.12,64Z"/><path class="cls-1" d="M74.11,38.06l-1.46,1.76c-1.53.45-3.06.88-4.6,1.29.41-.55.8-1.12,1.24-1.65a31.83,31.83,0,0,1,2.5-2.69c.17-.15-.11-.44-.27-.29a22.16,22.16,0,0,0-4.17,4.82c-2.07.53-4.15,1-6.25,1.43-.2,0-.17.37,0,.33,2-.4,4-.85,6-1.38-.1.19-.2.38-.28.57a.1.1,0,0,0,.17.11c.25-.27.48-.55.7-.84,1.59-.44,3.16-.92,4.72-1.46l-.14.16a8.52,8.52,0,0,0-1.49,2,.15.15,0,0,0,.22.17,8,8,0,0,0,1.66-1.86c.59-.72,1.17-1.45,1.76-2.18A.23.23,0,0,0,74.11,38.06Z"/><path class="cls-1" d="M77.27,37.94c-.57.63-1.13,1.27-1.69,1.9a8.45,8.45,0,0,0-1.41,1.76c-.06.12.09.22.19.16A9,9,0,0,0,76,40.14c.56-.63,1.12-1.27,1.69-1.9C77.84,38,77.47,37.71,77.27,37.94Z"/><path class="cls-1" d="M79.76,37.2a8.83,8.83,0,0,1-2.26,2.3c-.1.07,0,.25.1.19a6.62,6.62,0,0,0,2.46-2.24C80.2,37.24,79.9,37,79.76,37.2Z"/><path class="cls-1" d="M61.44,35.64c2.37-.44,4.76-.86,7.11-1.41.13,0,.12-.24,0-.22-2.39.34-4.76.82-7.13,1.27C61.17,35.32,61.21,35.68,61.44,35.64Z"/><path class="cls-1" d="M24.29,101.43a.33.33,0,0,0-.11.66A.33.33,0,0,0,24.29,101.43Z"/><path class="cls-1" d="M30,99.81a.93.93,0,0,0-.18.6.4.4,0,0,0,.78.12.91.91,0,0,0,0-.63A.36.36,0,0,0,30,99.81Z"/></g></g></g></svg>