<svg xmlns="http://www.w3.org/2000/svg" viewBox="0 0 143.63 150.85"><defs><style>.cls-1{fill:#5a5a68;}</style></defs><g id="Capa_2" data-name="Capa 2"><g id="_1" data-name="1"><g id="_8" data-name="8"><path class="cls-1" d="M6.46,72.08s0,0,0,0,0,0,0,0a.23.23,0,0,0,.25-.15c.08-.2.25,0,.36,0a.3.3,0,0,0,.42-.28c0-.72-1.08-.49-1.26.09A.25.25,0,0,0,6.46,72.08Z"/><path class="cls-1" d="M7.88,72.12a.49.49,0,0,0-.17-.06.19.19,0,0,0-.18,0,.25.25,0,0,0-.09.45l.54.93c.15.28.25.7.57.82a.19.19,0,0,0,.26-.17c0-.35-.27-.64-.44-.92l-.47-.8A.14.14,0,0,0,7.88,72.12Z"/><path class="cls-1" d="M7.81,70.64c.37,0,.37-.61,0-.58S7.44,70.67,7.81,70.64Z"/><path class="cls-1" d="M143.54,56.58c.26-.37-.11-.67-.47-.62.09-1.83-.22-3.66-1.84-4.76-1.25-.85-3.6-1.29-5-.08a.4.4,0,0,0-.09.54.35.35,0,0,1,0,.08s0,.1-.05.16a.87.87,0,0,0-.26.18c-13.68,14.45-24.89,30.38-39,43.26l-.07.06c-3.08-.91-5.36-2-6.85-4.91-1.36-2.66-1.23-5.68-2.06-8.45l.4-.51a11.93,11.93,0,0,1,2,3.39c.4,1.27.57,2.62,1.1,3.86a13.42,13.42,0,0,0,5.45,6.06c.44.25,1.06-.33.75-.74-1.09-1.39-2.57-2.42-3.64-3.84-1.22-1.62-1.61-3.48-2.22-5.36-.48-1.49-1.37-3.53-3.17-3.71l0-.06A201.05,201.05,0,0,0,104.47,57.7a161.19,161.19,0,0,0,9.62-18.57c-.09.27-.17.53-.24.8h0A34.08,34.08,0,0,0,116.41,35c.44-.92.94-1.85,1.38-2.8a1.45,1.45,0,0,0,.63-1.29c0-.05,0-.09,0-.13s.1-.24.14-.37a.35.35,0,0,0-.57-.34,13.37,13.37,0,0,0-2.12-1.38c-1-.71-4-3.27-5.45-1.47a1.76,1.76,0,0,0-.5.37,1.59,1.59,0,0,0-.45.83A220.26,220.26,0,0,1,94.2,52.72c-5.32,7.5-10.69,15-16.39,22-1.2-1.29-2.73-2.26-3.84-3.68a57.35,57.35,0,0,1-3.62-5.76c-1-1.63-2.76-5.36-5.29-5.06,4-5.83,7.83-12,11.24-18.11,4.18-7.54,5.88-15.53,7.39-23.67a1.3,1.3,0,0,0,.1-1.9,17.58,17.58,0,0,0-3.2-2.3c-.63-.43-1.2-1-2-.68a1,1,0,0,0-.5.23h0A1.78,1.78,0,0,0,77.54,15c-3.27,6.9-6,13.86-9.79,20.5A127.28,127.28,0,0,1,53.5,55.61c-.07.09-.15.17-.22.25-.51-1.62-2.06-2.94-3.3-3.92s-2.41-1.66-3.57-2.55a7.34,7.34,0,0,1-2.8-5c7.57-11.81,14-24.28,17.49-37.93.08-.32-.19-.44-.42-.36a1.61,1.61,0,0,0,.63-1.27A2.85,2.85,0,0,0,60.6,2c-.65-.5-1.45-.49-2.05-1.11A2.16,2.16,0,0,0,57.37.05a3.33,3.33,0,0,0-2.53.7,1.34,1.34,0,0,0-1.18.64,1.94,1.94,0,0,0-.4,1.22c-3.73,6.14-7,12.5-10.43,18.68S36.48,33.92,32.31,39.44C24.58,49.69,14.72,58.22,5.47,66.27a.41.41,0,0,0-.15.35A3.15,3.15,0,0,0,3.42,70C2.5,71.15,1,71.58.67,73.36A8.31,8.31,0,0,0,.82,75.9a53.59,53.59,0,0,1,.54,6.47c0,6.57-2.27,13.31-1,19.77,2.51,12.3,15,17.94,23.85,25.3,5,4.17,9.42,9.08,14.26,13.59l2.57,2.4a.32.32,0,0,0,.12.11c3.53,3.24,7.8,6.73,12.36,7.25,5.3.59,9.77-3,14.36-5.13,3.33-1.53,6.93-2,10.43-3.16a27.12,27.12,0,0,0,8-4.36A74,74,0,0,0,94.89,130a24.87,24.87,0,0,1,5.16-4.4,29.31,29.31,0,0,0,4-2.67,15.09,15.09,0,0,0,5.22-11.75c1.14-2.8.53-6.68-1.92-8.49l.14-.14C120.88,88.82,132.26,72.67,143.54,56.58Zm-6.24-4.74c1.16-.1,2.23-.29,3.22.48a3.73,3.73,0,0,1,1.19,3.27,6.74,6.74,0,0,1-2.89-1.3,5.41,5.41,0,0,1-1.2-1.37,1.56,1.56,0,0,1-.35-1A.17.17,0,0,1,137.3,51.84ZM97,96.94l.46-.42a.67.67,0,0,0,.15-.14c6.64-6,12.47-12.87,18.45-19.71,6.64-7.58,13.69-15.13,20.18-23.11a5.22,5.22,0,0,0,.43.68,6.83,6.83,0,0,0,3.29,2.37c-11.74,14.5-22.63,29.33-35.48,42-1,1-2.12,2-3.2,3-.14-2.16-3.53-3.75-5.57-2.93-.22.09-.19.37,0,.38a6.44,6.44,0,0,1,3.11.63,7.2,7.2,0,0,1,2,2.25h0a134,134,0,0,1-17.51,13.43C76.25,120,68.68,123.67,61.71,128a6,6,0,0,0-.39-.84,8.78,8.78,0,0,0-4.42-3.37,206.76,206.76,0,0,0,19.78-11.65A164.61,164.61,0,0,0,97,96.94ZM60.05,131a5.92,5.92,0,0,1,.1.65c-1.35.83-3.83-1.69-4.85-2.46a6.9,6.9,0,0,1-1.32-1c-.11-.1-.24-.19-.35-.28,0-.68.06-1.36.1-2,.39-.54,2.22-.4,3-.59h0l0,0a6.34,6.34,0,0,1,1.77.82c1.29.86,2.92,2.86,2.42,4.57l-.06-.06A.44.44,0,0,0,60.05,131ZM95.2,96.77a163.71,163.71,0,0,1-19.15,14.39c-6.55,4.28-13.38,7.92-19.83,12-1.1-1.21-2.89-1.85-4-3.08-1.81-2-1.82-3.94-1.92-6.34,6.55-4.71,13.21-9.45,19.92-14.29A88.15,88.15,0,0,0,87.06,83a15.75,15.75,0,0,0,.57,6.15c-.43.3-.85.62-1.26.94a15.6,15.6,0,0,1-.6-4.85.09.09,0,0,0-.18,0,10.11,10.11,0,0,0,.18,5.38c-1.06.88-2.08,1.81-3.11,2.7-.28.25.12.6.41.37,1-.8,1.94-1.6,2.89-2.43A14.91,14.91,0,0,0,86.74,93c-.79.61-1.53,1.28-2.27,1.9-.24.2.09.48.33.3.72-.56,1.5-1.11,2.22-1.71a8.88,8.88,0,0,0,6,4.65.2.2,0,0,0,.15-.36c-2.15-1.43-4.12-2.67-5.52-4.88.17-.16.35-.32.51-.5a.16.16,0,0,0-.21-.24c-.19.1-.36.23-.55.35a11.29,11.29,0,0,1-.85-1.84c.4-.37.8-.74,1.18-1.13C88.94,93.28,91.45,96.57,95.2,96.77ZM104,56.25A196.29,196.29,0,0,1,88.55,79.36,97.23,97.23,0,0,1,68.33,99.5Q59,106.19,50,112.72a.28.28,0,0,0-.17.07l-.12.14-4.21,3a3.78,3.78,0,0,0-.87-2.52c-.18-.26-.35-.49-.51-.73a.44.44,0,0,0,.47,0,262.32,262.32,0,0,0,24.1-15.11C76.07,92.34,81.52,85.18,87.12,78c11.08-14.16,21.09-28.87,27.11-45.92a.17.17,0,0,0,0-.17,8.32,8.32,0,0,0,1.52.61C111.64,40.47,108.34,48.56,104,56.25Zm11.25-20c.14-.37.27-.74.4-1.12l.39-.76c-.12.3-.23.61-.36.9S115.36,35.9,115.21,36.23Zm-4.41-8a.08.08,0,0,1,0,0c1.35-.58,2.38.49,3.32,1.13l1.51,1c.36.25,2,1,.3.71a20.51,20.51,0,0,1-3.51-1.39,9.38,9.38,0,0,1-1.21-.52.84.84,0,0,1-.58-.61ZM94,55.18A216,216,0,0,0,110,29.85a10.62,10.62,0,0,0,3.27,1.61c.25.1.52.24.81.39a.29.29,0,0,0-.3.19c-6,16.88-17.26,32.14-28.16,46-5.7,7.27-11.24,14.26-18.87,19.45s-15.4,9.35-22.62,14.38a.46.46,0,0,0-.21.44,4.45,4.45,0,0,1-.47-1.08c-.18-.61.07-.57-.22-1.12a2.36,2.36,0,0,0-1.14-1c-.26-.14-.56-.21-.82-.33a4.94,4.94,0,0,1-1.74-1.45l-.31-.32c13.54-5.83,26.17-15.79,36.16-27.34a0,0,0,0,0,0,0,.15.15,0,0,0,.13.07l.11,0a.16.16,0,0,0,.14-.18c.19.1.51.24.54.25l.56.23a8.27,8.27,0,0,1,1.56,1c.82.65,1.32,1.55,2.08,2.24.17.15.41,0,.38-.24-.26-1.55-2-2.82-3.38-3.46A4.77,4.77,0,0,0,75.91,79l.33-.38C82.51,71.24,88.26,63.2,94,55.18Zm-51.6,61.31c-.36,0-1.12-.53-1.45-.68-1.14-.55-2.37-1-3.46-1.64a4.52,4.52,0,0,1-2.16-3.54,2.64,2.64,0,0,1,.81-2.64c1.21-.74,1.95.33,2.78,1a6,6,0,0,0,1.46.91c1.22.53,1.25.8,1.66,2.06a7.11,7.11,0,0,0,.8,1.58c.12.15.25.29.38.43C44,114.62,43.71,115.46,42.43,116.49ZM76.56,76.28l-.88,1.08C65,90.09,52.15,99.26,38.14,106.42l-.06,0h0c-.2-.13-.41-.26-.63-.38a11.22,11.22,0,0,0,2.19-1.1.13.13,0,0,0-.1-.23A12.52,12.52,0,0,0,37,105.75c-.7-.36-1.44-.68-2.15-1l.93-.58A5,5,0,0,0,37.18,103c.08-.12-.06-.24-.17-.21a5.12,5.12,0,0,0-1.67.9c-.35.23-.71.46-1.06.71a7.91,7.91,0,0,1-2-1.49,15.16,15.16,0,0,0,2.62-1.43c.81-.55,1.94-1.21,2.32-2.13a.17.17,0,0,0-.22-.21,11.64,11.64,0,0,0-2.6,1.87c-.8.55-1.63,1-2.47,1.49A6.22,6.22,0,0,1,31,101l0-.06a0,0,0,1,0,0,0l0,0a6.46,6.46,0,0,1-.31-.94c.5-.56,1-1.1,1.5-1.67a10.13,10.13,0,0,0,1.38-1.75.14.14,0,0,0-.21-.19,16,16,0,0,0-2.8,3c-.35-1.71-.3-3.54-.69-5.31a145.18,145.18,0,0,0,13-10.35c6.18-5.37,13-10.86,18-17.61q1.28-1.74,2.54-3.53a8.25,8.25,0,0,0,2.45,9,15,15,0,0,0,2.55,1.56c-.59.55-1.19,1.1-1.84,1.6a35.66,35.66,0,0,1-5.2,3.43s0,.06,0,0a30.17,30.17,0,0,0,7.68-4.77c.47.21.94.4,1.42.6-2.48,1.82-4.77,3.89-7.19,5.74,0,0,0,.07,0,0a81.72,81.72,0,0,0,7.5-5.65l.18.07A45.31,45.31,0,0,0,76.56,76.28ZM31.79,105.1c0,.2-.08.4-.1.6l-1.13-.3a8,8,0,0,1-.21-1A7.84,7.84,0,0,0,31.79,105.1Zm-1.49-1.6a4.58,4.58,0,0,1,0-.53l.24.36a8.14,8.14,0,0,0,.61.73A8.76,8.76,0,0,1,30.3,103.5Zm-.48,1.68a8.06,8.06,0,0,1-2-.94,10.65,10.65,0,0,1-.57-2.94,1.34,1.34,0,0,0,0-.2,8.34,8.34,0,0,0,2.53,3A4.27,4.27,0,0,0,29.82,105.18ZM29,102.33A8.85,8.85,0,0,1,27.2,99a8.17,8.17,0,0,1,.11-1.12,2.63,2.63,0,0,0,.63.36.19.19,0,0,0,.23-.23,1.75,1.75,0,0,0-.67-.87,3.32,3.32,0,0,1,.34-.71.05.05,0,0,0-.08-.07,2.79,2.79,0,0,0-.48.62A3.53,3.53,0,0,0,26,96.54c.88-.52,1.76-1.06,2.63-1.62l.28.9a11.19,11.19,0,0,0,1.2,6.76c-.07.21-.14.42-.19.63A8.44,8.44,0,0,1,29,102.33Zm-2.2-4.72c0-.13-.2-.08-.21,0a3.05,3.05,0,0,0,0,.43,4.65,4.65,0,0,0-1.11-.52,7,7,0,0,0-.68-.29l0,0,.72-.42c.37.18.74.35,1.09.56.13.08.24.16.36.25,0,.11-.07.21-.1.31Zm-6.06-1.15c-.34-.26-.66-.66-1-.95a10.37,10.37,0,0,1-2.4-2.5,11.61,11.61,0,0,0-.89-1.45,4.34,4.34,0,0,1,.15-1.66c1.11-2.72,3.45-1,4.46-.08a9.4,9.4,0,0,1,3.06,4.68C24.64,97.58,22.31,97.64,20.73,96.46ZM15.8,91.74a5.5,5.5,0,0,0,.18.88.15.15,0,0,0-.22.11,13.33,13.33,0,0,0-.09,2.19,4.27,4.27,0,0,1-.88-3.57c0,.12,0,.25.07.37a.12.12,0,0,0,.24,0L15,88.94l.29.11c.18.06.32-.21.18-.34L15,88.29c0-.4,0-.81,0-1.22a8.21,8.21,0,0,0,1.34,1.12A3.4,3.4,0,0,0,15.8,91.74ZM13.63,84.1A11.59,11.59,0,0,1,13,83a12.71,12.71,0,0,1,.42-2.25,12.71,12.71,0,0,0,1,2.66,4.28,4.28,0,0,0,.46.71c-.09.45-.17.9-.23,1.35A12,12,0,0,1,13.63,84.1Zm.91,2.5c0,.42-.07.83-.07,1.25-.36-.29-.71-.58-1.05-.89A9.49,9.49,0,0,1,13,84.79c0-.15,0-.29,0-.43A12.83,12.83,0,0,0,14.54,86.6ZM13.05,75.21s0,.16,0,.25a3.86,3.86,0,0,1,.12.59c.05.63-.14.71-.44.73a7.35,7.35,0,0,0-.33-2.25l1.27-1.14c.16.79.26,1.58.42,2.37-.09.09-.18.2-.28.29a.17.17,0,0,0,0-.07,1.79,1.79,0,0,0-.21-.6.67.67,0,0,0-.16-.24c-.06,0-.15,0-.18-.08S13,75.06,13.05,75.21Zm-.94-1.75a13.52,13.52,0,0,1-.48-1.73c-.17-1,0-2.12-.14-3.14a15.19,15.19,0,0,1,1.78,3.22c.05.14.1.29.14.43Zm9.42,7.6a16.9,16.9,0,0,0-2.06,1.53A17.68,17.68,0,0,0,17.88,84a6.29,6.29,0,0,1-.94-.46l.09,0A11.13,11.13,0,0,0,21.43,79a.15.15,0,0,0-.24-.18c-.69.71-1.27,1.52-2,2.23a21.66,21.66,0,0,1-2.41,2.08.2.2,0,0,0-.08.25,4.77,4.77,0,0,1-1.82-2.16,1.18,1.18,0,0,0-.07-.2h0c1.82-.86,3.93-2.23,4.87-4.13a.13.13,0,0,0-.2-.15c-.68.68-1.25,1.45-2,2.09a12.45,12.45,0,0,1-2.78,1.9l0,0a31.09,31.09,0,0,1-.6-3.58l.36-.31a.21.21,0,0,0,.21-.15v0c4.51-3.88,8.74-8.36,13.05-12.54a100.32,100.32,0,0,0,13.5-16.22v.32a8.2,8.2,0,0,0,.2,1.33c.59,2.7.67,5.1,2.94,7a10.33,10.33,0,0,0,6.44,2,170.38,170.38,0,0,1-14.66,14c-5,4.28-10.47,8.06-15.43,12.23a17.7,17.7,0,0,1-2.65-.66,17.73,17.73,0,0,0,1.82-1.3,16,16,0,0,0,1.79-1.5A.15.15,0,0,0,21.53,81.06ZM15,85.89c0-.51,0-1,.08-1.53A5.48,5.48,0,0,0,19,86.26c-.31.27-.62.54-.92.82a2.79,2.79,0,0,0-1.41.71C16.15,87.14,15.56,86.52,15,85.89ZM70.36,72.16c.12-.14.24-.27.35-.41.7.48,1.44,1,2.21,1.41C72.06,72.85,71.2,72.52,70.36,72.16Zm2.55.06c-.24-.12-.49-.25-.73-.39l-1.07-.58c.2-.27.4-.54.57-.82C72.05,71,72.46,71.63,72.91,72.22ZM66.6,62.27a8.75,8.75,0,0,0-2,2.07c-.1.14.1.34.24.24a9.12,9.12,0,0,0,2-2.08,11,11,0,0,1,1.51,2c1,1.69,1.84,3.47,2.86,5.16l.35.59c-.3.26-.58.52-.87.79-1.48-.85-3-2-2.93-3.53,0-.2-.29-.17-.31,0-.25,1.88,1.28,2.92,2.67,3.85l.11.08-.47.46c-.51-.24-1-.48-1.48-.76a7,7,0,0,1-3.64-4.86c-.19-.86-.24-1.72-.39-2.55a9,9,0,0,0,1.69-2.11C66.15,61.82,66.38,62,66.6,62.27Zm-.86-.85a8.81,8.81,0,0,0-1.59,1.94,5.5,5.5,0,0,0-.16-.58A14.06,14.06,0,0,0,65,61s-.06-.08-.09,0a12.68,12.68,0,0,0-1,1.78,5.31,5.31,0,0,0-.23-.55c.37-.53.75-1.06,1.12-1.6ZM75,42.18c-4.43,7.76-9.32,15.49-14.43,22.68C55.78,71.64,49.06,77,42.94,82.38c-2.91,2.54-5.92,5-9,7.29-2.62,2-5.1,4.45-8.22,5.66-.23.09-.12-1-.07-1.16.15-.35,1.21-1,1.52-1.32,2.07-2,4.82-3.32,7-5.15,3.16-2.58,6.17-5.34,9.07-8.2,3-3,6.68-5.3,9.89-8.2a65.54,65.54,0,0,0,8.11-8.86A104.08,104.08,0,0,0,73.19,42c1.75-3.85,3.36-7.77,4.84-11.73,1.37-3.69,3-7.68,3.75-11.56a1.56,1.56,0,0,0,.89.18C81.07,26.84,79.19,34.9,75,42.18Zm3.64-27.72a18,18,0,0,1,2.17,1.36l1.39.92c.21.13.41.27.6.41,0,.74-.14,1-.53.68a1,1,0,0,1-.35-.16c0-.16.06-.33.08-.49s-.19-.15-.25,0l-.13.28a5.63,5.63,0,0,0-1-1,8,8,0,0,0-1.16-.51,3.13,3.13,0,0,1-.78-.38C78.26,15.28,78.24,14.92,78.66,14.46ZM53.2,57.87c.65-.72,1.29-1.44,1.92-2.18A124.25,124.25,0,0,0,68.86,36c3.52-6.25,7.07-13.3,8.81-20.23a.56.56,0,0,1,0,.08c.57.85,1.73.88,2.53,1.46a9.35,9.35,0,0,1,1,1c-1.51,3.49-2.45,7.22-3.74,10.73-1.62,4.4-3.39,8.75-5.36,13A101.69,101.69,0,0,1,59.93,62.51a66.21,66.21,0,0,1-7.51,8.09c-3,2.67-6.35,4.77-9.19,7.5a127.12,127.12,0,0,1-18,15,13.5,13.5,0,0,0-3-3.55,11.75,11.75,0,0,0-2.49-2.19c6-4,11.81-9.13,17.43-14A172.71,172.71,0,0,0,52.88,58.24.69.69,0,0,0,53.2,57.87Zm-7.59-7.62c1.36,1,2.87,1.91,4.17,3a18.26,18.26,0,0,1,2.71,3.47l-.17.19c-.41-.13-.81-.22-1.21-.31a.15.15,0,0,0-.08-.11,17.62,17.62,0,0,1-3.46-1.39,11.51,11.51,0,0,1-2.72-2.85c-.08-.1-.28,0-.24.12a6.63,6.63,0,0,0,2.76,3.44A6.51,6.51,0,0,1,44.46,54a6.79,6.79,0,0,1-1.75-2.79,22.32,22.32,0,0,1-.86-4.14l1-1.58C42.67,47.58,43.92,49,45.61,50.25ZM60.4,6.33c-2.77,7.1-4.67,14.28-8,21.17-3.19,6.67-7.49,12.86-11.54,19A102.17,102.17,0,0,1,27.32,63c-4.1,4-8.51,7.88-12.46,12a10.22,10.22,0,0,0-.4-2.27A165.08,165.08,0,0,0,27,60.3a114.35,114.35,0,0,0,9.61-12.91l.44.42c.16.14.38-.08.3-.25a5.25,5.25,0,0,0-.4-.68l2.38-3.59c4-6,8.82-11.63,11.92-18.29A110,110,0,0,0,58.06,6.28a4,4,0,0,0,1.46.07,3,3,0,0,0,1-.2A.51.51,0,0,0,60.4,6.33ZM54.31,2.12c1.14-.63,2.15-1.56,3.28-.56.32.28.48.58.89.78.69.34,1.49.35,1.76,1.19s.12,1.74-.9,1.83S58,4.31,57.1,4c-.64-.2-1.35-.15-2-.41a1.37,1.37,0,0,1-.87-1.49ZM19.74,54.87c4.55-4.63,9.41-9.4,13.39-14.7S39.81,29,42.92,23.27c3.54-6.48,7.32-13,10.65-19.67l.1.15c.74.91,1.82.73,2.85,1.1.74.27.77.83,1.17,1.21C55,12.2,53.34,18.61,50.51,24.65c-3.07,6.53-7.82,11.85-11.82,17.72L36.24,46a8,8,0,0,0-2.8-1.86c-.58-.22-2.08-.34-2,.69,0,0,0,0,.06,0a1.84,1.84,0,0,1,1.25-.37,2.28,2.28,0,0,1,.71.32,9.75,9.75,0,0,1,1.51,1,10.58,10.58,0,0,1,.86.79,122.18,122.18,0,0,1-9.67,12.93c-3.82,4.3-8,8.23-12.1,12.1a10.45,10.45,0,0,0-2.91-4.13,2.26,2.26,0,0,0-.45-.59,4,4,0,0,0-3-.74.07.07,0,0,0-.06-.08,5.53,5.53,0,0,0-.71,0C11.61,63.06,15.78,58.89,19.74,54.87ZM6.19,67c.66.13,1.32.2,2,.28,2.25.26,2.36,1.45,2.35,3.46a5.07,5.07,0,0,0,.24,2c.37,1,1.33,1.88,1.09,3.1-.65,3.27-3.76,1.79-4.72.26-.69-1.09-.71-2.47-1.21-3.64-.28-.67-1-1.26-1.18-1.91C4.06,68.55,5,67.68,6.19,67ZM1.91,94.5c0,.06,0,.11-.08.16,0-.37.07-.75.1-1.12L2.1,94c-.07.39-.13.77-.18,1.16A2.41,2.41,0,0,1,2,94.53,0,0,0,0,0,1.91,94.5Zm.32-1.22c-.07-.17-.15-.34-.21-.52.06-.61.13-1.21.2-1.82.1.28.22.57.34.84Q2.38,92.53,2.23,93.28Zm.07,1.29a12.32,12.32,0,0,0,.61,1.33c-.06.5-.11,1-.14,1.52a7.88,7.88,0,0,1-.6-1.15C2.2,95.7,2.25,95.14,2.3,94.57Zm-.19,2.88c0-.13,0-.27,0-.4l.47.85.13.22c0,.47,0,.93,0,1.4s0,1,0,1.54c-.22-.43-.43-.87-.63-1.31C2.06,99,2.09,98.19,2.11,97.45Zm.5,4.44c.06.12.11.24.17.35,0,.44.09.87.16,1.29A6.81,6.81,0,0,1,2.17,101C2.31,101.28,2.46,101.59,2.61,101.89Zm.2,2.51c-.1-.26-.17-.51-.26-.77a3,3,0,0,0,.33.28.09.09,0,0,0,.12,0,8.6,8.6,0,0,0,.32,1.16.13.13,0,0,0,.25,0c0-.43,0-.85,0-1.27.17.31.34.62.53.93A8.69,8.69,0,0,0,4.69,107a23.38,23.38,0,0,1-1.79-2.37Zm.33-5.52c.3.55.62,1.11,1,1.65a18.64,18.64,0,0,0-.15,2.7l-.56-.91c-.11-.94-.22-1.88-.25-2.82ZM4,107a9.09,9.09,0,0,0,1.19,1.13,6.94,6.94,0,0,0,.34,1.36A23.39,23.39,0,0,1,4,107Zm.84-1.26.28.32a9.35,9.35,0,0,0,0,1.4l-.18-.21a.11.11,0,0,0,.07-.11C5,106.68,4.9,106.22,4.84,105.76Zm8.85,11.78c0-.1,0-.21-.06-.31.49.43,1,.84,1.53,1.24l.06.26c-.5-.37-1-.75-1.5-1.13Zm2.43,1.61.06.28-.18-.12c0-.11-.06-.2-.09-.3Zm.64.44.45.3c0,.11.05.23.08.34l-.42-.3C16.83,119.82,16.8,119.7,16.76,119.59Zm21.63,19c-1.72-1.67-3.4-3.38-5.09-5.07a8.56,8.56,0,0,0,1.39-.62c.27.4.56.8.85,1.18l-.44.41c-.25.24.12.59.38.37l.4-.34,1.1,1.38a2.9,2.9,0,0,0,.4,1.29.27.27,0,0,0,.35.09l.22-.16c.29.37.58.74.89,1.11l-.05,0C38.61,138.07,38.29,138.29,38.39,138.55ZM37,133.47l.78,1.09-.6.59-.88-1.05C36.57,133.9,36.8,133.69,37,133.47Zm3.15,4.24c.25.31.5.61.76.91-.19.14-.39.26-.59.38-.19-.27-.39-.53-.59-.79l.11-.09A2.59,2.59,0,0,0,40.18,137.71Zm-.77.06c-.3-.37-.61-.74-.92-1.1l.54-.43c.26.36.54.71.81,1.06A3.2,3.2,0,0,1,39.41,137.77Zm-1.2-1.42-.15-.18-.55-.66c.2-.19.37-.39.56-.59l.76,1.05Zm.8,2.3.17-.07c.21.24.42.48.64.71l-.43.2Zm15.88,6.11a2.24,2.24,0,0,0-1-1,8.12,8.12,0,0,0-3.21-.48c-1.59-.08-3.08.1-3.58-2.22-.15-.72.13-1.5,0-2.23a2.32,2.32,0,0,0-.8-1.5c-.53-.43-.88-.29-1.43-.55-1.4-.64-2.48-1.15-2.71-2.76-.31-2.27.3-5-1.55-6.69-1.65-1.57-4.72-1.45-6.86-1.33s-4.27.53-6.23-.28c-2.25-.92-3-2.9-3.51-5.09s-.76-4.92-2.36-6.58c-2.81-2.9-9.25-1.63-9.36-7a.15.15,0,0,0-.29,0c-1,2.8,1.55,4.79,3.82,5.67,1.9.75,3.91,1.18,5.35,2.75s1.62,3.45,2.1,5.37a12.49,12.49,0,0,0,1.1,3L23.2,123a16.55,16.55,0,0,0-2.65-1.92c-.07,0-.12,0-.08.1a17.68,17.68,0,0,0,2.69,2.42c.73.6,1.46,1.2,2.23,1.73a5.41,5.41,0,0,0,1.74,1.16c3.41,1.38,7.44-.75,10.79.88,3.85,1.89,1.9,5.51,3.57,8.43a3.27,3.27,0,0,0,1.67,1.44c1.64.66,2.94.87,3.09,3.09a7.88,7.88,0,0,0,0,1.61c.62,2.38,3,2.19,5.07,2.34,1.5.11,2.51.13,3.23,1.91a18.3,18.3,0,0,1,.28,2.47,3.78,3.78,0,0,0,.26.74l-.52,0c-2.83-.05-5.34-1.71-7.53-3.35a2.79,2.79,0,0,0,.49-.72.2.2,0,0,0-.25-.24,2.79,2.79,0,0,0-.8.53l-.38-.29-.52-.4a1.37,1.37,0,0,0,.94-1.34.12.12,0,0,0-.22-.06,2.22,2.22,0,0,1-1.32.92l-.77-.61.28-.21a4.29,4.29,0,0,0,1-1,.15.15,0,0,0-.17-.22,4.34,4.34,0,0,0-1.24.74l-.37.31-1.06-.91a15.49,15.49,0,0,0,1.61-1.63c.07-.08,0-.22-.12-.15a15.76,15.76,0,0,0-1.93,1.39l-.88-.79.41-.39A6,6,0,0,0,43,139.81a.19.19,0,0,0-.21-.27,3.66,3.66,0,0,0-1.45,1,5.44,5.44,0,0,0-.41.42l-1.09-1a4.53,4.53,0,0,0,.44-.23,5.74,5.74,0,0,0,.45.41.14.14,0,0,0,.22-.17,4.43,4.43,0,0,0-.29-.46,3.9,3.9,0,0,0,.63-.51c.26.27.5.56.77.81.11.11.3,0,.21-.16-.21-.33-.45-.65-.68-1a4,4,0,0,0,.51-.76.08.08,0,0,0-.12-.09c-.2.19-.4.36-.61.54q-.47-.62-1-1.2a.5.5,0,0,0,0-.12c0-.13-.12-.17-.22-.12-.27-.32-.53-.63-.81-.94l.21-.18c.1-.08,0-.23-.13-.17s-.17.11-.26.15c-.31-.34-.62-.69-.94-1a14.78,14.78,0,0,0,1-1.24c.06-.08-.06-.15-.12-.1-.42.33-.8.67-1.18,1l-.9-1a7.52,7.52,0,0,0,.9-1c.1-.13-.09-.28-.22-.21a10.13,10.13,0,0,0-1.8,1.42c-.3-.34-.61-.66-.92-1a5.48,5.48,0,0,0,1.5-1.34c.08-.1-.07-.24-.17-.17-.57.39-1.13.77-1.71,1.12l0-.05a.14.14,0,0,0-.22.17h0a9,9,0,0,1-1.4.66l-.06,0c-1.86-1.85-3.73-3.68-5.69-5.41a94,94,0,0,0-8.16-6.21l-.07-.21a.23.23,0,0,0-.37-.1l-.67-.48c0-.12-.08-.24-.11-.36l0-.09c.35.21.69.43,1,.62.13.08.29-.11.17-.21-.46-.42-1-.83-1.45-1.24-.12-.37-.24-.74-.34-1.12a.2.2,0,0,0-.39.11c0,.18.09.36.13.54l-.56-.43a24.64,24.64,0,0,0-.87-2.5s-.05,0-.05,0a18.49,18.49,0,0,0,.39,2.1l-.31-.21a11.22,11.22,0,0,0-.94-2.54h0a8.8,8.8,0,0,0,.3,2.1q-.69-.43-1.38-.84c0-.43,0-.86,0-1.31a0,0,0,0,0,0,0,2.28,2.28,0,0,0-.42,1.06l-.68-.35s0,0,0,0c.21.22.45.42.68.64,0,.12,0,.25,0,.38L13,117a4.68,4.68,0,0,1-1.12-3.64c0-.19-.26-.28-.3-.08A5.06,5.06,0,0,0,11.7,116a39.75,39.75,0,0,1-4.19-4,.11.11,0,0,0,0-.14,12.86,12.86,0,0,1-.92-4c0-.25-.39-.24-.39,0A8.15,8.15,0,0,0,7,111.4c-.5-.59-1-1.2-1.42-1.84.07.07.21,0,.2-.08,0-.33,0-.66,0-1a.15.15,0,0,0,.08-.23l-.11-.12c0-.58-.06-1.16-.05-1.73a.11.11,0,0,0,0-.12l0-.07a10.69,10.69,0,0,1,.19-2.09c0-.3-.39-.41-.45-.11s-.14.84-.19,1.26c-.17-.31-.35-.62-.53-.93a19.39,19.39,0,0,1-.16-3.24,8.32,8.32,0,0,0,1.12,1.31c.1.1.23,0,.18-.15a12.54,12.54,0,0,0-1.23-2.13l.06-.52a.2.2,0,1,0-.39-.09.34.34,0,0,1,0,.1c-.16-.24-.32-.48-.47-.72L3.14,98c0-.52,0-1,0-1.56a9.15,9.15,0,0,0,1.5,1.94.14.14,0,0,0,.21-.18c-.55-1-1.12-1.9-1.65-2.84,0-.47.07-.93.12-1.4,0-.1-.16-.12-.18,0-.06.33-.11.67-.16,1-.22-.41-.44-.84-.64-1.27.07-.58.15-1.15.24-1.72A7.94,7.94,0,0,0,5.05,95c.11.08.3,0,.21-.17a28.41,28.41,0,0,1-2.38-3.57l-.09-.2.12-.64h0c0,.19-.1.38-.14.57-.16-.33-.3-.66-.43-1,.06-.44.11-.89.15-1.33a6.23,6.23,0,0,0,1.77,2.62c.09.07.25,0,.18-.15a18.17,18.17,0,0,1-1.84-3.51c0-.24,0-.49.07-.74a13.45,13.45,0,0,0,1.09,2.22c.09.14.35,0,.29-.14-.41-1.12-.86-2.22-1.3-3.32,0-.32,0-.65,0-1a39,39,0,0,0-.09-4.05,9.38,9.38,0,0,0,2.56,1.68c2.54,1.17,5,2.29,4.93,5.71,0,2.19-.74,4.36-.68,6.55a10.06,10.06,0,0,0,3.72,7.59c2.61,2,5.68,1.42,8.85,1.57,3.56.16,5.2,1.92,5.14,5.57,0,1.58-.2,3.17.49,4.62a3.53,3.53,0,0,0,1.95,1.9c.54.21,1.61,0,2,.32.74.51.36,1.62.56,2.32a4,4,0,0,0,2.28,2.67.28.28,0,0,0,.32.28l.35,0a12.07,12.07,0,0,0,4.18.28c2.9-.21,5.23.21,7,2.56a6.35,6.35,0,0,1,.83,6.72c-1.06,2.88-.19,4.46,3,4.5A3.75,3.75,0,0,1,54,138.72a4.29,4.29,0,0,0,.66,1.88,2.62,2.62,0,0,0,1,.88A4.39,4.39,0,0,0,54.89,144.76ZM55.2,138a6.62,6.62,0,0,0-.59-2,3.06,3.06,0,0,0-2.24-1.56,9.31,9.31,0,0,0-1.5-.07,5.15,5.15,0,0,1-1.35,0l-.76-1.19c-.82-.55-1-1.17-.47-1.86.26-1.3.87-2.33.85-3.72a7.24,7.24,0,0,0-3.21-6c-3.11-2-9.2.83-11.4-2.07-.89-1.15-.31-3-1.25-4-.55-.59-1.28-.47-2-.64-5.23-1.24-1.69-6.37-4.09-9.56-1.48-2-4.34-1.81-6.57-2a11.69,11.69,0,0,1-8.14-4.4.14.14,0,0,0,.12-.1,9.06,9.06,0,0,0,.17-1.48,6.23,6.23,0,0,0,.69.76,5.1,5.1,0,0,0,.09,1.11.19.19,0,0,0,.36,0,4.8,4.8,0,0,0,.12-.66,5,5,0,0,0,1.08.55c.12,0,.18-.13.08-.19A8.83,8.83,0,0,1,14.09,98c0-.09,0-.17,0-.26a3.25,3.25,0,0,0,1.2,1c.12.05.3-.07.2-.21-.48-.68-1-1.28-1.4-1.94,0-.25,0-.5,0-.74a.23.23,0,0,0-.44-.07,5.54,5.54,0,0,1-.4-1.21c0-.17-.32-.13-.3,0a7.47,7.47,0,0,0,.6,2.14l-.06.61a7.54,7.54,0,0,1-.69-.94c0-1-.09-2-.09-2.94a.19.19,0,0,0-.38,0c0,.6-.06,1.21-.1,1.83a6.5,6.5,0,0,1-.39-3.22s0,0,0,0a6,6,0,0,0,.36,4.2,12,12,0,0,0,.12,2.33,10.51,10.51,0,0,1-.86-1.34c-2.07-3.93.47-8.35-1.15-12.29a5.91,5.91,0,0,0-2-2.64c-1.59-1.13-4.44-1.62-5.7-3.33C2.45,78,2.3,77,2.11,75.94a5.26,5.26,0,0,1,0-2.55c.33-1.7.55-1.37,1.6-2.48,0,.08.08.16.13.24a14.13,14.13,0,0,1,1.73,3.53,6.85,6.85,0,0,0,1.15,2.51,4.53,4.53,0,0,0,3.81,1.63,3,3,0,0,0,1.17-.3.53.53,0,0,0,.37,0,.6.6,0,0,1,.66-.49c.7.09.49,2,.62,2.55a12.32,12.32,0,0,0-.6,2c-.47-1-.86-2-1.31-3,0,0-.06,0-.06,0a11.92,11.92,0,0,0,1.19,4,10.31,10.31,0,0,0,0,2.42,3.11,3.11,0,0,1-.23-.28,11.27,11.27,0,0,1-1.83-3.92s0,0,0,0a10,10,0,0,0,2.41,5.62,6.11,6.11,0,0,0,1,2c.1.13.34,0,.28-.19-.1-.32-.21-.63-.32-.94a5.3,5.3,0,0,0,.57.33,13.44,13.44,0,0,0,.28,2.47c-.91,1.75-.2,3.67,1.1,5.19A6.84,6.84,0,0,0,17,99c.07.09.26,0,.21-.09-.26-.64-.49-1.26-.69-1.89a9.9,9.9,0,0,0,1.59,1.2,3.17,3.17,0,0,0,1.47,2c.13.07.24-.11.15-.21a5.34,5.34,0,0,1-.92-1.44,5.6,5.6,0,0,0,1.51.48c.2,0,.33-.24.15-.34-.67-.37-1.32-.72-1.95-1.12a3.83,3.83,0,0,1,0-1c0-.3-.42-.27-.45,0a3.9,3.9,0,0,0,0,.59,9.7,9.7,0,0,1-1.3-1.1c-.18-.19-.37-.4-.56-.63A9.51,9.51,0,0,1,16,92.72a7.61,7.61,0,0,0,1.89,2.87,21.41,21.41,0,0,1,2.24,2.13,2.52,2.52,0,0,0,1.07,1,2.78,2.78,0,0,0,2-.29,2.67,2.67,0,0,0,.83.22s0,0,0,0a3.31,3.31,0,0,0-.39-.44,5,5,0,0,0,.77-.55c.27.19.57.35.83.5a2.8,2.8,0,0,0,1.34.55c0,.2,0,.41.08.62-.05.63-.05,1.26-.05,1.8a12,12,0,0,0,.15,2.22,8.93,8.93,0,0,1-2.16-4.78,0,0,0,0,0-.05,0,6.81,6.81,0,0,0,2.65,6.25,3.77,3.77,0,0,0,.92,1.29c.13.11.42,0,.33-.21s-.09-.23-.14-.35a5.38,5.38,0,0,0,1.81.61,3.5,3.5,0,0,0,1,1.29c.11.09.29,0,.21-.17-.18-.35-.35-.7-.5-1.07a3.79,3.79,0,0,0,.82-.07,5,5,0,0,0,.64,3c.09.14.37.08.35-.11-.15-1.31-.4-2.52-.45-3.78l.28.06A13.24,13.24,0,0,0,35,106.92c-1.45,1.09-.51,6,.14,7,1.18,1.78,4,2.53,5.84,3.42,1.17.56,2.28,1.23,3.27.59a.42.42,0,0,0,.27-.09l.57-.41c.37,2.22,1.64,4.67,3.65,5.69a.18.18,0,0,0,.22-.29,23.42,23.42,0,0,1-2.45-3,10.1,10.1,0,0,1-.79-1.74,4.34,4.34,0,0,1-.29-.9l.91-.66,2.34-1.69c-.67,3.28,2.33,7.71,5.5,9a3.3,3.3,0,0,0-.32.18.39.39,0,0,0-.06.64c-1.45.33-2.61,1.46-1.83,3.1.69,1.44,2.72,2.47,4,3.42s2.44,2.25,4,2a1.25,1.25,0,0,0,.26-.07,10.34,10.34,0,0,1-.9,4.35c-.69,1.3-2,2.08-3,3.11A5.73,5.73,0,0,1,55.2,138Zm9,2.92c-.16.45-.31.9-.47,1.36-.52.25-1,.53-1.58.82.11-.42.22-.83.32-1.24Zm-1.5,0c.05-.19.1-.37.16-.56.59-.23,1.19-.48,1.78-.74-.07.18-.13.36-.19.53C63.89,140.39,63.31,140.65,62.73,140.92ZM61.94,144c.55-.37,1.09-.75,1.61-1.13-.26.75-.59,1.52-.78,2.3-.49.23-1,.48-1.46.73C61.55,145.29,61.75,144.65,61.94,144Zm-.83-.29c-.58.35-1.16.72-1.72,1.1.09-.48.17-1,.26-1.46l2-1C61.44,142.77,61.27,143.24,61.11,143.71Zm.88-2.43c-.74.37-1.46.76-2.17,1.17,0-.1,0-.19,0-.29s.11-.45.16-.68c.75-.28,1.48-.58,2.19-.85C62.15,140.84,62.07,141.06,62,141.28ZM59.6,141a21.83,21.83,0,0,0-2,.85c.74-1,1.82-1.84,2.67-2.84A20,20,0,0,0,59.6,141Zm-2.8,1.25a6.1,6.1,0,0,1,1-.93ZM57,143a4.42,4.42,0,0,1,.34-.69,15,15,0,0,0,2.11-.57c0,.2-.11.4-.16.6s-.09.37-.14.56c-.79.48-1.56,1-2.3,1.48a.22.22,0,0,0,.23.38l1.83-1c-.14.55-.27,1.11-.36,1.67-.57.42-1.12.85-1.64,1.29,0,0,0,.06,0,0,.5-.22,1-.47,1.52-.72a6.93,6.93,0,0,0,0,.91.2.2,0,0,0,.39.05,10.65,10.65,0,0,0,.41-1.36c.53-.29,1.06-.59,1.58-.9-.16.56-.3,1.12-.4,1.67-1,.58-2,1.2-3,1.83A6.2,6.2,0,0,1,57,143Zm48.59-24.29a15.53,15.53,0,0,1-4.81,4.77,33.44,33.44,0,0,0-7,5.52c-2,2.16-4,4.34-6.25,6.31a28.75,28.75,0,0,1-7.8,5.18c-3.15,1.36-6.56,1.79-9.77,2.87-.5.17-1,.37-1.5.58.06-.18.11-.37.18-.54a6,6,0,0,1,.87-1.4c.22-.28-.28-.66-.51-.38a6.78,6.78,0,0,0-1,1.5,2.17,2.17,0,0,0-.33,1.16C64.49,145.76,61.34,148,58,149a5.34,5.34,0,0,1-.35-.48c.89-.39,1.8-.81,2.69-1.27a.09.09,0,0,1,0,.05c0,.18.27.24.36.09s.14-.29.22-.43c.6-.32,1.19-.66,1.77-1a1.5,1.5,0,0,0,0,.2c0,.19.25.23.34.09a4.06,4.06,0,0,0,.4-.74c.4-.25.78-.5,1.15-.77.11-.08,0-.29-.1-.23s-.52.21-.77.33c.21-.59.37-1.19.57-1.76l.9-2.6.94-.53a.16.16,0,0,0-.13-.28l-.62.23.17-.48a.26.26,0,0,0,0-.12c.5-.23,1-.48,1.48-.74a.12.12,0,0,0-.1-.22c-1.3.46-2.58,1-3.86,1.47a.27.27,0,0,0-.48,0l-.06.18-.86.33c-.46.19-.93.36-1.41.53.19-.78.36-1.56.48-2.34a4.62,4.62,0,0,0,.55-1,9.66,9.66,0,0,0,.51-2,50.75,50.75,0,0,0,6.58-2.64.16.16,0,0,0-.11-.29,48.72,48.72,0,0,0-6.42,2.5,8.51,8.51,0,0,0,0-2.14l1-.53c.76-.25,1.51-.51,2.25-.83.13-.06,0-.27-.1-.24l-.24.07c7.29-3.92,14.38-8.58,21.64-12.93a109.55,109.55,0,0,0,18.26-13.11c.2.61.46,1.21.67,1.81,0,.13.08.25.13.37-.36.31-.71.61-1.07.9a29.5,29.5,0,0,0-3.32,3,.06.06,0,0,0,.08.09,26.09,26.09,0,0,0,3.24-2.4l1.26-1c.13.41.28.8.44,1.2-.44.43-.88.87-1.33,1.29-1.33,1.25-2.81,2.42-4,3.78,0,0,0,.12.08.09A28,28,0,0,0,105,111H105l-.24,1.47-.81.86c-1.15,1.17-2.39,2.28-3.41,3.55-.06.07,0,.17.13.11a28,28,0,0,0,3.91-3.46h0l-.08.49c-.19.65-.36,1.2-.4,1.4s0,.12-.05.18l-1.22,1.3c-.68.66-1.37,1.31-2,2a.12.12,0,0,0,.15.18,27.89,27.89,0,0,0,2.81-2.2c-.12.49-.23,1-.31,1.49a42.38,42.38,0,0,0-3.47,3.06s0,0,0,0a17.51,17.51,0,0,0,3.36-2.35,4.42,4.42,0,0,0,0,.63.2.2,0,0,0,.25.19c-.94.93-1.86,1.88-2.8,2.81-.1.1.06.25.16.15,1.52-1.47,3.08-2.93,4.57-4.44Zm-.27-7.74,0-.06,0-.06,1-1c.1.19.19.38.3.57a.28.28,0,0,0,.13.11c-.43.43-.86.88-1.28,1.34a2.45,2.45,0,0,0,0-.27A1.82,1.82,0,0,0,105.3,110.92Zm.27,7.13c-.57.54-1.14,1.09-1.69,1.65a8.81,8.81,0,0,0,.42-1.35l.32-.28,1-.91C105.6,117.46,105.58,117.76,105.57,118.05Zm.19-1.71c-.43.4-.85.8-1.29,1.19.09-.5.17-1,.25-1.49.49-.48,1-1,1.43-1.51C106,115.13,105.86,115.74,105.76,116.34Zm.55,1c.06-.32.12-.65.17-1l.41-.41A11.86,11.86,0,0,1,106.31,117.34Zm.89-2.35-.61.57c.09-.63.17-1.27.27-1.9.27-.36.53-.72.77-1.08A13.24,13.24,0,0,1,107.2,115Zm-.09-2.71a2.21,2.21,0,0,1,0-.25.18.18,0,0,0-.34-.08c-.08.32-.17.64-.25,1l-1,1.19-.62.65c.12-.61.24-1.23.35-1.84a27.91,27.91,0,0,0,2.31-2.57,11.84,11.84,0,0,1,.06,1.33C107.48,111.87,107.29,112.07,107.11,112.28Zm.11-2.25a6.11,6.11,0,0,0,0-1.14.74.74,0,0,0,.12-.13c.07.32.14.64.18,1Zm.8-3.44a.82.82,0,0,0-1,.71l-.09-.33a11.23,11.23,0,0,0,.85-.84.16.16,0,0,0-.21-.24c-.28.17-.56.35-.82.54a7,7,0,0,0-1.17-2l1-1A19.9,19.9,0,0,1,108,106.59Zm-1.37-4.82c-.63.64-1.27,1.26-1.92,1.87,0,0,0,0,0,0s-.44,0-.43.18,0,.16,0,.24c-12.74,11.83-28.84,18.54-42.4,28,.17-.79.27-1.61.41-2.4a.16.16,0,0,0-.27-.15c0-.19,0-.39-.09-.58a177.41,177.41,0,0,0,22.5-12.71,130,130,0,0,0,20.48-16.34c13.17-12.9,24.48-28,36.3-42.88a6.39,6.39,0,0,0,.89.09C131.36,72.84,119.71,88.49,106.65,101.77Z"/><path class="cls-1" d="M102,108.77c.85-.52,1.71-1,2.51-1.61a.11.11,0,1,0-.11-.18c-.88.47-1.71,1-2.54,1.57A.13.13,0,1,0,102,108.77Z"/><path class="cls-1" d="M64.19,137.72c-1,.37-2,.75-2.95,1.14-.21.08-.12.41.09.32l3-1.2C64.45,137.91,64.34,137.66,64.19,137.72Z"/><path class="cls-1" d="M67.46,140.09a14.59,14.59,0,0,0-1.36,2.44,5.87,5.87,0,0,0-.72,2.38.19.19,0,0,0,.36.09,9.81,9.81,0,0,0,.8-2.14c.33-.91.74-1.78,1.14-2.65A.13.13,0,0,0,67.46,140.09Z"/><path class="cls-1" d="M70.77,141.77l-1-.76a.29.29,0,1,0-.36.45l1,.75c.27.2.59.56,1,.53a.19.19,0,0,0,.19-.23C71.49,142.17,71,142,70.77,141.77Z"/><path class="cls-1" d="M48.24,120.44a22.54,22.54,0,0,1-1.53-3.12c-.06-.14-.31-.07-.3.09a8.15,8.15,0,0,0,4.11,6.2.2.2,0,0,0,.23-.31A29.69,29.69,0,0,1,48.24,120.44Z"/><path class="cls-1" d="M52.34,59.28a9.13,9.13,0,0,1,5.7,2.2.17.17,0,0,0,.25-.21c-1.15-1.82-3.76-2.61-5.95-2.22C52.19,59.08,52.19,59.28,52.34,59.28Z"/><path class="cls-1" d="M52.94,88.85c-1.9,1.84-3.74,3.72-5.71,5.47-.79.7-1.61,1.38-2.43,2,.13-.77.26-1.54.37-2.31.73-.61,1.45-1.24,2.15-1.89-.07.51-.13,1-.16,1.52a.08.08,0,0,0,.15,0c.16-.63.29-1.27.41-1.92.59-.56,1.18-1.14,1.74-1.73,0,.13,0,.26-.05.39s.13.1.15,0,.09-.44.14-.67c1-1.06,2-2.14,2.86-3.27a.11.11,0,1,0-.16-.16c-.83.83-1.66,1.64-2.5,2.44.07-.36.13-.72.2-1.08,0-.15-.2-.22-.23-.06-.09.47-.18,1-.26,1.43q-.87.82-1.74,1.62c.12-.76.22-1.52.3-2.29.65-.64,1.28-1.28,1.88-2a.15.15,0,1,0-.22-.21l-1.57,1.41c.08-.66.15-1.32.24-2,0,0,0,0,0,0-.13.72-.27,1.45-.42,2.18-.75.69-1.52,1.37-2.27,2,.13-1,.27-2,.42-2.92,0-.17-.24-.25-.27-.08-.18,1.12-.38,2.25-.58,3.37-.37.34-.76.67-1.14,1l.18-1.3c.25-.22.5-.42.74-.64.09-.08,0-.25-.14-.17l-.55.43.09-.65s0,0,0,0l-.12.71c-.46.35-.92.7-1.37,1.07,0-.1,0-.2,0-.29s-.26-.17-.27,0,0,.35,0,.52c-2.1,1.71-4.12,3.52-6.21,5.26a0,0,0,0,0,.06.06c2-1.63,4.1-3.19,6.11-4.84l-.09,1.28-.17.13a.32.32,0,0,0-.25.22c-2.25,1.89-4.6,3.8-7.36,4.73a.15.15,0,1,0,.08.29,21.7,21.7,0,0,0,7.42-4.47l.1-.09h.11c-.05.66-.09,1.31-.13,2q-2.45,2-5,3.84a.13.13,0,1,0,.14.23c1.65-1,3.28-2.1,4.87-3.28,0,.55-.05,1.1-.05,1.64,0,.14.19.13.21,0,.08-.63.14-1.27.19-1.91.27-.2.54-.39.8-.6,0,.09,0,.18,0,.28s.09.06.09,0,0-.25.06-.37l1-.85c-.13.76-.25,1.53-.36,2.29-1.16.93-2.34,1.84-3.51,2.76-.12.09,0,.28.12.19,1.12-.71,2.23-1.48,3.32-2.3-.1.77-.2,1.54-.28,2.31-.44.29-.87.6-1.32.88a.19.19,0,1,0,.2.33,43.42,43.42,0,0,0,8-6.11c.11-.11,0-.31-.17-.2-2.14,1.71-4.24,3.4-6.47,4.93.17-.83.34-1.66.49-2.5a54.1,54.1,0,0,0,8.44-8A.12.12,0,1,0,52.94,88.85Zm-5-.16c-.16.8-.3,1.6-.43,2.41-.7.64-1.41,1.28-2.13,1.91.11-.75.22-1.5.32-2.25C46.41,90.08,47.16,89.39,47.89,88.69ZM44.32,90c-.08.45-.15.9-.22,1.34-.39.35-.78.7-1.18,1,0-.41,0-.82.07-1.23Zm-1.56,5.15c0-.56.07-1.12.1-1.68a1.1,1.1,0,0,0,.49-.14.22.22,0,0,0,0-.37.65.65,0,0,0-.22-.08l.83-.69c-.12.74-.22,1.49-.32,2.23Zm1-.84c.12-.74.24-1.49.34-2.24l1.1-1c-.13.77-.27,1.53-.4,2.31C44.46,93.77,44.11,94.06,43.76,94.35Z"/><path class="cls-1" d="M60.92,112.27a35.52,35.52,0,0,0,10.36-7.64.08.08,0,0,0-.12-.11A44.88,44.88,0,0,1,60.73,112C60.51,112.07,60.7,112.38,60.92,112.27Z"/><path class="cls-1" d="M78.93,105.24c-3.13,2.26-6.17,4.56-9.4,6.59s-6.64,3.64-9.83,5.59c0,0,0,.06,0,0a48.12,48.12,0,0,0,10.11-5.14,61.57,61.57,0,0,0,9.31-6.84A.16.16,0,0,0,78.93,105.24Z"/><path class="cls-1" d="M36.67,59.22a.06.06,0,0,0-.09-.07,67.5,67.5,0,0,1-16.32,15s0,.07,0,0A50.49,50.49,0,0,0,36.67,59.22Z"/><path class="cls-1" d="M24.4,73.62a83.33,83.33,0,0,0,12.53-11.9.07.07,0,1,0-.1-.09c-4.12,4.08-8.17,8.11-12.6,11.71C24.06,73.48,24.23,73.76,24.4,73.62Z"/><path class="cls-1" d="M23,76A88.19,88.19,0,0,0,39.68,61.69c.06-.06,0-.14-.1-.08A146.83,146.83,0,0,1,22.92,75.75C22.79,75.84,22.91,76,23,76Z"/><path class="cls-1" d="M40.69,64c-3.06,2.49-6,5.12-9,7.59-2.86,2.32-6,4.4-8.65,6.9,0,0,0,0,0,0,3.29-1.78,6.36-4.46,9.31-6.85a102.83,102.83,0,0,0,8.48-7.46C41,64.05,40.83,63.84,40.69,64Z"/><path class="cls-1" d="M91.8,66.76A81.23,81.23,0,0,0,102.34,49.4s0-.06-.07,0A109.28,109.28,0,0,1,91.73,66.72S91.77,66.8,91.8,66.76Z"/><path class="cls-1" d="M51.56,104.6s0-.06,0,0A0,0,0,0,0,51.56,104.6Z"/><path class="cls-1" d="M53.22,103.24a.12.12,0,1,0,.13.21A83.8,83.8,0,0,0,71.67,89.69c.06,0,0-.12-.08-.07A101.85,101.85,0,0,1,53.22,103.24Z"/><path class="cls-1" d="M128.08,68.55c0-.07-.07-.12-.12,0A192.4,192.4,0,0,1,107,92s0,0,0,0A127.82,127.82,0,0,0,128.08,68.55Z"/><path class="cls-1" d="M71.62,120.38c7.51-4,15.77-8.13,21.29-14.93.09-.11,0-.25-.15-.14-6.15,6.39-13.6,10.81-21.23,14.92A.09.09,0,0,0,71.62,120.38Z"/><path class="cls-1" d="M17.57,67A64,64,0,0,0,30.13,53.77c.06-.09-.08-.18-.15-.1A99.1,99.1,0,0,1,17.47,66.79C17.36,66.87,17.46,67,17.57,67Z"/><path class="cls-1" d="M20.58,93.61a3.52,3.52,0,0,1-2.21-2.7c0-.09-.18-.06-.18,0a3.21,3.21,0,0,0,.93,2.37c.72.7,1.85.74,2.33,1.67a.17.17,0,0,0,.31-.06C21.94,94.17,21.13,93.86,20.58,93.61Z"/><path class="cls-1" d="M9.68,75.16h.18c.43,0,.43-.75,0-.69l-.18,0A.33.33,0,0,0,9.68,75.16Z"/><path class="cls-1" d="M20.93,92.56v0a.82.82,0,0,0,.24-.1s.11-.07,0,0a1.09,1.09,0,0,0,.15-.08.2.2,0,0,0,.09-.23.46.46,0,0,0-.54-.26c-.31.08-.34.3-.41.56S20.83,92.81,20.93,92.56Z"/><path class="cls-1" d="M22.64,94.54c0,.07,0,.12,0,.18a.22.22,0,0,1-.09.13.23.23,0,0,0,.24.4.69.69,0,0,0,.35-.58.78.78,0,0,0,0-.16C23.23,94.16,22.61,94.19,22.64,94.54Z"/><path class="cls-1" d="M38.18,110.89a1.39,1.39,0,0,0-.18-.31.19.19,0,0,0-.27,0,1.32,1.32,0,0,0-.18.33C37.34,111.44,38.39,111.4,38.18,110.89Z"/><path class="cls-1" d="M41.17,112.32c.1-.27-.28-.31-.4-.16a.12.12,0,0,0-.19.09c-.09,1-1.26.23-1.76.19a1.14,1.14,0,0,0-.46,0c0-.25-.08-.51-.13-.76s-.53-.17-.48.15a6.44,6.44,0,0,1,.13,1.24c0,.41.61.38.64,0s.87-.25,1.1-.22a2.44,2.44,0,0,0,.66,0,.84.84,0,0,0,.57-.25c.07.21.13.45,0,.57s-.15.48.13.47a.26.26,0,0,0,.13-.48C40.87,113,41.1,112.51,41.17,112.32Z"/><path class="cls-1" d="M58.21,129.13c-.57-.16-1.17-.29-1.75-.42l.08-.08a.31.31,0,0,0-.31-.52.7.7,0,0,0-.44.74.3.3,0,0,0,.2.41c.68.17,1.35.4,2,.55A.35.35,0,0,0,58.21,129.13Z"/><path class="cls-1" d="M58.81,128a1.32,1.32,0,0,1-.23,0c.07,0,0-.11,0-.16a.12.12,0,0,0-.21-.08.62.62,0,0,0,.17.95C59,128.84,59.31,128.1,58.81,128Z"/><path class="cls-1" d="M56.75,126.64a.45.45,0,0,0,.34-.2.15.15,0,0,0-.09-.23l-.12,0c-.08-.1-.2-.19-.18-.26.11-.33-.42-.54-.56-.22a.65.65,0,0,0,0,.73A.5.5,0,0,0,56.75,126.64Z"/><path class="cls-1" d="M76,129.54c5.43-3.13,11.12-6.38,16-10.41.07-.06,0-.16-.1-.12-5.56,3.22-10.75,7-16.12,10.26A.16.16,0,1,0,76,129.54Z"/><path class="cls-1" d="M81,131.07a0,0,0,1,0,0-.06S81,131.07,81,131.07Z"/><path class="cls-1" d="M87.91,131.58c-4.33,2.36-8.79,4.62-12.9,7.18,0,0,0,.07,0,.05a61.42,61.42,0,0,0,13-7.05A.11.11,0,0,0,87.91,131.58Z"/><path class="cls-1" d="M83.08,135.27c-1.8.86-3.51,1.87-5.24,2.84-.26.15,0,.53.24.39,1.72-1,3.48-1.92,5.14-3A.13.13,0,0,0,83.08,135.27Z"/><path class="cls-1" d="M18.53,109a0,0,0,0,0,0,0S18.57,109,18.53,109Z"/><path class="cls-1" d="M22.58,110.07a4.54,4.54,0,0,0-3.23-1.13c-.19,0-.19.31,0,.3a4.21,4.21,0,0,1,3.1,1.14,3.79,3.79,0,0,1,.84,1.18,10.65,10.65,0,0,0,.49,1.41.17.17,0,0,0,.3,0C24.37,111.89,23.27,110.67,22.58,110.07Z"/><path class="cls-1" d="M25.69,115.29a.44.44,0,0,0,.1.37.15.15,0,0,0,.21,0,.49.49,0,0,0,.1-.39C26.1,115,25.69,115,25.69,115.29Z"/><path class="cls-1" d="M27.26,118.31c-.14,0-.29,0-.44,0a.26.26,0,0,0-.23.15.24.24,0,0,0,0,.27.27.27,0,0,0,.24.13l.44-.06A.23.23,0,0,0,27.26,118.31Z"/><path class="cls-1" d="M28.05,121.21c-.2,0-.34.1-.54.08a0,0,0,0,0,0,.09c.16.09.19.27.36.35a.83.83,0,0,0,.54,0,.18.18,0,0,0,.08-.3A.86.86,0,0,0,28.05,121.21Z"/><path class="cls-1" d="M32.28,121.74a1.5,1.5,0,0,0-.79.2c-.4.19,0,.83.35.59a1.33,1.33,0,0,0,.56-.49A.2.2,0,0,0,32.28,121.74Z"/><path class="cls-1" d="M31.82,122.87a.42.42,0,0,0,0,.74c.21.09.63,0,.52-.34a.27.27,0,0,0-.1-.11A.3.3,0,0,0,31.82,122.87Z"/><path class="cls-1" d="M36.44,123.78A.52.52,0,0,0,37,124a.2.2,0,0,0,.14-.14c.07-.27,0-.39-.21-.58S36.1,123.46,36.44,123.78Z"/><path class="cls-1" d="M42.34,126.92a.28.28,0,0,0,.51.2c.08-.15.27-.17.42-.23a.22.22,0,0,0,.07-.28C43.11,126.13,42.41,126.5,42.34,126.92Z"/><path class="cls-1" d="M44.4,129.83a.49.49,0,0,0-.19.49.12.12,0,0,0,.06.06.52.52,0,0,0,.5-.2A.25.25,0,0,0,44.4,129.83Z"/><path class="cls-1" d="M44.27,130.77c-.05.27-.1.54-.16.81a1.4,1.4,0,0,0,0,.7.18.18,0,0,0,.3.08,1.3,1.3,0,0,0,.25-.65l.18-.81C44.88,130.56,44.34,130.43,44.27,130.77Z"/><path class="cls-1" d="M35.66,131.31a3,3,0,0,1,2.48.15A5.26,5.26,0,0,1,39.7,133a.19.19,0,0,0,.32-.13c-.16-2-2.94-2.55-4.48-1.94C35.29,131,35.4,131.41,35.66,131.31Z"/><path class="cls-1" d="M65.94,80.84a59.11,59.11,0,0,0,6.17-5.24.13.13,0,0,0-.18-.2,60.4,60.4,0,0,0-6.27,5.1C65.46,80.68,65.73,81,65.94,80.84Z"/><path class="cls-1" d="M68.53,81.64a44.29,44.29,0,0,0,4.52-4,.13.13,0,0,0-.17-.19,43.67,43.67,0,0,0-4.68,3.91C68,81.54,68.3,81.83,68.53,81.64Z"/><path class="cls-1" d="M72,79.73a14.81,14.81,0,0,0-3.35,1.91c-.29.22,0,.68.29.45,1-.76,2.08-1.45,3.16-2.14A.12.12,0,0,0,72,79.73Z"/><path class="cls-1" d="M11.45,66.41c2.77-2.54,5.54-5.07,8.38-7.57a.14.14,0,0,0-.17-.21,52.81,52.81,0,0,0-8.52,7.48A.22.22,0,1,0,11.45,66.41Z"/><path class="cls-1" d="M48.6,70.82C43,76.5,37.34,82.17,30.67,86.56c0,0,0,0,0,0,6.68-4.4,13.1-9.27,18.07-15.62C48.83,70.87,48.7,70.72,48.6,70.82Z"/><path class="cls-1" d="M40.64,77.6c.06-.06,0-.19-.1-.13a44.81,44.81,0,0,0-6.89,6.15.05.05,0,0,0,.06.08A44.6,44.6,0,0,0,40.64,77.6Z"/><path class="cls-1" d="M38.6,78.31c.11-.11,0-.32-.17-.23A21.55,21.55,0,0,0,33.78,82s0,.06,0,0A21.32,21.32,0,0,0,38.6,78.31Z"/><path class="cls-1" d="M59,70.89a24.26,24.26,0,0,0,2.67-3.37,6.87,6.87,0,0,0,.53,2.57,5.36,5.36,0,0,0,2,2.73C62.75,74.42,61.3,76,60,77.71c-.09.12.1.24.2.14,1.52-1.54,2.9-3.23,4.29-4.9l.1,0a.25.25,0,0,0,.28-.37.43.43,0,0,1,0-.07l.41-.49a.16.16,0,1,0-.24-.21l-.36.41a20.89,20.89,0,0,1-1.86-2.62,7.8,7.8,0,0,1-.62-3c.18-.27.36-.53.53-.8a0,0,0,1,0,0,0l-.5.55c0-.23,0-.46,0-.69a.13.13,0,0,0-.26,0A5.25,5.25,0,0,0,61.63,67a25.86,25.86,0,0,0-2.88,3.72A.13.13,0,0,0,59,70.89Z"/><path class="cls-1" d="M49.69,110.34a20.29,20.29,0,0,0-2.58,1.52A12.55,12.55,0,0,0,45,113.41a.06.06,0,0,0,.05.09,17.11,17.11,0,0,0,4.82-3C50,110.44,49.81,110.29,49.69,110.34Z"/><path class="cls-1" d="M49.68,111.33a17.42,17.42,0,0,0-2.31,1.27l.14-.16a0,0,0,0,0,0,0l-.3.34q-.79.51-1.53,1.08c-.13.1,0,.29.18.22s.23-.12.35-.18c-.23.27-.46.53-.68.8,0,0,0,0,0,0,.27-.31.56-.61.84-.91a19.17,19.17,0,0,0,3.46-2.28C49.9,111.41,49.78,111.29,49.68,111.33Z"/><path class="cls-1" d="M5.61,77.3a7.48,7.48,0,0,1-1.32-3.85s0,0,0,0C3.52,76.15,5.89,80,8.87,80a.21.21,0,0,0,.1-.38C7.74,78.88,6.52,78.47,5.61,77.3Z"/><path class="cls-1" d="M17.39,109.21c-.2-.59-.24-1.2-.42-1.79,0,0,0,0,0,0a2.82,2.82,0,0,0-.14,1.2,14.34,14.34,0,0,1-1.4-2,3.73,3.73,0,0,1,0-.47c0-.17-.24-.16-.26,0a8.24,8.24,0,0,0,0,2.27,9.83,9.83,0,0,1-.75-.93,17.24,17.24,0,0,1-2-4.21s0,0,0,0a9.55,9.55,0,0,0,3.1,6.41,4.18,4.18,0,0,0,1.07,1.59.13.13,0,0,0,.21-.16l-.34-.7a6.53,6.53,0,0,0,1.07.58c.09,0,.17,0,.18-.14a3.81,3.81,0,0,0,.33.36.13.13,0,0,0,.2-.15c-.14-.29-.29-.58-.44-.87a4,4,0,0,0,.6.34.12.12,0,0,0,.15-.19C18.19,110,17.78,109.6,17.39,109.21Zm.16,1.45c-.55-.49-1.1-1-1.63-1.46a7.12,7.12,0,0,1-.52-2.36A7.57,7.57,0,0,0,17,109.49,4.41,4.41,0,0,0,17.55,110.66Z"/><path class="cls-1" d="M55.27,84.52c1.18-.74,2.37-1.45,3.5-2.26.07-.05,0-.17-.07-.12-1.21.68-2.35,1.48-3.51,2.23C55.1,84.43,55.18,84.57,55.27,84.52Z"/><path class="cls-1" d="M60.67,82.35a34.28,34.28,0,0,0-5.23,4.3s0,.08.05.06a34.12,34.12,0,0,0,5.28-4.23C60.84,82.42,60.75,82.3,60.67,82.35Z"/><path class="cls-1" d="M60.75,84.45a59.05,59.05,0,0,0-6.29,4.73c-.07.06,0,.18.1.13a60,60,0,0,0,6.31-4.7C61,84.54,60.84,84.38,60.75,84.45Z"/><path class="cls-1" d="M88.4,127.9c0,.09.11.14.15.06a52.06,52.06,0,0,0,2.58-6l1.3-1.06s0-.1-.07-.06l-1.12.85.3-.76s0,0,0,0l-.42.88c-.76.57-1.52,1.14-2.3,1.69l0-.07c.08-.21-.25-.29-.33-.09s-.16.37-.23.55q-2.1,1.5-4.28,2.87v-.11a0,0,0,0,0-.06,0l0,.18c-.47.3-.94.61-1.41.89a.12.12,0,1,0,.12.21c.42-.25.82-.51,1.23-.77a15.8,15.8,0,0,1-1.54,4.71c-2.22,1.27-4.44,2.5-6.67,3.72,0,0,0,.06,0,0,2.18-1,4.32-2.15,6.41-3.34a17.61,17.61,0,0,1-1.68,2.53.09.09,0,0,0,.13.13,10,10,0,0,0,2.39-3.15c.35-.2.7-.42,1-.63a.07.07,0,0,0,.12,0l.08-.16c.57-.34,1.15-.68,1.72-1l-.09.33a.1.1,0,0,0,.19.08c.13-.22.24-.47.36-.71.82-.52,1.63-1,2.44-1.58a0,0,0,1,0,0,0c-.75.45-1.51.87-2.26,1.32.86-1.76,1.49-3.7,2.17-5.52.78-.58,1.54-1.17,2.29-1.77A51.89,51.89,0,0,0,88.4,127.9Zm-4,2.76a19.85,19.85,0,0,0,1-2.2l1.28-.73a19.56,19.56,0,0,0-.67,2Zm2.42-3.32h0l-1.25.67c.18-.45.35-.89.52-1.33a0,0,0,0,0,0,0c-.25.49-.51,1-.76,1.5l-.65.35c-.18.1,0,.37.17.27l.23-.14a20.68,20.68,0,0,0-.93,2.18l-1,.57a10.29,10.29,0,0,0,.89-4.34q2.1-1.3,4.1-2.74C87.66,125.32,87.2,126.33,86.79,127.34Z"/><path class="cls-1" d="M91.88,125.39c0,.08.1.13.14.06a40.59,40.59,0,0,0,1.44-4.28s0,0,0,0A40.5,40.5,0,0,0,91.88,125.39Z"/><path class="cls-1" d="M94.83,122.59c-.34.58-.68,1.16-1,1.77a.1.1,0,0,0,.18.1c.38-.55.7-1.14,1-1.72C95.17,122.57,94.92,122.43,94.83,122.59Z"/><path class="cls-1" d="M58.69,114a1.08,1.08,0,0,0-.71.54c-.17.26.18.63.44.44a1.1,1.1,0,0,0,.53-.73A.21.21,0,0,0,58.69,114Z"/><path class="cls-1" d="M79.26,101.94c0-.07-.12-.12-.2,0-.52.39-1,.8-1.54,1.2,0-.29.07-.58.11-.87s-.3-.3-.33-.09c-.06.43-.14.86-.21,1.3l-1.22,1c0-.47.09-1,.11-1.43.28-.25.56-.5.82-.76.09-.09,0-.23-.12-.16l-.68.52c0-.64,0-1.28,0-1.89,0,0,0,0,0,0-.13.69-.26,1.43-.37,2.17L74,104.13c.13-1.12.23-2.25.32-3.37.32-.28.66-.55,1-.84a.17.17,0,0,0-.22-.26l-.72.53c0-.16,0-.33,0-.5s-.07,0-.07,0l-.12.62a174.83,174.83,0,0,1-17.26,11.78.2.2,0,1,0,.21.34A109.83,109.83,0,0,0,74.05,101c-.22,1.18-.43,2.37-.61,3.57-1.33,1-2.66,2-4,3h-.09a.36.36,0,0,0-.37.33c-2.29,1.65-4.62,3.22-7,4.67-.22.12,0,.43.19.31,2.44-1.38,4.87-2.88,7.21-4.51h.15a.37.37,0,0,0,.37-.35q1.8-1.27,3.5-2.67c0,.42-.11.83-.16,1.24-1.12.88-2.25,1.74-3.42,2.55a84.75,84.75,0,0,1-10,6c-.25.12,0,.46.2.34a78.75,78.75,0,0,0,10.3-5.91c.93-.63,1.87-1.29,2.79-2,0,.57-.1,1.13-.13,1.7,0,.11.17.14.2,0,.15-.68.27-1.36.39-2.06.62-.47,1.24-1,1.85-1.44,0,.15,0,.31,0,.47s.16.12.18,0,.1-.5.15-.76c.41-.34.82-.7,1.22-1.06a9.55,9.55,0,0,0-.08,1.3.1.1,0,0,0,.2,0,8.32,8.32,0,0,0,.36-1.76c.4-.37.79-.75,1.16-1.13a12.36,12.36,0,0,0-.2,1.62.08.08,0,0,0,.16,0,13.12,13.12,0,0,0,.28-1.74.13.13,0,0,0,0-.1l.08-.09a.37.37,0,0,0,.73-.09s0-.09,0-.13A.34.34,0,0,0,79.26,101.94Zm-5.56,4.18c.07-.43.13-.85.19-1.29.56-.47,1.12-1,1.66-1.46-.06.47-.11.94-.14,1.4Z"/><path class="cls-1" d="M82.18,101.75c.12.41.09.73.52.89a.24.24,0,0,0,.27-.11c.23-.37,0-.58-.13-1S82.06,101.32,82.18,101.75Z"/><path class="cls-1" d="M48.26,94.71a.32.32,0,0,0,.45.45.51.51,0,0,0,.24-.42.23.23,0,0,0-.28-.28A.48.48,0,0,0,48.26,94.71Z"/><path class="cls-1" d="M56.06,88.52l-.12.12c-.39.37.21,1,.58.59l.12-.13A.41.41,0,0,0,56.06,88.52Z"/><path class="cls-1" d="M52.61,80.29h.12a.35.35,0,0,0,0-.69h-.12a.34.34,0,0,0-.31.18.32.32,0,0,0,0,.35A.36.36,0,0,0,52.61,80.29Z"/><path class="cls-1" d="M19,90.19s0,0,0,0a5.54,5.54,0,0,0,.25-.68c.12-.43-.63-.43-.51,0A5.54,5.54,0,0,0,19,90.19Z"/><path class="cls-1" d="M22.5,92.82a.36.36,0,0,0,0,.72A.36.36,0,0,0,22.5,92.82Z"/><path class="cls-1" d="M76.17,38.46a.1.1,0,0,0,.2,0c1-2.78,1.7-5.65,2.48-8.49,0,0,0,0,0,0C77.89,32.81,76.89,35.6,76.17,38.46Z"/><path class="cls-1" d="M61.27,55A64.69,64.69,0,0,0,73.79,31.25s0,0,0,0A75.08,75.08,0,0,1,61.13,54.9C61.07,55,61.21,55.09,61.27,55Z"/><path class="cls-1" d="M37.25,39.23c7.43-7.16,12.06-16.58,14.59-26.46h0C49.22,22.65,43.73,31.41,37.05,39,36.93,39.17,37.12,39.36,37.25,39.23Z"/><path class="cls-1" d="M109.05,87.05c4.62-4.38,9-9,13.47-13.51,0,0,0,0,0,0C118,78,113.35,82.34,109,87,108.9,87,109,87.11,109.05,87.05Z"/><path class="cls-1" d="M139.5,53.13l.9.75a1.76,1.76,0,0,0,.73.48.16.16,0,0,0,.17-.23,1.86,1.86,0,0,0-.63-.65l-.78-.65a.52.52,0,0,0-.08-.2.16.16,0,0,0-.28,0,.41.41,0,0,0-.07.27A.18.18,0,0,0,139.5,53.13Z"/><path class="cls-1" d="M67.46,134.61a20.84,20.84,0,0,0-5.72,1.63c-.05,0,0,.1,0,.09a20.62,20.62,0,0,0,5.76-1.48A.12.12,0,0,0,67.46,134.61Z"/><path class="cls-1" d="M72.55,118.82c5.87-2.65,11.9-6.24,16.42-10.88,0,0,0-.09-.06-.06-2.66,2.08-5.22,4.25-8.06,6.1a70.94,70.94,0,0,1-8.39,4.68C72.35,118.71,72.44,118.86,72.55,118.82Z"/><path class="cls-1" d="M72,117.13c-3.1,1.61-6,3.64-9,5.5-.08.05,0,.19.09.14,3-1.78,6.14-3.47,9-5.49A.09.09,0,0,0,72,117.13Z"/><path class="cls-1" d="M65.13,66.1a9.92,9.92,0,0,0,1.69-1.61c.09-.12-.08-.26-.2-.19a9.9,9.9,0,0,0-1.86,1.43C64.51,66,64.87,66.31,65.13,66.1Z"/><path class="cls-1" d="M68.83,68.41a7,7,0,0,0-.78-1.74,0,0,0,0,0,0,0,6.87,6.87,0,0,0,.7,1.79A.07.07,0,0,0,68.83,68.41Z"/><path class="cls-1" d="M48.23,60.24a.27.27,0,0,0,.13-.49,19.58,19.58,0,0,0-2.25-1.11,10.69,10.69,0,0,1-2.42-1.86,14.74,14.74,0,0,1-3-5.1s-.05,0-.05,0A9,9,0,0,0,43,57.13C44.22,58.47,46.33,60.33,48.23,60.24Z"/><path class="cls-1" d="M80.77,91.73c-1.76,1.39-3.31,3-5,4.54C74,97.92,72.07,99.5,70.1,101c-3.67,2.78-7.61,5-11.45,7.54-.13.08,0,.31.1.25a56.74,56.74,0,0,0,12.18-7.39c3.58-2.71,7.54-5.72,10.15-9.42C81.22,91.77,80.93,91.61,80.77,91.73Z"/></g></g></g></svg>