<svg xmlns="http://www.w3.org/2000/svg" viewBox="0 0 124.47 126.96"><defs><style>.cls-1{fill:#5a5a68;}</style></defs><g id="Capa_2" data-name="Capa 2"><g id="_1" data-name="1"><g id="_9" data-name="9"><path class="cls-1" d="M123,14.3c-1.63-1.6-4.26-1.65-6.35-1.55a1.18,1.18,0,0,1-.83-.17.6.6,0,0,1-.14-.29c-.22-.76,0-2.61-.15-3.16A12.08,12.08,0,0,0,114,5.29,10.45,10.45,0,0,0,107.21.18,9.43,9.43,0,0,0,99,2.55C97,4.39,95.89,6.66,93.47,7.92s-5.07,2.48-7.65,3.64C74.06,16.88,61,18.65,49.1,23.81a70.66,70.66,0,0,0-12.48,6.48c-3.24,2.29-6,5.42-8.89,8.12-3.35,3.11-7.66,3.24-10.83,6a13.67,13.67,0,0,0-4.82,9.88c-.12,2.72.12,5.68-.84,8.28-1.22,3.32-4,5.89-6.17,8.59C-.41,78-2,88.3,3.16,95.88c2.6,3.78,6.34,6.56,8.79,10.48,3,4.77,4.15,10.53,8.26,14.59,8.1,8,19.48,6.38,29.57,4.36,6.8-1.36,13.68-2.06,20.52-3.22,7.31-1.25,13.1-4.4,17-11.06.87-1.51,1.58-3.12,2.54-4.58,1.88-2.83,4.61-4.92,6.66-7.61,1.92-2.5,2.86-5.63,4.21-8.47a125.06,125.06,0,0,0,7.06-19.92c3.27-11.74,5-24,8.74-35.61,1.57-4.82,4.8-8,6.94-12.45C124.6,19.89,125.18,16.45,123,14.3Zm-72.67,11q1.36-.34,2.73-.63a30.06,30.06,0,0,1,3.15-.15,33.12,33.12,0,0,1,8.64,1.27,49.42,49.42,0,0,0-23.75,3.77A77.14,77.14,0,0,1,50.31,25.29ZM95.88,59.61c.23,4.06.63,8.12.79,12.18.83,21.43-7.34,18.15-12.9,31.15-1.27,3-2.48,5.88-5.08,8a18.54,18.54,0,0,1-8.18,3.51c-6.1,1.23-12.41.31-18.53,1.47s-12.28,5.82-18.81,4.22c-3-.73-5-3.08-6.87-5.37-2.38-2.89-4.69-5.85-7-8.78-2.13-2.68-4.25-5.38-6.37-8.06-2.39-3-5.76-6.1-5.68-10.23.14-6.74,4.84-12.44,8.09-18a26.71,26.71,0,0,0,3.74-9.09A11.63,11.63,0,0,0,19,55.72c-.43-1.56-.93-3.21.4-4.49.85-.81,1.81-.76,2.94-.9a17,17,0,0,0,9.09-3.72c7.22-6,10.08-21.36,35.37-18.69a50.45,50.45,0,0,1,13.39,3.43,51,51,0,0,1,13.11,7.29c4.44,3.67,3.57,8.54,2.65,13.64A30.46,30.46,0,0,0,95.88,59.61Zm-8.69,48c-2.59,3.16-4.81,6.59-7.67,9.41-2.38,2.35-6.26,2.16-9.32,2.72s-7.26.49-10.34,1.18c-10.78,2.44-23.41,7.69-33.76,2.16-4.84-2.58-7-6.85-9.2-11.62a40.88,40.88,0,0,0-7-10.62c-3.25-3.58-6.24-6.57-7-11.59C1.67,81.56,4.62,76.4,9.14,70.64A24,24,0,0,0,14,59c.55-3.94-.82-7.06,1.89-10.64,2.83-3.76,6.09-4.15,10.16-5,3.58-.8,4.23-3.44,6.07-6.14,4.8-7,10.72-5.2,17.68-7.9C43.67,31.74,39.32,35.77,35.38,41c-3.19,4.18-6.3,7.65-11.65,8.74-1.7.34-3.52.21-5,1.33-2.08,1.62-.46,3.61-.3,5.71a17.62,17.62,0,0,1-.63,6,42.4,42.4,0,0,1-5.24,10.89c-2.9,4.73-7,10.75-6.08,16.65.42,2.69,2.37,4.76,4,6.82l7.27,9.35c2.22,2.86,4.43,5.74,6.63,8.61,1.81,2.36,3.53,5,6.17,6.53,5.63,3.16,12-.17,17.34-2.1,6.83-2.44,13.9-1.4,20.93-2.34,5.08-.67,10.3-2.6,13.29-7,1.63-2.43,2.42-5.28,3.67-7.91C91,91.09,101.71,95.25,96.54,54c.4-1.36.86-2.9,1.18-4.49C104.23,80.43,98,94.53,87.19,107.64ZM116.61,21a37.64,37.64,0,0,1,1.46,5c-.38.61-.75,1.24-1.09,1.87a35.39,35.39,0,0,0-2.28-8.18c-.14-.37-.74-.21-.6.17a44,44,0,0,1,2,9.79l-.19.39a24.77,24.77,0,0,0-3.34-9.85,1.17,1.17,0,0,0,0-.74c.12-.38.24-.7-.2-.75a10.92,10.92,0,0,1-.24-1.41c0-.52-.87-.53-.82,0a10.64,10.64,0,0,0,.45,2.32,5.1,5.1,0,0,0-.34,3c.06.16.3.22.38.05a6.24,6.24,0,0,0,.38-1.67c0-.22.1-.44.15-.66l.07,0C115,28.59,114.21,26.4,115,32l-.06.18c-.55-3-1.45-4.82-1.42-4.15.09,2,.41,2.85.65,6.3-.43,1.3-.8,2.62-1.15,3.95-.06-.29-.12-.57-.19-.85a.12.12,0,0,0,.23-.05,28.62,28.62,0,0,0-.68-5.13.14.14,0,0,0-.28,0c.13,1.29.21,2.62.44,3.91-.13-.34-.67-.16-.6.22a40,40,0,0,1,.51,4.21q-.57,2.53-1.08,5.09a32.78,32.78,0,0,0-1.77-6.9s-.06,0-.06,0a77.89,77.89,0,0,1,1.08,10.49c-.56,2.65-.52,2.35-1,4.47-.14-5.46-1.95-11.18-1.92-10.18.08,2.65.57,5.29.78,7.94.15,1.87.12,3.77.28,5.65-.34,1.27-.68,2.54-1,3.8.48-7.2-1.82-13.88-1.78-12.88.1,2.83.55,5.64.67,8.47s-.2,5.7-.1,8.56c-.13.42-.25.84-.38,1.26,0-6.85-1.42-15.3-1.45-14.29-.18,5.65,1,11.14.24,16.78-.12,1-1.27,5.64-1.45,6.21,1.61-9.3-.72-18.22-.81-19.22a70.42,70.42,0,0,1-.27,17.35,154.76,154.76,0,0,0-2-22.52c-.71-5-1.82-9.46-5.62-13C89.55,32.91,79.19,27.47,66.91,26a27.34,27.34,0,0,0-10.52-2c1-.17,2-.34,2.93-.48a134,134,0,0,1,14.58-1,.13.13,0,0,0,0-.25,57.83,57.83,0,0,0-14.21.62c-2.07.3-4.12.71-6.14,1.19h-.1c2.57-.9,5.21-1.73,8-2.55,3.89-.6,7.8-.94,11.76-1.23.16,0,.17-.26,0-.26a55.91,55.91,0,0,0-8.57.56c4.35-1.25,9-2.54,14.09-4.11,2,0,4,.09,6.08.21a.15.15,0,0,0,0-.29A20.14,20.14,0,0,0,80.38,16c1.11-.36,2.22-.74,3.32-1.14,2.1.19,9.73,1.28,7.66.43a16,16,0,0,0-5.87-1.1c.7-.28,1.39-.56,2.07-.86,2.25.19,4.48.41,6.72.77.14,0,.21-.18.06-.22a20.78,20.78,0,0,0-5.86-1c.88-.41,1.74-.84,2.58-1.3a57.65,57.65,0,0,1,6.48,1c.17,0,.31-.22.13-.3A16.1,16.1,0,0,0,92,11.07l.51-.31c.45.08.91.16,1.36.27,1.12.28,2.2.71,3.33,1a.17.17,0,0,0,.13-.31,10.73,10.73,0,0,0-4.11-1.36c.6-.38,1.17-.79,1.74-1.22.89.1,1.78.18,2.66.35s1.57.42,2.38.51c.14,0,.16-.17.06-.24a7.23,7.23,0,0,0-4.78-.86,11,11,0,0,0,1.52-1.32c4.88,1.74,4.76.68.47-.49.47-.49.91-1,1.35-1.5,1.12,1,3.13,1.49.33-.37,2-2.2,4-4.15,7.44-3.6,4.62.71,6.45,4,7.21,7.6l-.24-.41a.14.14,0,0,0,0-.14l-.17-.19a36.91,36.91,0,0,0-3.79-5.53q1.3,2,2.47,4a37.65,37.65,0,0,0-4.5-4s0,0,0,0a35.84,35.84,0,0,0,5.33,5.48c.44.87.84,1.77,1.24,2.67q.09.81.15,1.59A36.12,36.12,0,0,0,109.67,6a32.29,32.29,0,0,1,3.09,5.06,11.24,11.24,0,0,1,1.32,5.65c0,.38,0,.82.37,1,1.44-1.12,1.31-3.21,3.26-3.71a4.06,4.06,0,0,1,4.1,1.6,2.75,2.75,0,0,1,.74,2,4.27,4.27,0,0,1-.22,1.12c-.14-.57-.31-1.15-.47-1.72a.16.16,0,0,0-.3.08l.08.29c-.06.25-.11.51-.16.77A8.13,8.13,0,0,0,120.22,16a.1.1,0,0,0-.16.12,7.87,7.87,0,0,1,1.12,2.55,5.93,5.93,0,0,1,.1.72c-.08.57-.13,1.14-.16,1.69l-.15.21a14.31,14.31,0,0,0-.65-1.8c0-.14,0-.28,0-.42,0-.67,0-1.35,0-2a.26.26,0,0,0-.51,0v.06a5.76,5.76,0,0,0-.47-.89s0,0,0,0c.15.56.29,1.12.39,1.69a12,12,0,0,0-.72-1.49s-.07,0-.07,0a19.64,19.64,0,0,0,.87,3c0,.29,0,.58,0,.87-.08.51-.21,1-.32,1.53A5.58,5.58,0,0,0,116.69,18a.12.12,0,0,0-.14.18,9,9,0,0,1,1.89,2.61,11.35,11.35,0,0,1,.56,3.16.13.13,0,0,0,.09.13,1.59,1.59,0,0,0-.33.86C118,22.47,116.45,20.5,116.61,21Zm2.9,1.7h0a4.61,4.61,0,0,0,.71-1.85,9.17,9.17,0,0,0,.41.9c-.42.59-.86,1.21-1.21,1.74A4,4,0,0,0,119.51,22.73ZM121.87,20a4.9,4.9,0,0,0-.23-1.35c0-.34,0-.68,0-1q.21.84.48,1.65c0,.12-.08.24-.13.37A2.15,2.15,0,0,1,121.87,20Z"/><path class="cls-1" d="M97.49,27.34c.53,1.78,1.92,6.77,2,5.24C99.49,30.14,97.19,26.34,97.49,27.34Z"/><path class="cls-1" d="M109.07,15.29s-.06,0,0,0a26.17,26.17,0,0,0,.69,4c0,.05-.47,2.64-.48,2.7-.45-1.16-.2-.47-.64-1.7.16-1,.31-2,.46-2.95.08-.47-.64-.68-.73-.2s-.19,1-.3,1.51c-.57-1.7-.52-1.69-.14.68-.19.89-.38,1.79-.59,2.68-.2-.65-.43-1.3-.65-1.94.61-4.45.35-3.44-.33-.94-.24-.7-.19-.45,0,.19-.38,1.43-.77,2.86-1.15,4.29-.19-.54-.39-1.07-.6-1.6.61-5,.32-4-.44-1.06a28.85,28.85,0,0,0-2.75-5.19,48.21,48.21,0,0,1,2.47,6.29l-.6,2.35c-.23-.55-.47-1.11-.73-1.65.17-.82.34-1.63.49-2.44,0-.19-.25-.28-.29-.08-.15.66-.31,1.31-.48,2-2.07-4.12-4.62-6.94-4.19-6.14,1.33,2.51,2.69,5,3.79,7.58-.25.9-.52,1.79-.8,2.68-2-4.29-5.7-7.75-5-6.75a37.56,37.56,0,0,1,4.53,8.23l-.42,1.38a21.51,21.51,0,0,0-3-6.57s0,0,0,0a55.06,55.06,0,0,1,3.38,11.46c0,.17.29.13.29,0a19.74,19.74,0,0,0-.55-4.32c.19-.41.37-.83.53-1.26.22.59.42,1.19.61,1.8a21.44,21.44,0,0,0-.53,2.24.25.25,0,0,0,.45.19c.18-.31.34-.65.51-1,.33,1.24.62,2.53.85,3.87,0,.17.28.12.29,0a19.23,19.23,0,0,0-.55-5.14,23.26,23.26,0,0,0,.87-2.43c.13.46.26.91.38,1.36,0,.21-.1.41-.14.61s.24.38.37.21c.27,1,.56,2,.9,2.95a.17.17,0,0,0,.33,0,19.83,19.83,0,0,0-.57-4.51c.23-.62.44-1.26.64-1.9.22.78.45,1.56.69,2.35-.06.33-.11.67-.16,1a.24.24,0,0,0,.46.13s0,0,0-.05v0c.06.18.36.16.34,0s-.06-.49-.09-.73a38.65,38.65,0,0,0,1.27-4.51c.06.16.11.33.17.49a.12.12,0,0,0,.23-.06c-.07-.38-.16-.74-.25-1.11.18-.83.33-1.66.48-2.5a8,8,0,0,0,.65,1.68c-.62,4.33.37,5.75,1.23-2.31a3.43,3.43,0,0,0,.49.88.23.23,0,0,0,.4-.16,10.75,10.75,0,0,0-.93-3.05C109.8,17.59,109.47,16.43,109.07,15.29ZM101.9,28.66c-.18-.55-.38-1.08-.6-1.61.29-.88.55-1.78.78-2.69a15.17,15.17,0,0,1,.64,1.79C102.46,27,102.18,27.82,101.9,28.66Zm2.29-1.42c-.12-.4-.25-.79-.39-1.19.19-.81.34-1.62.47-2.43.16.5.31,1,.46,1.51C104.54,25.83,104.36,26.54,104.19,27.24Zm2,.17c-.15-.74-.33-1.47-.54-2.2a43.51,43.51,0,0,0,.94-4.54c.16.74.34,1.48.55,2.22C106.77,24.39,106.44,25.9,106.16,27.41Z"/><path class="cls-1" d="M112.83,22a.05.05,0,0,0,0,.1A.05.05,0,1,0,112.83,22Z"/><path class="cls-1" d="M102.32,49.92c.47,1.85.77-4-2.89-10.53C99.43,39.39,100.18,41.62,102.32,49.92Z"/><path class="cls-1" d="M85.53,29c-6.76-2.55-13.81-5-21-5.55,0,0,0,0,0,0a140.85,140.85,0,0,1,19.36,5.92c5.92,2.14,11.08,4.58,15,9.63C99.61,40,98.37,33.85,85.53,29Z"/><path class="cls-1" d="M92,76.43c.66,4.64.6,8.21-2,12.32a.23.23,0,0,0,.36.28c3-3.13,4.38-8.86,1.78-12.67A.09.09,0,0,0,92,76.43Z"/><path class="cls-1" d="M54.33,62.17c-.73.24-1.3.81-2,1.06l-.33.08c-1,.18-2.08-.24-3.15-.07a4.89,4.89,0,0,0-4,3.61c-1,3.63-.75,8-.72,11.68,0,2.92-.76,4.2,2.41,4.85,2.81.59,6.93,1.5,9.6.08a3.91,3.91,0,0,0,2-4.68c-.77-2-3-2.6-1.45-5.27.92-1.58,2.35-2.82,3.1-4.52C61.34,65.55,58.46,60.81,54.33,62.17Zm1,10.68a4,4,0,0,0-.8,3.26c.53,1.87,3.07,2.81,1.3,5.07-1.54,2-5.63,1-7.77.66-1.74-.29-2.2-.49-2.48-2.26a11.39,11.39,0,0,1,.34-2.87c.26-2.21.19-4.45.27-6.68.06-1.49-.06-3,1.05-4.19,1.34-1.46,4.73-1.27,6.62-1.68,2.18-.47,4.71.15,4.87,2.73C58.85,69.31,56.49,71,55.29,72.85Z"/><path class="cls-1" d="M49.27,68.7a1.54,1.54,0,0,0-.05.43.61.61,0,0,0,1.22,0,1.54,1.54,0,0,0,0-.43A.59.59,0,0,0,49.27,68.7Z"/><path class="cls-1" d="M53.48,67.56a.47.47,0,0,0,0,.94A.47.47,0,0,0,53.48,67.56Z"/><path class="cls-1" d="M57,65.52a2,2,0,0,0-.9-.29.22.22,0,0,0-.19.32,1.73,1.73,0,0,0,.75.55C57,66.32,57.33,65.69,57,65.52Z"/><path class="cls-1" d="M51.29,73.9a.34.34,0,0,0,0,.67A.34.34,0,0,0,51.29,73.9Z"/><path class="cls-1" d="M77.94,68.47a12.62,12.62,0,0,0-7.63-1c-2.23.44-5.17,1.87-6.09,4.09-1.86,1.31-.81,8.54-.93,10-.63,7.39-7.6,8.18-13.12,10.65-3.82,1.72-7.85,4.94-8.5,9.34s2.36,7.87,6.1,9.52c5,2.22,11.09,1,16.24-.11,5.41-1.14,8.51-4.18,11.81-8.42,3.18-4.07,7.89-7.37,9.93-12.2a17.62,17.62,0,0,0,.52-11.79A16,16,0,0,0,77.94,68.47ZM84.5,90.76c-1.93,3.86-5.7,6.47-8.37,9.78a53.46,53.46,0,0,1-4.74,5.54C69.1,107,67,108.39,64.61,109c-2.91.67-5.67-.28-8.56-.52s-5.72.2-8.3-1a15.45,15.45,0,0,0,1.39-.74,4.64,4.64,0,0,1-.58-.6c-.46.34-.91.69-1.35,1.06-3.89-2.26-2.71-6.57-1-9.9,0,0,0-.06-.05,0-1.2,2.32-2.79,5.17-1.68,7.83a5.51,5.51,0,0,0,2.36,2.57c0,.09.12.16.22.12a10.26,10.26,0,0,0,3.15,1c1.93.32,3.91.15,5.85.33,2.31.21,4.49,1.08,6.83,1,.42,0,.83-.07,1.25-.14-4.39,1.17-9.63,1.84-13.87.85-5-1.18-9.3-5.91-6.9-11.17,2.06-4.52,6.8-6.4,11.15-8C57.7,90.43,61.1,89,62.83,85.9a11.48,11.48,0,0,0,1.23-5.25c0-.89-.36-5.3.2-7.54a15.91,15.91,0,0,1,.95-1.29.62.62,0,0,1,.27,0c.23.06.3-.25.09-.34l0,0a9.17,9.17,0,0,1,11-2.54,16.1,16.1,0,0,1,8.94,10.19A16.37,16.37,0,0,1,84.5,90.76Z"/><path class="cls-1" d="M37.52,97.13c1.06-2.19.57-4.67,1.45-6.88s3.13-3.4,3.73-5.69A7.4,7.4,0,0,0,42,79.85c-1.46-3.37-3.86-5.91-3.24-9.87.55-3.52,2.1-7.16.81-10.7-1-2.75-4.34-3.77-7.06-4.11a19.3,19.3,0,0,0-3.92-.44c-3.06.35-4.49,4.27-5.05,6.79-1.4,6.29-5,10.7-8.82,15.67-2.75,3.59-4.65,7.48-4.28,12.09a15.58,15.58,0,0,0,5.13,10.51C21.5,104.9,33.69,105,37.52,97.13Zm-6.87,4.45a15,15,0,0,1-12.16-.93c-8.12-4.47-8.79-14.89-3.78-21.86C17.3,75.18,20.33,72,22.24,68a29.27,29.27,0,0,0,1.89-5.32C25.06,58.9,25.2,56,29.81,56c2.83,0,7.68.46,9.18,3.35,1.82,3.54-.77,7.68-1.1,11.31s1.82,6.07,3.25,9.22.66,5.19-1.48,7.6a7.8,7.8,0,0,0-1.83,3.27c-.51,2-.25,4.06-1.18,5.93A10.54,10.54,0,0,1,30.65,101.58Z"/><path class="cls-1" d="M45.31,46.77a7.65,7.65,0,0,1,4.24-7.35s0,0,0,0c-3,1.48-5.14,4.26-4.89,7.74.21,3,2.44,6.24,5.52,6.77a.3.3,0,0,0,.24-.55C47.84,51.77,45.59,50.07,45.31,46.77Z"/><path class="cls-1" d="M66.26,35.83c2.47.6,3.28,2.4,4.47,4.36a12.18,12.18,0,0,0,5.12,4.3c2.62,1.38,5.9,2.51,7.57,5.13,1.37,2.16,1.83,6.1,0,8.07-1.18,1.27-2.89,1.61-4.49,2.15-.31.1-.28.62.08.59,3-.25,5.91-1.48,6.32-4.78a9.32,9.32,0,0,0-4.27-9.11c-1.76-1.17-3.75-1.93-5.6-2.95-2.53-1.39-3.75-3.13-5.23-5.5-2.06-3.3-5.3-3-8.68-2.35,0,0,0,0,0,0A14.88,14.88,0,0,1,66.26,35.83Z"/><path class="cls-1" d="M67.11,75.77a11.11,11.11,0,0,1,3.7-4,11.79,11.79,0,0,1,5.28-1.35.22.22,0,0,0,.06-.43c-3.77-1-8.32,2.07-9.27,5.71A.13.13,0,0,0,67.11,75.77Z"/><path class="cls-1" d="M79.73,93.2a6,6,0,0,0-2.79,3.08c-1.24,2.4-2,4.4-4.48,5.88-4.9,2.94-11.3,4.55-16.84,2.78a.09.09,0,0,0-.07.16c4.65,2.41,9.82,1.12,14.39-.86,2.07-.89,4.23-1.86,5.55-3.77,1.65-2.38,2-5.14,4.39-7A.15.15,0,0,0,79.73,93.2Z"/><path class="cls-1" d="M23.19,99.4C12.88,100,12.93,84.77,17.75,79a.15.15,0,0,0-.21-.2c-3.66,3.2-4.17,8.85-3.37,13.38.75,4.23,4.21,9,9.07,7.57A.18.18,0,0,0,23.19,99.4Z"/><path class="cls-1" d="M38.1,79.48a14,14,0,0,1-.81,7.83c-.07.2.23.32.34.14A11.59,11.59,0,0,0,38,77.18c-.47-1.08-1.17-2-1.71-3.08-1.13-2.22-.71-4-.46-6.32A38.11,38.11,0,0,0,36,61.11a0,0,0,0,0,0,0,29.11,29.11,0,0,1-.61,7.5c-.35,1.83-.65,3.2.06,5C36.19,75.65,37.61,77.26,38.1,79.48Z"/><path class="cls-1" d="M20.59,83.67l-.33-1.51a16,16,0,0,1-.76-2.08s0,0,0,0a23.1,23.1,0,0,0,.69,2.45c-.11.46-.21.92-.29,1.39-.63,3.84,0,8.32,3.3,10.79.17.14.34-.13.22-.28A12.92,12.92,0,0,1,20.59,83.67Z"/><path class="cls-1" d="M59.31,42C58.22,42,57.12,42,56,42a.18.18,0,0,0,0,.35c1.09,0,2.19,0,3.28-.06A.12.12,0,0,0,59.31,42Z"/><path class="cls-1" d="M37.58,99.21c-.25.08-.23.49.06.47a4.18,4.18,0,0,0,3.76-3.12c1.21-3.43-.68-8.09,3.35-10.12.09,0,0-.17-.07-.16C38.42,87.58,43.25,97.17,37.58,99.21Z"/><path class="cls-1" d="M53.33,89.34c2.3-.51,4.91-1.07,6.57-2.88a.29.29,0,0,0-.35-.45c-3,1.64-6,2.26-9.27,3.13-2.33.63-4.48,1.51-5.73,3.68,0,0,0,0,0,0C47.13,90.68,50.15,90.05,53.33,89.34Z"/><path class="cls-1" d="M80.81,69.08s0,0,0,0c4.5.31,5.74,7.28,6.78,10.62a.21.21,0,0,0,.4,0C87.88,76,85.51,68.7,80.81,69.08Z"/><path class="cls-1" d="M87.15,69.41a.22.22,0,0,0-.4.17c.39,1.14.83,2.26,1.29,3.38a7,7,0,0,0,1.3,2.57.25.25,0,0,0,.42-.18,7,7,0,0,0-1-2.7C88.25,71.56,87.72,70.47,87.15,69.41Z"/><path class="cls-1" d="M41.74,55.41a.29.29,0,0,0,.35-.46c-1.56-1.69-3.69-3-4.38-5.36-.82-2.76,1-5.25,2.13-7.61.08-.16-.13-.36-.27-.21-1.75,2-3.33,4.55-2.93,7.3S39.4,54.13,41.74,55.41Z"/><path class="cls-1" d="M82.21,105.1A44,44,0,0,1,77.12,110a13.18,13.18,0,0,1-6.53,2.24s0,0,0,0c4.73,1.3,9.34-3.59,11.8-7C82.46,105.13,82.3,105,82.21,105.1Z"/><path class="cls-1" d="M80.34,105.13c.07-.11-.09-.24-.18-.14a17.32,17.32,0,0,1-7.29,5.23h0A12,12,0,0,0,80.34,105.13Z"/><path class="cls-1" d="M37.12,117.2c-2.24-.36-4.51-.36-6.59-1.42A7.29,7.29,0,0,1,26.68,111s0,0,0,0c.11,5,6.39,6.79,10.43,6.46C37.24,117.49,37.31,117.23,37.12,117.2Z"/><path class="cls-1" d="M38.51,115.52a11.4,11.4,0,0,1-4.39-.32,9.07,9.07,0,0,1-2-.88c-.35-.2-2.63-1.73-1.64-2.11,0,0,0-.07,0,0-1.36.7,1,2.35,1.59,2.69a8.24,8.24,0,0,0,6.5,1C38.75,115.83,38.73,115.5,38.51,115.52Z"/><path class="cls-1" d="M21.09,58.9c-1.48-3.56,1.49-7.26,4.68-8.38.12-.05.12-.26,0-.25a5.9,5.9,0,0,0-4.29,3.1A6.56,6.56,0,0,0,21,58.91S21.1,58.93,21.09,58.9Z"/><path class="cls-1" d="M21.3,63.29a.1.1,0,0,0,.2,0,15,15,0,0,1,1.67-6.63,20.58,20.58,0,0,1,4.11-5,.15.15,0,0,0-.17-.23C23.16,53.63,21.13,59,21.3,63.29Z"/><path class="cls-1" d="M47.64,34.72a11.92,11.92,0,0,1,4.54-1h.43l.82,0C49.57,35.26,45.32,37.33,43,41c-1.79,2.8-2.41,6.87-.43,9.74a9.6,9.6,0,0,0,4,2.94,12,12,0,0,1,2.84,1.68c1,.87,1.36,2.08,2.21,3,1,1.11,2.3,1.23,3.7,1.37,2,.2,3.28.38,4.39,2.26a4.73,4.73,0,0,0,1.38,1.86c1.62,1,4.46.7,6.31.83l9.68.68c2.26.16,4.62.44,6.71-.62a11.46,11.46,0,0,0,4-4c2.3-3.46,3.76-8,2.5-12.09-1.11-3.63-4.23-5.89-7.46-7.55-2.23-1.14-4.56-2.08-6.74-3.31-2.36-1.34-4.39-3.21-6.88-4.31-4.39-1.95-9.58-1.64-14.3-.78a19,19,0,0,0-15.26,7.66A21.28,21.28,0,0,1,47.64,34.72ZM66,33.22c4.13.88,7,3.86,10.69,5.77,3,1.6,6.35,2.76,9.09,4.87,3.82,2.94,4.9,7.47,3.41,12a18.22,18.22,0,0,1-2.67,5.09,8,8,0,0,1-7.42,3.65c-4.79-.08-9.62-.66-14.4-1-1.62-.11-3.16-.41-4.18-1.74-.27-.36-.38-.85-.66-1.22a4.11,4.11,0,0,0-3-1.59c-2.36-.33-3.89-.12-5.36-2.31A8.26,8.26,0,0,0,48.93,54c-1.76-1.1-3.91-1.65-5.34-3.24-1.74-1.95-1.83-4.93-1.1-7.3,1.56-5.07,6.88-7.33,11.19-9.57a.15.15,0,0,0,0-.25C57.84,33.46,61.72,32.32,66,33.22Z"/><path class="cls-1" d="M90.7,40.29c.12.07.26-.09.15-.19-4.22-3.68-10.08-5.53-15.47-6.46,0,0,0,0,0,0a42,42,0,0,1,8.17,2.68A76.56,76.56,0,0,1,90.7,40.29Z"/><path class="cls-1" d="M48.26,80.5c-1.77-.41-1.18-2.77-1.1-4s.14-2.33.22-3.49c.14-2.33.3-4.64.25-7h0c-.58,3.36-.77,6.78-1,10.18-.12,1.36-.9,5.31,1.69,4.82A.28.28,0,0,0,48.26,80.5Z"/><path class="cls-1" d="M43,68.78a8.8,8.8,0,0,1,1.59-3.9,8.33,8.33,0,0,1,3.8-2.43c.12,0,.12-.26,0-.25-2.93.18-5.85,3.65-5.46,6.58A.06.06,0,0,0,43,68.78Z"/><path class="cls-1" d="M59.76,71.1c.07,0,.07-.11,0-.1a2.73,2.73,0,0,0-2.44,3.3c.31,2.65,3.56,5.78.8,8.12-.13.1,0,.33.16.27a2.84,2.84,0,0,0,1.61-3.36,11.71,11.71,0,0,0-1.18-3C58,74.8,57,71.41,59.76,71.1Z"/><path class="cls-1" d="M47.16,84.93a.21.21,0,0,0,0,.42,30.52,30.52,0,0,0,6.48-.2c.2,0,.13-.31,0-.33A30.15,30.15,0,0,0,47.16,84.93Z"/><path class="cls-1" d="M42.35,65.35a20.9,20.9,0,0,0,2.06-2.72.09.09,0,0,0-.14-.11,21,21,0,0,0-2.09,2.69C42.11,65.32,42.27,65.45,42.35,65.35Z"/><path class="cls-1" d="M44,61.7a.14.14,0,0,0-.17-.22,9.31,9.31,0,0,0-1.26,1,5.77,5.77,0,0,0-1.08,1.13s0,0,0,0a5.1,5.1,0,0,0,1.18-.77A10.26,10.26,0,0,0,44,61.7Z"/><path class="cls-1" d="M43.32,76.77a26.32,26.32,0,0,0,0-5.47.15.15,0,0,0-.3,0,27,27,0,0,0,0,5.47A.18.18,0,0,0,43.32,76.77Z"/><path class="cls-1" d="M60.57,77.45a7.71,7.71,0,0,1-1-2.66,6.66,6.66,0,0,1,.44-2.57h0c-1.4,1.36-1.48,4.34.25,5.49C60.48,77.82,60.64,77.6,60.57,77.45Z"/><path class="cls-1" d="M61,74.2a10.11,10.11,0,0,0,.34,3.6c.05.14.3.19.34,0a10.5,10.5,0,0,0-.42-3.64C61.18,74,61,74.05,61,74.2Z"/><path class="cls-1" d="M29.27,57.72c1.44-.52,2.64,0,3.92.67.15.07.36-.09.25-.25-2-2.82-7.37-.77-6.94,2.67a.14.14,0,0,0,.28,0C27.28,59.51,27.8,58.25,29.27,57.72Z"/><path class="cls-1" d="M27.32,62.05a.05.05,0,0,0,.09,0,5.33,5.33,0,0,1,3.35-2.65.14.14,0,0,0,0-.27A3.56,3.56,0,0,0,27.32,62.05Z"/><path class="cls-1" d="M30.47,61a3.88,3.88,0,0,0-2.22.89,4.42,4.42,0,0,0-.87,1c-.23.35-.27.81-.5,1.14,0,.06.08.12.1,0,.11-.58,1-1.32,1.43-1.68a6.84,6.84,0,0,1,2.1-1.11C30.63,61.18,30.62,61,30.47,61Z"/><path class="cls-1" d="M17.37,82.75a9.09,9.09,0,0,0-1.73,6.87,7.74,7.74,0,0,0,3.7,5.53.15.15,0,0,0,.18-.23,11.65,11.65,0,0,1-3.25-5.24,9.09,9.09,0,0,1,1.18-6.88A0,0,0,1,0,17.37,82.75Z"/><path class="cls-1" d="M20.67,93.71c-2.21-1.89-3.68-4.49-3.14-7.49a.05.05,0,0,0-.1,0c-.87,2.88.14,6.43,3.06,7.74C20.63,94,20.81,93.83,20.67,93.71Z"/><path class="cls-1" d="M50.53,96.61a5.21,5.21,0,0,0-3.38,8.22s.12,0,.08,0c-1.77-3.27,0-6.8,3.37-7.91A.13.13,0,0,0,50.53,96.61Z"/><path class="cls-1" d="M49,77.74a.35.35,0,0,0,0,.69A.35.35,0,0,0,49,77.74Z"/><path class="cls-1" d="M52.32,80a.58.58,0,0,0,0,1.16A.58.58,0,0,0,52.32,80Z"/><path class="cls-1" d="M54.61,71a.7.7,0,0,0,0,1.39A.7.7,0,0,0,54.61,71Z"/><path class="cls-1" d="M48.76,73.78a.53.53,0,0,0,0-1.06A.53.53,0,0,0,48.76,73.78Z"/><path class="cls-1" d="M56.64,68.42a.51.51,0,0,0,0,1A.51.51,0,0,0,56.64,68.42Z"/><path class="cls-1" d="M54.1,69.31a.39.39,0,0,0,0,.77A.39.39,0,0,0,54.1,69.31Z"/><path class="cls-1" d="M56.14,50.74a.4.4,0,0,0,0,.8A.4.4,0,0,0,56.14,50.74Z"/><path class="cls-1" d="M52.32,39.33a.38.38,0,0,0,0,.75A.38.38,0,0,0,52.32,39.33Z"/><path class="cls-1" d="M68.94,40.83a.57.57,0,0,0,.36-.24.23.23,0,0,0,0-.25.55.55,0,0,0-.36-.24C68.34,39.93,68.33,41,68.94,40.83Z"/><path class="cls-1" d="M74,49.87A.62.62,0,0,1,74,50c0,.62,1,.62,1,0a.62.62,0,0,1,0-.13A.48.48,0,0,0,74,49.87Z"/><path class="cls-1" d="M31.51,68a2.69,2.69,0,0,0,.06-.57.58.58,0,1,0-.87.49,2.27,2.27,0,0,0,.48.27A.27.27,0,0,0,31.51,68Z"/><path class="cls-1" d="M33.26,87.8a.57.57,0,0,0,0-1.14A.57.57,0,0,0,33.26,87.8Z"/><path class="cls-1" d="M25.64,95.79a.6.6,0,0,0,0,1.19A.6.6,0,0,0,25.64,95.79Z"/><path class="cls-1" d="M23.62,104.79l-.13.12a.52.52,0,0,0,.73.73l.13-.12A.52.52,0,0,0,23.62,104.79Z"/><path class="cls-1" d="M89.77,28.56a.08.08,0,0,0,.06-.15C88,27.58,86.06,27,84.17,26.3a38,38,0,0,0-6.29-2,0,0,0,0,0,0,0,34.73,34.73,0,0,0,5.62,2.17C85.57,27.21,87.64,28,89.77,28.56Z"/><path class="cls-1" d="M89.84,27.18a.12.12,0,0,0,.09-.21,42,42,0,0,0-4.17-1.86A30.19,30.19,0,0,0,81,23.3s0,0,0,0a29.94,29.94,0,0,0,4.62,2.17A40.68,40.68,0,0,0,89.84,27.18Z"/><path class="cls-1" d="M90.17,24.81a.11.11,0,0,0,.06-.22,38.56,38.56,0,0,0-7.14-2s-.09.07,0,.09A38.29,38.29,0,0,0,90.17,24.81Z"/><path class="cls-1" d="M110.29,8.49c0,.12.25.12.24,0-.24-2.85-3.63-4.55-6.14-3.42,0,0,0,0,0,0A5.06,5.06,0,0,1,110.29,8.49Z"/><path class="cls-1" d="M60,104.24h0c2,.73,4.82,0,6.74-.64a14,14,0,0,0,5.93-3.39.15.15,0,0,0-.18-.23,25.45,25.45,0,0,1-6.09,3.3A17,17,0,0,1,63,104,25.1,25.1,0,0,0,60,104.24Z"/><path class="cls-1" d="M80,72.69a17.88,17.88,0,0,1,3.26,8.42,20.7,20.7,0,0,1-1.12,8.54.1.1,0,0,0,.18.07c2.92-5.4,1.35-12.46-2.31-17Z"/><path class="cls-1" d="M79.42,75.3s0,0,0,0a11.42,11.42,0,0,1,2.67,5.48,16,16,0,0,1-.37,6c0,.13.16.24.24.1C84,83.18,82.17,78.16,79.42,75.3Z"/><path class="cls-1" d="M79.56,78.05a15.25,15.25,0,0,1,1.53,7.49.11.11,0,0,0,.21,0A10,10,0,0,0,79.59,78S79.55,78,79.56,78.05Z"/><path class="cls-1" d="M63.13,87.88a10.26,10.26,0,0,0,2.55-8.31c0-.16-.26-.11-.27,0-.21,3.16-.86,6.09-3.11,8.45a20.21,20.21,0,0,1-8,4.58c-.06,0,0,.12,0,.1C57.53,91.46,60.79,90.61,63.13,87.88Z"/><path class="cls-1" d="M65.73,83.66c-.78,3.12-2.79,6.55-6.26,7.25-.06,0,0,.11,0,.1a8.79,8.79,0,0,0,4.62-2.67A7.07,7.07,0,0,0,66,83.69.12.12,0,0,0,65.73,83.66Z"/><path class="cls-1" d="M61.86,91.94s0,.11.07.07a11.59,11.59,0,0,0,4.31-6.44c0-.11-.14-.2-.19-.08A17.6,17.6,0,0,1,61.86,91.94Z"/><path class="cls-1" d="M64,60.44c-1.64-1.23-4.2-5.38-6.66-3.35h0c1.42,0,2.44,0,3.54,1,.62.61,1.11,1.33,1.74,1.92a10,10,0,0,0,3.52,2,10.83,10.83,0,0,0,8.31-.06.08.08,0,0,0-.06-.14C70.69,63,67.07,62.78,64,60.44Z"/><path class="cls-1" d="M63.22,56.42c-1.34-1.12-3.18-1.72-4.68-.61,0,0,0,0,0,0,5.11-2.64,7,7.62,12,5.12a.05.05,0,0,0,0-.1C67,62,65.44,58.28,63.22,56.42Z"/><path class="cls-1" d="M78.65,47.91a65.35,65.35,0,0,0-8.16-6h0a64.67,64.67,0,0,0,8,6.18A.1.1,0,0,0,78.65,47.91Z"/><path class="cls-1" d="M70.63,44.33h0a20.76,20.76,0,0,0,4.42,2.56c.14.05.19-.14.09-.22A20.79,20.79,0,0,0,70.63,44.33Z"/><path class="cls-1" d="M73.77,47.44a22.4,22.4,0,0,0-3.48-2.11h0a22.44,22.44,0,0,0,3.34,2.29C73.74,47.68,73.88,47.53,73.77,47.44Z"/><path class="cls-1" d="M35.37,77.63a23.75,23.75,0,0,1-1.29-3.87A9.87,9.87,0,0,1,34.49,69s-.05-.08-.08,0c-1.47,1.75-1,4.52-.34,6.51,1.06,3.2,2.73,5.94,2.43,9.45,0,.09.14.11.16,0C37.3,82.38,36.28,80,35.37,77.63Z"/><path class="cls-1" d="M34.53,92.12a11.16,11.16,0,0,1-3.41,6.18c-.14.12.06.31.19.2a8.93,8.93,0,0,0,3.43-6.35A.11.11,0,0,0,34.53,92.12Z"/><path class="cls-1" d="M50.89,101.79a3.88,3.88,0,0,0,1.43,4.06.18.18,0,0,0,.25-.25,5.26,5.26,0,0,1-1.22-3.51,4.06,4.06,0,0,1,2.77-3.45h0A4.46,4.46,0,0,0,50.89,101.79Z"/><path class="cls-1" d="M28,105.07a.05.05,0,0,0,0-.1A.05.05,0,1,0,28,105.07Z"/><path class="cls-1" d="M41.55,107.79A16.21,16.21,0,0,0,39,104.57a6,6,0,0,0-4.23-1.14.37.37,0,0,0-.24-.09H34.4a.36.36,0,0,0-.31.15,21.85,21.85,0,0,0-2.42.39c-2.05.42-4.36,1.32-5.14,3.44a3.28,3.28,0,0,0,1.5,4.31c.16.07.3-.15.14-.24-2-1.06-1.49-4,0-5.24s3.86-1.57,5.8-1.85c1.4-.21,2.88-.5,4.2.24a8.46,8.46,0,0,1,2.48,2.77,51.36,51.36,0,0,0,3.82,5.39c.15.17.4,0,.3-.23A43.35,43.35,0,0,0,41.55,107.79Z"/><path class="cls-1" d="M33.07,106.61a.15.15,0,0,0,0-.3,3.26,3.26,0,0,0-3.4,1.14,3.72,3.72,0,0,0-.9,1.59,3.83,3.83,0,0,0,.15,1.87c0,.07.12,0,.1,0-.4-1,.35-2.49,1.05-3.21A3.77,3.77,0,0,1,33.07,106.61Z"/><path class="cls-1" d="M87.71,65.72c-.09.22.21.41.33.19a40.78,40.78,0,0,0,3.1-6.46c.06-.17-.19-.26-.29-.12A40.71,40.71,0,0,0,87.71,65.72Z"/><path class="cls-1" d="M85.1,58.48c-.1.16.13.34.27.21a8.5,8.5,0,0,0-2.16-13.26,0,0,0,0,0,0,0C87.46,48.84,88.13,54,85.1,58.48Z"/><path class="cls-1" d="M81.18,51.16a.11.11,0,0,0-.17.12c1.77,2.7.21,5.48-2.54,6.54a.14.14,0,0,0,0,.28C82.08,58,83.22,53.65,81.18,51.16Z"/><path class="cls-1" d="M51.06,37.94s0,0,0,0a37,37,0,0,1,4.63-2.43,25.3,25.3,0,0,1,5.18-.82c.18,0,.27-.31,0-.35C57.84,33.71,52.9,35.28,51.06,37.94Z"/></g></g></g></svg>